<svg width="40" height="40" viewBox="0 0 40 40" fill="none" xmlns="http://www.w3.org/2000/svg">
<rect width="40" height="40" rx="4" fill="#232F6A" fill-opacity="0.8"/>
<path d="M17.4617 16.0255C16.6997 16.1513 16.0384 16.7767 15.8587 17.5314C15.7545 17.9735 15.812 18.4192 16.0384 18.9475C16.0564 18.9907 15.068 20.0653 13.961 21.2046C13.9251 21.2442 13.8676 21.2334 13.6483 21.1615C13.0877 20.9746 12.6025 21.0034 12.0957 21.2585C10.8809 21.8587 10.6257 23.4689 11.5853 24.4285C11.9735 24.8167 12.4371 25 13.005 24.9964C13.5729 24.9928 14.0365 24.7879 14.4211 24.371C14.9674 23.7816 15.1076 22.9406 14.7841 22.1966L14.7014 22.0133L15.7797 20.8812L16.8579 19.749L17.0807 19.8425C17.2784 19.9287 17.3431 19.9359 17.7852 19.9359C18.2272 19.9359 18.2919 19.9287 18.4932 19.8425L18.716 19.749L19.7979 20.8812C20.3909 21.5065 20.8689 22.0349 20.8617 22.0528C20.6784 22.459 20.6497 22.5776 20.6317 22.919C20.6065 23.5336 20.7755 23.9865 21.1996 24.4142C21.5805 24.7987 22.055 25 22.6013 25C23.144 25 23.6112 24.8023 24.003 24.4106C24.578 23.8355 24.7398 22.9693 24.4127 22.2218C24.33 22.0385 24.33 22.0277 24.3911 21.9522C24.4235 21.9091 24.9087 21.3951 25.4694 20.8093L26.4865 19.749L26.7093 19.8425C26.9106 19.9251 26.9789 19.9359 27.3814 19.9359C27.9026 19.9359 28.1254 19.8784 28.4633 19.6592C29.0383 19.289 29.3941 18.6384 29.3941 17.9591C29.3941 17.7147 29.2755 17.2619 29.1533 17.0319C29.0203 16.7875 28.6358 16.4029 28.3842 16.2591C28.1362 16.119 27.6941 16.0004 27.421 16.0004C26.6698 16.0039 25.9618 16.4424 25.6167 17.1217C25.3723 17.5997 25.3759 18.3617 25.6275 18.8505L25.6958 18.9871L25.0201 19.6951C24.6499 20.0833 24.1575 20.5936 23.9311 20.8272L23.5178 21.2478L23.2482 21.1507C23.0182 21.068 22.9211 21.0537 22.6013 21.0537C22.2814 21.0537 22.1808 21.068 21.9471 21.1543L21.6668 21.2513L21.2427 20.8093C20.0279 19.5441 19.5283 19.0086 19.5355 18.9691C19.5391 18.9475 19.5858 18.8253 19.6397 18.6959C19.7152 18.5162 19.7404 18.3832 19.7547 18.1209C19.7763 17.6932 19.726 17.4416 19.5427 17.0822C19.1689 16.3346 18.2883 15.8853 17.4617 16.0255Z" fill="white"/>
</svg>
