<svg xmlns="http://www.w3.org/2000/svg" width="32" height="32" viewBox="0 0 32 32" fill="none">
    <path d="M22.8746 8.5H11.624C11.4583 8.5 11.2993 8.56585 11.1821 8.68306C11.0649 8.80027 10.999 8.95924 10.999 9.125C10.999 9.29076 11.0649 9.44973 11.1821 9.56694C11.2993 9.68415 11.4583 9.75 11.624 9.75H22.2496V20.3751C22.2496 20.5408 22.3154 20.6998 22.4326 20.817C22.5498 20.9342 22.7088 21.0001 22.8746 21.0001C23.0403 21.0001 23.1993 20.9342 23.3165 20.817C23.4337 20.6998 23.4996 20.5408 23.4996 20.3751V9.125C23.4996 8.95924 23.4337 8.80027 23.3165 8.68306C23.1993 8.56585 23.0403 8.5 22.8746 8.5Z" fill="#353432"/>
    <path d="M20.3745 11H9.12402C8.77885 11 8.49902 11.2798 8.49902 11.625V22.875C8.49902 23.2202 8.77885 23.5 9.12402 23.5H20.3745C20.7197 23.5 20.9995 23.2202 20.9995 22.875V11.625C20.9995 11.2798 20.7197 11 20.3745 11Z" fill="#353432"/>
</svg>
