<svg xmlns="http://www.w3.org/2000/svg" width="22" height="22" viewBox="0 0 22 22" fill="none">
    <mask id="path-1-outside-1_9130_2911" maskUnits="userSpaceOnUse" x="-0.232422" y="-0.5" width="22" height="23" fill="black">
        <rect fill="white" x="-0.232422" y="-0.5" width="22" height="23"/>
        <path d="M13.0794 0.5C13.2382 0.500005 13.3929 0.550406 13.5212 0.643944C13.6495 0.737482 13.7448 0.86933 13.7934 1.0205L14.6184 3.584C14.9649 3.7535 15.2964 3.944 15.6129 4.1585L18.2469 3.5915C18.4022 3.55834 18.564 3.57534 18.7091 3.64003C18.8541 3.70473 18.9748 3.81379 19.0539 3.9515L21.1329 7.55C21.2123 7.68763 21.2459 7.84693 21.2289 8.0049C21.212 8.16288 21.1452 8.31139 21.0384 8.429L19.2309 10.424C19.2572 10.8065 19.2572 11.1905 19.2309 11.573L21.0384 13.571C21.1452 13.6886 21.212 13.8371 21.2289 13.9951C21.2459 14.1531 21.2123 14.3124 21.1329 14.45L19.0539 18.05C18.9746 18.1874 18.8538 18.2962 18.7088 18.3606C18.5638 18.425 18.4021 18.4418 18.2469 18.4085L15.6129 17.8415C15.2979 18.0545 14.9649 18.2465 14.6199 18.416L13.7934 20.9795C13.7448 21.1307 13.6495 21.2625 13.5212 21.3561C13.3929 21.4496 13.2382 21.5 13.0794 21.5H8.92141C8.76262 21.5 8.60793 21.4496 8.47962 21.3561C8.35131 21.2625 8.256 21.1307 8.20741 20.9795L7.38391 18.4175C7.03834 18.2485 6.70502 18.0555 6.38641 17.84L3.75391 18.4085C3.5986 18.4417 3.43678 18.4247 3.29176 18.36C3.14673 18.2953 3.02598 18.1862 2.94691 18.0485L0.867907 14.45C0.788518 14.3124 0.754892 14.1531 0.771876 13.9951C0.78886 13.8371 0.855577 13.6886 0.962407 13.571L2.76991 11.573C2.74372 11.1914 2.74372 10.8086 2.76991 10.427L0.962407 8.429C0.855577 8.31139 0.78886 8.16288 0.771876 8.0049C0.754892 7.84693 0.788518 7.68763 0.867907 7.55L2.94691 3.95C3.0262 3.81256 3.14704 3.70381 3.29205 3.63939C3.43706 3.57497 3.59876 3.55821 3.75391 3.5915L6.38641 4.16C6.70441 3.9455 7.03741 3.752 7.38391 3.5825L8.20891 1.0205C8.25734 0.869817 8.3522 0.738318 8.47991 0.644825C8.60762 0.551332 8.76163 0.500639 8.91991 0.5H13.0779H13.0794ZM12.5304 2H9.47041L8.61841 4.6505L8.04391 4.931C7.76148 5.06921 7.48885 5.22657 7.22791 5.402L6.69691 5.762L3.97291 5.174L2.44291 7.826L4.31041 9.893L4.26541 10.529C4.24385 10.8426 4.24385 11.1574 4.26541 11.471L4.31041 12.107L2.43991 14.174L3.97141 16.826L6.69541 16.2395L7.22641 16.598C7.48735 16.7734 7.75998 16.9308 8.04241 17.069L8.61691 17.3495L9.47041 20H12.5334L13.3884 17.348L13.9614 17.069C14.2435 16.9311 14.5157 16.7737 14.7759 16.598L15.3054 16.2395L18.0309 16.826L19.5609 14.174L17.6919 12.107L17.7369 11.471C17.7585 11.1569 17.7585 10.8416 17.7369 10.5275L17.6919 9.8915L19.5624 7.826L18.0309 5.174L15.3054 5.759L14.7759 5.402C14.5157 5.22622 14.2435 5.06884 13.9614 4.931L13.3884 4.652L12.5319 2H12.5304ZM11.0004 6.5C12.1939 6.5 13.3385 6.97411 14.1824 7.81802C15.0263 8.66193 15.5004 9.80653 15.5004 11C15.5004 12.1935 15.0263 13.3381 14.1824 14.182C13.3385 15.0259 12.1939 15.5 11.0004 15.5C9.80693 15.5 8.66234 15.0259 7.81843 14.182C6.97451 13.3381 6.50041 12.1935 6.50041 11C6.50041 9.80653 6.97451 8.66193 7.81843 7.81802C8.66234 6.97411 9.80693 6.5 11.0004 6.5ZM11.0004 8C10.2048 8 9.4417 8.31607 8.87909 8.87868C8.31648 9.44129 8.00041 10.2044 8.00041 11C8.00041 11.7956 8.31648 12.5587 8.87909 13.1213C9.4417 13.6839 10.2048 14 11.0004 14C11.7961 14 12.5591 13.6839 13.1217 13.1213C13.6843 12.5587 14.0004 11.7956 14.0004 11C14.0004 10.2044 13.6843 9.44129 13.1217 8.87868C12.5591 8.31607 11.7961 8 11.0004 8Z"/>
    </mask>
    <path d="M13.0794 0.5C13.2382 0.500005 13.3929 0.550406 13.5212 0.643944C13.6495 0.737482 13.7448 0.86933 13.7934 1.0205L14.6184 3.584C14.9649 3.7535 15.2964 3.944 15.6129 4.1585L18.2469 3.5915C18.4022 3.55834 18.564 3.57534 18.7091 3.64003C18.8541 3.70473 18.9748 3.81379 19.0539 3.9515L21.1329 7.55C21.2123 7.68763 21.2459 7.84693 21.2289 8.0049C21.212 8.16288 21.1452 8.31139 21.0384 8.429L19.2309 10.424C19.2572 10.8065 19.2572 11.1905 19.2309 11.573L21.0384 13.571C21.1452 13.6886 21.212 13.8371 21.2289 13.9951C21.2459 14.1531 21.2123 14.3124 21.1329 14.45L19.0539 18.05C18.9746 18.1874 18.8538 18.2962 18.7088 18.3606C18.5638 18.425 18.4021 18.4418 18.2469 18.4085L15.6129 17.8415C15.2979 18.0545 14.9649 18.2465 14.6199 18.416L13.7934 20.9795C13.7448 21.1307 13.6495 21.2625 13.5212 21.3561C13.3929 21.4496 13.2382 21.5 13.0794 21.5H8.92141C8.76262 21.5 8.60793 21.4496 8.47962 21.3561C8.35131 21.2625 8.256 21.1307 8.20741 20.9795L7.38391 18.4175C7.03834 18.2485 6.70502 18.0555 6.38641 17.84L3.75391 18.4085C3.5986 18.4417 3.43678 18.4247 3.29176 18.36C3.14673 18.2953 3.02598 18.1862 2.94691 18.0485L0.867907 14.45C0.788518 14.3124 0.754892 14.1531 0.771876 13.9951C0.78886 13.8371 0.855577 13.6886 0.962407 13.571L2.76991 11.573C2.74372 11.1914 2.74372 10.8086 2.76991 10.427L0.962407 8.429C0.855577 8.31139 0.78886 8.16288 0.771876 8.0049C0.754892 7.84693 0.788518 7.68763 0.867907 7.55L2.94691 3.95C3.0262 3.81256 3.14704 3.70381 3.29205 3.63939C3.43706 3.57497 3.59876 3.55821 3.75391 3.5915L6.38641 4.16C6.70441 3.9455 7.03741 3.752 7.38391 3.5825L8.20891 1.0205C8.25734 0.869817 8.3522 0.738318 8.47991 0.644825C8.60762 0.551332 8.76163 0.500639 8.91991 0.5H13.0779H13.0794ZM12.5304 2H9.47041L8.61841 4.6505L8.04391 4.931C7.76148 5.06921 7.48885 5.22657 7.22791 5.402L6.69691 5.762L3.97291 5.174L2.44291 7.826L4.31041 9.893L4.26541 10.529C4.24385 10.8426 4.24385 11.1574 4.26541 11.471L4.31041 12.107L2.43991 14.174L3.97141 16.826L6.69541 16.2395L7.22641 16.598C7.48735 16.7734 7.75998 16.9308 8.04241 17.069L8.61691 17.3495L9.47041 20H12.5334L13.3884 17.348L13.9614 17.069C14.2435 16.9311 14.5157 16.7737 14.7759 16.598L15.3054 16.2395L18.0309 16.826L19.5609 14.174L17.6919 12.107L17.7369 11.471C17.7585 11.1569 17.7585 10.8416 17.7369 10.5275L17.6919 9.8915L19.5624 7.826L18.0309 5.174L15.3054 5.759L14.7759 5.402C14.5157 5.22622 14.2435 5.06884 13.9614 4.931L13.3884 4.652L12.5319 2H12.5304ZM11.0004 6.5C12.1939 6.5 13.3385 6.97411 14.1824 7.81802C15.0263 8.66193 15.5004 9.80653 15.5004 11C15.5004 12.1935 15.0263 13.3381 14.1824 14.182C13.3385 15.0259 12.1939 15.5 11.0004 15.5C9.80693 15.5 8.66234 15.0259 7.81843 14.182C6.97451 13.3381 6.50041 12.1935 6.50041 11C6.50041 9.80653 6.97451 8.66193 7.81843 7.81802C8.66234 6.97411 9.80693 6.5 11.0004 6.5ZM11.0004 8C10.2048 8 9.4417 8.31607 8.87909 8.87868C8.31648 9.44129 8.00041 10.2044 8.00041 11C8.00041 11.7956 8.31648 12.5587 8.87909 13.1213C9.4417 13.6839 10.2048 14 11.0004 14C11.7961 14 12.5591 13.6839 13.1217 13.1213C13.6843 12.5587 14.0004 11.7956 14.0004 11C14.0004 10.2044 13.6843 9.44129 13.1217 8.87868C12.5591 8.31607 11.7961 8 11.0004 8Z" fill="#808080"/>
    <path d="M13.0794 0.5C13.2382 0.500005 13.3929 0.550406 13.5212 0.643944C13.6495 0.737482 13.7448 0.86933 13.7934 1.0205L14.6184 3.584C14.9649 3.7535 15.2964 3.944 15.6129 4.1585L18.2469 3.5915C18.4022 3.55834 18.564 3.57534 18.7091 3.64003C18.8541 3.70473 18.9748 3.81379 19.0539 3.9515L21.1329 7.55C21.2123 7.68763 21.2459 7.84693 21.2289 8.0049C21.212 8.16288 21.1452 8.31139 21.0384 8.429L19.2309 10.424C19.2572 10.8065 19.2572 11.1905 19.2309 11.573L21.0384 13.571C21.1452 13.6886 21.212 13.8371 21.2289 13.9951C21.2459 14.1531 21.2123 14.3124 21.1329 14.45L19.0539 18.05C18.9746 18.1874 18.8538 18.2962 18.7088 18.3606C18.5638 18.425 18.4021 18.4418 18.2469 18.4085L15.6129 17.8415C15.2979 18.0545 14.9649 18.2465 14.6199 18.416L13.7934 20.9795C13.7448 21.1307 13.6495 21.2625 13.5212 21.3561C13.3929 21.4496 13.2382 21.5 13.0794 21.5H8.92141C8.76262 21.5 8.60793 21.4496 8.47962 21.3561C8.35131 21.2625 8.256 21.1307 8.20741 20.9795L7.38391 18.4175C7.03834 18.2485 6.70502 18.0555 6.38641 17.84L3.75391 18.4085C3.5986 18.4417 3.43678 18.4247 3.29176 18.36C3.14673 18.2953 3.02598 18.1862 2.94691 18.0485L0.867907 14.45C0.788518 14.3124 0.754892 14.1531 0.771876 13.9951C0.78886 13.8371 0.855577 13.6886 0.962407 13.571L2.76991 11.573C2.74372 11.1914 2.74372 10.8086 2.76991 10.427L0.962407 8.429C0.855577 8.31139 0.78886 8.16288 0.771876 8.0049C0.754892 7.84693 0.788518 7.68763 0.867907 7.55L2.94691 3.95C3.0262 3.81256 3.14704 3.70381 3.29205 3.63939C3.43706 3.57497 3.59876 3.55821 3.75391 3.5915L6.38641 4.16C6.70441 3.9455 7.03741 3.752 7.38391 3.5825L8.20891 1.0205C8.25734 0.869817 8.3522 0.738318 8.47991 0.644825C8.60762 0.551332 8.76163 0.500639 8.91991 0.5H13.0779H13.0794ZM12.5304 2H9.47041L8.61841 4.6505L8.04391 4.931C7.76148 5.06921 7.48885 5.22657 7.22791 5.402L6.69691 5.762L3.97291 5.174L2.44291 7.826L4.31041 9.893L4.26541 10.529C4.24385 10.8426 4.24385 11.1574 4.26541 11.471L4.31041 12.107L2.43991 14.174L3.97141 16.826L6.69541 16.2395L7.22641 16.598C7.48735 16.7734 7.75998 16.9308 8.04241 17.069L8.61691 17.3495L9.47041 20H12.5334L13.3884 17.348L13.9614 17.069C14.2435 16.9311 14.5157 16.7737 14.7759 16.598L15.3054 16.2395L18.0309 16.826L19.5609 14.174L17.6919 12.107L17.7369 11.471C17.7585 11.1569 17.7585 10.8416 17.7369 10.5275L17.6919 9.8915L19.5624 7.826L18.0309 5.174L15.3054 5.759L14.7759 5.402C14.5157 5.22622 14.2435 5.06884 13.9614 4.931L13.3884 4.652L12.5319 2H12.5304ZM11.0004 6.5C12.1939 6.5 13.3385 6.97411 14.1824 7.81802C15.0263 8.66193 15.5004 9.80653 15.5004 11C15.5004 12.1935 15.0263 13.3381 14.1824 14.182C13.3385 15.0259 12.1939 15.5 11.0004 15.5C9.80693 15.5 8.66234 15.0259 7.81843 14.182C6.97451 13.3381 6.50041 12.1935 6.50041 11C6.50041 9.80653 6.97451 8.66193 7.81843 7.81802C8.66234 6.97411 9.80693 6.5 11.0004 6.5ZM11.0004 8C10.2048 8 9.4417 8.31607 8.87909 8.87868C8.31648 9.44129 8.00041 10.2044 8.00041 11C8.00041 11.7956 8.31648 12.5587 8.87909 13.1213C9.4417 13.6839 10.2048 14 11.0004 14C11.7961 14 12.5591 13.6839 13.1217 13.1213C13.6843 12.5587 14.0004 11.7956 14.0004 11C14.0004 10.2044 13.6843 9.44129 13.1217 8.87868C12.5591 8.31607 11.7961 8 11.0004 8Z" stroke="#808080" stroke-width="0.4" mask="url(#path-1-outside-1_9130_2911)"/>
</svg>
