<svg width="32" height="32" viewBox="0 0 32 32" fill="none" xmlns="http://www.w3.org/2000/svg">
<rect width="32" height="32" rx="2" fill="#232F6A" fill-opacity="0.2"/>
<g clip-path="url(#clip0_13109_52169)">
<path d="M17.2662 19.8576V22.5413C17.2662 22.8467 17.1069 22.9995 16.7885 22.9995H14.5508C14.2155 22.9995 14.0479 22.8395 14.0479 22.5195V19.8795C14.0479 19.5886 14.2155 19.4431 14.5508 19.4431H16.7885C17.1069 19.4431 17.2662 19.5813 17.2662 19.8576ZM17.241 16.9995V17.5667C17.241 17.8722 17.065 18.0249 16.713 18.0249H14.7268C14.3748 18.0249 14.1988 17.8722 14.1988 17.5667V16.9776C14.1988 16.4976 14.2909 16.1122 14.4753 15.8213C14.6597 15.5158 14.9698 15.2104 15.4056 14.9049L16.8136 13.9013C17.35 13.5376 17.6182 13.1376 17.6182 12.7013V12.5704C17.6182 12.1195 17.4925 11.7995 17.241 11.6104C17.0064 11.4067 16.6125 11.3049 16.0593 11.3049H15.6068C15.0871 11.3049 14.71 11.3995 14.4753 11.5886C14.2574 11.7776 14.1485 12.1049 14.1485 12.5704V13.0286C14.1485 13.3486 13.9725 13.5086 13.6205 13.5086H11.4833C11.1313 13.5086 10.9553 13.3486 10.9553 13.0286V12.5267C10.9553 11.3922 11.3157 10.5195 12.0365 9.90855C12.7572 9.29764 13.7797 8.99219 15.1039 8.99219H16.5873C17.9115 8.99219 18.934 9.29764 19.6548 9.90855C20.3755 10.5195 20.7359 11.3922 20.7359 12.5267V12.8322C20.7359 13.5449 20.3588 14.1849 19.6045 14.7522L17.8948 15.9522C17.4589 16.3013 17.241 16.6504 17.241 16.9995Z" fill="#232F6A"/>
</g>
<defs>
<clipPath id="clip0_13109_52169">
<rect width="11" height="15" fill="white" transform="translate(10 8)"/>
</clipPath>
</defs>
</svg>
