<svg xmlns="http://www.w3.org/2000/svg" width="23" height="22" viewBox="0 0 23 22" fill="none">
    <path d="M20.8233 12.7615L15.7634 12.3096L15.7055 12.958L20.7654 13.4099L20.8233 12.7615Z" fill="#8F95B2"/>
    <path d="M15.012 12.3912L13.1285 14.2812L13.5897 14.7408L15.4732 12.8508L15.012 12.3912Z" fill="#8F95B2"/>
    <path d="M10.0879 13.2588H7.41968V13.9098H10.0879V13.2588Z" fill="#8F95B2"/>
    <path d="M16.1252 3.51406L13.9064 4.99609L14.268 5.53748L16.4868 4.05544L16.1252 3.51406Z" fill="#8F95B2"/>
    <path d="M20.7385 6.31569L18.0841 6.58691L18.1503 7.23459L20.8047 6.96336L20.7385 6.31569Z" fill="#8F95B2"/>
    <path d="M19.1133 16.6353L16.5505 15.8926L16.3693 16.5179L18.9321 17.2606L19.1133 16.6353Z" fill="#8F95B2"/>
    <path d="M3.84416 7.2242L6.45911 7.75488L6.58859 7.11685L3.97364 6.58616L3.84416 7.2242Z" fill="#8F95B2"/>
    <path d="M6.3524 13.2588H1.54956V13.9098H6.3524V13.2588Z" fill="#8F95B2"/>
    <path d="M13.0187 5.58925L10.7999 7.07129L11.1615 7.61267L13.3804 6.13064L13.0187 5.58925Z" fill="#8F95B2"/>
    <path d="M15.5256 15.5952L12.9628 14.8525L12.7816 15.4779L15.3444 16.2206L15.5256 15.5952Z" fill="#8F95B2"/>
    <path d="M13.5417 5.18112L11.1887 3.92285L10.8817 4.49696L13.2347 5.75523L13.5417 5.18112Z" fill="#8F95B2"/>
    <path d="M16.1737 15.7334L15.6207 13.123L14.9838 13.258L15.5368 15.8683L16.1737 15.7334Z" fill="#8F95B2"/>
    <path d="M6.69219 14.0083L5.3894 16.3369L5.95757 16.6548L7.26036 14.3262L6.69219 14.0083Z" fill="#8F95B2"/>
    <path d="M13.7173 6.02167L13.9274 8.68164L14.5764 8.6304L14.3664 5.97042L13.7173 6.02167Z" fill="#8F95B2"/>
    <path d="M12.2574 15.3152L9.94409 18.1406L10.4478 18.5531L12.7611 15.7276L12.2574 15.3152Z" fill="#8F95B2"/>
    <path d="M9.36438 10.5476L7.38196 7.68555L6.84676 8.05626L8.82918 10.9183L9.36438 10.5476Z" fill="#8F95B2"/>
    <path d="M14.514 5.81686L16.8324 7.1377L17.1547 6.57201L14.8363 5.25118L14.514 5.81686Z" fill="#8F95B2"/>
    <path d="M16.2387 16.9129L16.9227 19.9473L17.5578 19.8041L16.8738 16.7697L16.2387 16.9129Z" fill="#8F95B2"/>
    <path d="M9.86857 17.8562L7.22925 18.248L7.32486 18.892L9.96418 18.5002L9.86857 17.8562Z" fill="#8F95B2"/>
    <path d="M6.61443 6.74487L5.91858 4.16895L5.29006 4.33873L5.98591 6.91465L6.61443 6.74487Z" fill="#8F95B2"/>
    <path d="M7.89402 12.9399L9.11694 10.5684L8.53831 10.27L7.31538 12.6415L7.89402 12.9399Z" fill="#8F95B2"/>
    <path d="M9.49522 10.2719L10.7181 7.90039L10.1395 7.602L8.91658 9.97351L9.49522 10.2719Z" fill="#8F95B2"/>
    <path d="M11.3165 13.6097L14.9357 12.6846L14.7744 12.0538L11.1553 12.9789L11.3165 13.6097Z" fill="#8F95B2"/>
    <path d="M14.1233 4.46576L13.823 1.81445L13.1761 1.88772L13.4764 4.53902L14.1233 4.46576Z" fill="#8F95B2"/>
    <path d="M16.7922 15.7721L20.5677 13.2002L20.2012 12.6621L16.4257 15.2341L16.7922 15.7721Z" fill="#8F95B2"/>
    <path d="M11.0099 18.6785L12.8827 20.5791L13.3464 20.1222L11.4737 18.2215L11.0099 18.6785Z" fill="#8F95B2"/>
    <path d="M11.1678 4.73813C11.7192 4.36983 11.8677 3.62426 11.4994 3.07286C11.1311 2.52146 10.3855 2.37303 9.83409 2.74133C9.28269 3.10964 9.13426 3.8552 9.50256 4.4066C9.87087 4.958 10.6164 5.10643 11.1678 4.73813Z" fill="#232F6A" stroke="white" stroke-width="0.2"/>
    <path d="M14.9833 13.6327C15.6202 13.8173 16.2861 13.4506 16.4707 12.8138C16.6553 12.1769 16.2886 11.511 15.6517 11.3264C15.0148 11.1418 14.3489 11.5085 14.1643 12.1454C13.9798 12.7823 14.3464 13.4482 14.9833 13.6327Z" fill="#232F6A" stroke="white" stroke-width="0.2"/>
    <path d="M5.2851 17.9286C5.9482 17.9286 6.48574 17.3911 6.48574 16.728C6.48574 16.0649 5.9482 15.5273 5.2851 15.5273C4.62201 15.5273 4.08447 16.0649 4.08447 16.728C4.08447 17.3911 4.62201 17.9286 5.2851 17.9286Z" fill="#232F6A" stroke="white" stroke-width="0.2"/>
    <path d="M14.7244 10.0633C15.2758 9.69503 15.4242 8.94946 15.0559 8.39806C14.6876 7.84666 13.942 7.69823 13.3906 8.06653C12.8392 8.43483 12.6908 9.1804 13.0591 9.7318C13.4274 10.2832 14.173 10.4316 14.7244 10.0633Z" fill="#232F6A" stroke="white" stroke-width="0.2"/>
    <path d="M7.15278 14.7274C7.81587 14.7274 8.35341 14.1899 8.35341 13.5268C8.35341 12.8637 7.81587 12.3262 7.15278 12.3262C6.48969 12.3262 5.95215 12.8637 5.95215 13.5268C5.95215 14.1899 6.48969 14.7274 7.15278 14.7274Z" fill="#232F6A" stroke="white" stroke-width="0.2"/>
    <path d="M14.4994 6.36313C15.0508 5.99483 15.1992 5.24926 14.8309 4.69786C14.4626 4.14646 13.717 3.99803 13.1656 4.36633C12.6142 4.73464 12.4658 5.4802 12.8341 6.0316C13.2024 6.583 13.948 6.73143 14.4994 6.36313Z" fill="#232F6A" stroke="white" stroke-width="0.2"/>
    <path d="M15.8857 17.2275C16.5226 17.412 17.1885 17.0454 17.373 16.4085C17.5576 15.7716 17.1909 15.1057 16.5541 14.9211C15.9172 14.7365 15.2513 15.1032 15.0667 15.7401C14.8821 16.377 15.2488 17.0429 15.8857 17.2275Z" fill="#232F6A" stroke="white" stroke-width="0.2"/>
    <path d="M9.5431 17.4166C9.33661 18.0467 9.68003 18.7249 10.3102 18.9314C10.9403 19.1379 11.6185 18.7945 11.825 18.1644C12.0315 17.5343 11.688 16.856 11.0579 16.6496C10.4278 16.4431 9.74959 16.7865 9.5431 17.4166Z" fill="#232F6A" stroke="white" stroke-width="0.2"/>
    <path d="M7.01249 6.37081C6.36264 6.23892 5.72893 6.65882 5.59705 7.30866C5.46517 7.9585 5.88506 8.59222 6.5349 8.7241C7.18475 8.85598 7.81846 8.43609 7.95034 7.78624C8.08222 7.1364 7.66233 6.50269 7.01249 6.37081Z" fill="#232F6A" stroke="white" stroke-width="0.2"/>
    <path d="M9.0207 11.5253C9.68379 11.5253 10.2213 10.9877 10.2213 10.3247C10.2213 9.66156 9.68379 9.12402 9.0207 9.12402C8.35761 9.12402 7.82007 9.66156 7.82007 10.3247C7.82007 10.9877 8.35761 11.5253 9.0207 11.5253Z" fill="#232F6A" stroke="white" stroke-width="0.2"/>
    <path d="M14.2743 2.66391C14.8257 2.29561 14.9741 1.55004 14.6058 0.998644C14.2375 0.447243 13.4919 0.298812 12.9405 0.667114C12.3891 1.03542 12.2407 1.78098 12.609 2.33238C12.9773 2.88378 13.7229 3.03222 14.2743 2.66391Z" fill="#232F6A" stroke="white" stroke-width="0.2"/>
    <path d="M20.1718 14.1376C20.8087 14.3222 21.4746 13.9555 21.6592 13.3186C21.8438 12.6818 21.4771 12.0158 20.8402 11.8313C20.2033 11.6467 19.5374 12.0134 19.3528 12.6503C19.1682 13.2871 19.5349 13.9531 20.1718 14.1376Z" fill="#232F6A" stroke="white" stroke-width="0.2"/>
    <path d="M12.1096 20.8875C12.4513 21.4557 13.1889 21.6394 13.7572 21.2977C14.3255 20.956 14.5091 20.2183 14.1674 19.65C13.8257 19.0818 13.088 18.8981 12.5198 19.2398C11.9515 19.5815 11.7678 20.3192 12.1096 20.8875Z" fill="#232F6A" stroke="white" stroke-width="0.2"/>
    <path d="M17.8312 7.98813C18.3826 7.61983 18.531 6.87426 18.1627 6.32286C17.7944 5.77146 17.0488 5.62303 16.4974 5.99133C15.946 6.35964 15.7976 7.1052 16.1659 7.6566C16.5342 8.208 17.2798 8.35644 17.8312 7.98813Z" fill="#232F6A" stroke="white" stroke-width="0.2"/>
    <path d="M16.892 21.121C17.5289 21.3056 18.1948 20.9389 18.3794 20.302C18.564 19.6652 18.1973 18.9992 17.5604 18.8147C16.9235 18.6301 16.2576 18.9968 16.073 19.6337C15.8885 20.2705 16.2551 20.9365 16.892 21.121Z" fill="#232F6A" stroke="white" stroke-width="0.2"/>
    <path d="M5.91859 18.1959C5.7121 18.826 6.05552 19.5042 6.68564 19.7107C7.31576 19.9172 7.99397 19.5738 8.20046 18.9437C8.40695 18.3135 8.06353 17.6353 7.43341 17.4288C6.80329 17.2224 6.12508 17.5658 5.91859 18.1959Z" fill="#232F6A" stroke="white" stroke-width="0.2"/>
    <path d="M5.81876 2.86006C5.16892 2.72818 4.5352 3.14807 4.40332 3.79792C4.27144 4.44776 4.69133 5.08147 5.34118 5.21336C5.99102 5.34524 6.62473 4.92535 6.75661 4.2755C6.8885 3.62566 6.46861 2.99195 5.81876 2.86006Z" fill="#232F6A" stroke="white" stroke-width="0.2"/>
    <path d="M10.6215 14.7274C11.2846 14.7274 11.8222 14.1899 11.8222 13.5268C11.8222 12.8637 11.2846 12.3262 10.6215 12.3262C9.95844 12.3262 9.4209 12.8637 9.4209 13.5268C9.4209 14.1899 9.95844 14.7274 10.6215 14.7274Z" fill="#232F6A" stroke="white" stroke-width="0.2"/>
    <path d="M17.384 4.43735C17.9354 4.06905 18.0839 3.32348 17.7155 2.77208C17.3472 2.22068 16.6017 2.07225 16.0503 2.44055C15.4989 2.80885 15.3504 3.55442 15.7187 4.10582C16.0871 4.65722 16.8326 4.80565 17.384 4.43735Z" fill="#232F6A" stroke="white" stroke-width="0.2"/>
    <path d="M21.4185 7.72186C22.0781 7.65446 22.5583 7.06506 22.4909 6.4054C22.4234 5.74575 21.834 5.26563 21.1744 5.33303C20.5147 5.40044 20.0346 5.98983 20.102 6.64949C20.1694 7.30915 20.7588 7.78926 21.4185 7.72186Z" fill="#232F6A" stroke="white" stroke-width="0.2"/>
    <path d="M19.2177 18.1923C19.8546 18.3769 20.5205 18.0102 20.7051 17.3733C20.8897 16.7364 20.523 16.0705 19.8861 15.886C19.2492 15.7014 18.5833 16.0681 18.3987 16.7049C18.2141 17.3418 18.5808 18.0077 19.2177 18.1923Z" fill="#232F6A" stroke="white" stroke-width="0.2"/>
    <path d="M3.61283 5.6794C2.96299 5.54752 2.32927 5.96741 2.19739 6.61725C2.06551 7.2671 2.4854 7.90081 3.13524 8.03269C3.78509 8.16457 4.4188 7.74468 4.55068 7.09484C4.68256 6.44499 4.26267 5.81128 3.61283 5.6794Z" fill="#232F6A" stroke="white" stroke-width="0.2"/>
    <path d="M2.20063 14.7274C2.86372 14.7274 3.40126 14.1899 3.40126 13.5268C3.40126 12.8637 2.86372 12.3262 2.20063 12.3262C1.53754 12.3262 1 12.8637 1 13.5268C1 14.1899 1.53754 14.7274 2.20063 14.7274Z" fill="#232F6A" stroke="white" stroke-width="0.2"/>
    <path d="M11.6151 8.28989C12.1665 7.92159 12.3149 7.17602 11.9466 6.62462C11.5783 6.07322 10.8328 5.92479 10.2814 6.29309C9.72996 6.66139 9.58153 7.40696 9.94983 7.95836C10.3181 8.50976 11.0637 8.65819 11.6151 8.28989Z" fill="#232F6A" stroke="white" stroke-width="0.2"/>
    <path d="M12.5543 16.2626C13.1911 16.4472 13.8571 16.0805 14.0416 15.4436C14.2262 14.8068 13.8595 14.1408 13.2226 13.9563C12.5858 13.7717 11.9198 14.1384 11.7353 14.7753C11.5507 15.4121 11.9174 16.0781 12.5543 16.2626Z" fill="#232F6A" stroke="white" stroke-width="0.2"/>
</svg>
