<svg width="24" height="24" viewBox="0 0 24 24" fill="none" xmlns="http://www.w3.org/2000/svg">
<g clip-path="url(#clip0_13004_81008)">
<path fill-rule="evenodd" clip-rule="evenodd" d="M9.6 14.4H14.4V9.6H9.6V14.4ZM14.4 7.2H16.8V9.6V14.4V16.8H14.4H9.6H7.2V14.4V9.6V7.2H9.6H14.4ZM0 18V20.4H3.6V24H6V20.4V18H3.6H0ZM3.6 3.6H0V6H3.6H6V3.6V0H3.6V3.6ZM20.4 3.6V0H18V3.6V6H20.4H24V3.6H20.4ZM20.4 18H24V20.4H20.4V24H18V20.4V18H20.4Z" fill="white"/>
</g>
<defs>
<clipPath id="clip0_13004_81008">
<rect width="24" height="24" fill="white"/>
</clipPath>
</defs>
</svg>
