<svg width="32" height="32" viewBox="0 0 32 32" fill="none" xmlns="http://www.w3.org/2000/svg">
<rect x="0.5" y="0.5" width="31" height="31" rx="1.5" fill="#232F6A" stroke="white"/>
<g clip-path="url(#clip0_12756_12206)">
<path d="M17.2659 19.8576V22.5413C17.2659 22.8467 17.1067 22.9995 16.7882 22.9995H14.5505C14.2153 22.9995 14.0476 22.8395 14.0476 22.5195V19.8795C14.0476 19.5886 14.2153 19.4431 14.5505 19.4431H16.7882C17.1067 19.4431 17.2659 19.5813 17.2659 19.8576ZM17.2408 16.9995V17.5667C17.2408 17.8722 17.0648 18.0249 16.7128 18.0249H14.7265C14.3745 18.0249 14.1985 17.8722 14.1985 17.5667V16.9776C14.1985 16.4976 14.2907 16.1122 14.4751 15.8213C14.6595 15.5158 14.9696 15.2104 15.4054 14.9049L16.8134 13.9013C17.3497 13.5376 17.6179 13.1376 17.6179 12.7013V12.5704C17.6179 12.1195 17.4922 11.7995 17.2408 11.6104C17.0061 11.4067 16.6122 11.3049 16.0591 11.3049H15.6065C15.0869 11.3049 14.7097 11.3995 14.4751 11.5886C14.2572 11.7776 14.1482 12.1049 14.1482 12.5704V13.0286C14.1482 13.3486 13.9722 13.5086 13.6202 13.5086H11.4831C11.1311 13.5086 10.9551 13.3486 10.9551 13.0286V12.5267C10.9551 11.3922 11.3155 10.5195 12.0362 9.90855C12.757 9.29764 13.7795 8.99219 15.1036 8.99219H16.5871C17.9113 8.99219 18.9337 9.29764 19.6545 9.90855C20.3753 10.5195 20.7357 11.3922 20.7357 12.5267V12.8322C20.7357 13.5449 20.3585 14.1849 19.6042 14.7522L17.8945 15.9522C17.4587 16.3013 17.2408 16.6504 17.2408 16.9995Z" fill="white"/>
</g>
<defs>
<clipPath id="clip0_12756_12206">
<rect width="11" height="15" fill="white" transform="translate(10 8)"/>
</clipPath>
</defs>
</svg>
