<svg xmlns="http://www.w3.org/2000/svg" width="14" height="14" viewBox="0 0 14 14" fill="none">
    <path d="M9.26319 4.32225C6.38324 4.32198 3.53828 4.32275 0.693329 4.32043C0.18074 4.32001 -0.0247193 4.10081 0.00234869 3.60812C0.0204979 3.27778 0.188857 3.09799 0.4782 3.05091C0.592438 3.03232 0.710945 3.0436 0.827507 3.0436C4.31374 3.04353 7.79998 3.04375 11.2862 3.04393C11.4129 3.04394 11.5396 3.04393 11.6904 3.04393C11.6739 2.85629 11.5545 2.78167 11.4716 2.68939C11.0147 2.18052 10.545 1.68498 10.0945 1.16946C9.73742 0.760797 9.82497 0.235644 10.2601 0.0476471C10.511 -0.0607818 10.7254 0.024809 10.9 0.213817C11.9015 1.29825 12.8955 2.39089 13.896 3.47646C14.0332 3.62537 14.0359 3.73824 13.8967 3.88916C12.9039 4.9651 11.9195 6.05035 10.9245 7.12378C10.632 7.43934 10.3094 7.44297 10.0551 7.17309C9.80134 6.90368 9.80545 6.51697 10.0924 6.19081C10.5122 5.71363 10.9476 5.25272 11.3749 4.78341C11.4713 4.67758 11.5621 4.56571 11.6555 4.45662C11.6487 4.41182 11.6419 4.36703 11.6351 4.32224C10.8561 4.32224 10.0772 4.32224 9.26319 4.32225Z" fill="white"/>
    <path d="M6.76085 10.1081C8.91952 10.1081 11.0432 10.1079 13.1668 10.1084C13.2834 10.1084 13.4017 10.1018 13.5162 10.1183C13.8161 10.1616 14.0048 10.3924 13.9999 10.6953C13.9948 11.0058 13.8191 11.1824 13.5244 11.2442C13.4011 11.27 13.2688 11.257 13.1405 11.257C9.73337 11.2577 6.32622 11.2578 2.91906 11.2581C2.71193 11.2581 2.50479 11.2581 2.18389 11.2581C2.75052 11.8054 3.23947 12.2757 3.72563 12.7487C3.84927 12.869 3.98715 12.9799 4.05937 13.1421C4.18086 13.415 4.1384 13.6644 3.90674 13.8564C3.68539 14.0399 3.43803 14.0448 3.19795 13.8781C3.12223 13.8256 3.05237 13.7633 2.98657 13.6988C2.03694 12.7687 1.09129 11.8346 0.137036 10.9091C-0.0286214 10.7484 -0.0577133 10.6416 0.125501 10.4646C1.09818 9.52481 2.05825 8.57246 3.0237 7.62546C3.20352 7.44907 3.40462 7.31527 3.67737 7.38687C4.13673 7.50747 4.27948 8.03401 3.93337 8.40079C3.55313 8.80374 3.1506 9.18687 2.74922 9.57001C2.59142 9.72065 2.41045 9.84791 2.24004 9.98582C2.26197 10.0266 2.2839 10.0674 2.30583 10.1081C3.77916 10.1081 5.25249 10.1081 6.76085 10.1081Z" fill="white"/>
</svg>
