<svg width="30" height="30" viewBox="0 0 30 30" fill="none" xmlns="http://www.w3.org/2000/svg">
<g clip-path="url(#clip0_11396_138554)">
<path d="M16.5615 16.695C16.9179 16.3032 17.1149 15.7922 17.1136 15.2626C17.1136 14.0881 16.1669 13.1376 15 13.1376C13.8331 13.1376 12.8864 14.0881 12.8864 15.2626C12.8864 15.8147 13.0951 16.3156 13.4385 16.695C13.027 16.95 12.6834 17.3008 12.4369 17.7174C12.1904 18.1341 12.0485 18.6041 12.0231 19.0876C12.0221 19.1081 12.0252 19.1287 12.0324 19.148C12.0396 19.1673 12.0506 19.1849 12.0648 19.1998C12.079 19.2147 12.0961 19.2266 12.115 19.2347C12.1339 19.2428 12.1543 19.247 12.1749 19.2469H13.0078C13.0875 19.2469 13.152 19.1843 13.1577 19.1046C13.2298 18.1446 14.0305 17.3876 15.0019 17.3876C15.9733 17.3876 16.774 18.1465 16.8461 19.1046C16.8518 19.1843 16.9163 19.2469 16.996 19.2469H17.827C17.8476 19.247 17.868 19.2428 17.8869 19.2347C17.9058 19.2266 17.9229 19.2147 17.9371 19.1998C17.9513 19.1849 17.9623 19.1673 17.9695 19.148C17.9767 19.1287 17.9798 19.1081 17.9788 19.0876C17.9257 18.0763 17.3717 17.1959 16.5615 16.695ZM15 16.2492C14.4593 16.2492 14.0191 15.8071 14.0191 15.2626C14.0191 14.718 14.4593 14.2759 15 14.2759C15.5407 14.2759 15.9809 14.718 15.9809 15.2626C15.9809 15.8071 15.5407 16.2492 15 16.2492ZM22.8929 9.53265H19.8571V8.47015C19.8571 8.38666 19.7888 8.31836 19.7054 8.31836H18.6429C18.5594 8.31836 18.4911 8.38666 18.4911 8.47015V9.53265H15.683V8.47015C15.683 8.38666 15.6147 8.31836 15.5312 8.31836H14.4688C14.3853 8.31836 14.317 8.38666 14.317 8.47015V9.53265H11.5089V8.47015C11.5089 8.38666 11.4406 8.31836 11.3571 8.31836H10.2946C10.2112 8.31836 10.1429 8.38666 10.1429 8.47015V9.53265H7.10714C6.77132 9.53265 6.5 9.80396 6.5 10.1398V21.0684C6.5 21.4042 6.77132 21.6755 7.10714 21.6755H22.8929C23.2287 21.6755 23.5 21.4042 23.5 21.0684V10.1398C23.5 9.80396 23.2287 9.53265 22.8929 9.53265ZM22.1339 20.3094H7.86607V10.8987H10.1429V11.9612C10.1429 12.0447 10.2112 12.113 10.2946 12.113H11.3571C11.4406 12.113 11.5089 12.0447 11.5089 11.9612V10.8987H14.317V11.9612C14.317 12.0447 14.3853 12.113 14.4688 12.113H15.5312C15.6147 12.113 15.683 12.0447 15.683 11.9612V10.8987H18.4911V11.9612C18.4911 12.0447 18.5594 12.113 18.6429 12.113H19.7054C19.7888 12.113 19.8571 12.0447 19.8571 11.9612V10.8987H22.1339V20.3094Z" fill="#414141"/>
</g>
<defs>
<clipPath id="clip0_11396_138554">
<rect width="17" height="17" fill="white" transform="translate(6.5 6.5)"/>
</clipPath>
</defs>
</svg>
