<svg width="30" height="30" viewBox="0 0 30 30" fill="none" xmlns="http://www.w3.org/2000/svg">
<g clip-path="url(#clip0_11396_138575)">
<path d="M12.4958 18.6403H17.5048C17.5882 18.6403 17.6566 18.572 17.6566 18.4885V16.8947C17.6566 16.8112 17.5882 16.7429 17.5048 16.7429H16.7458C16.6624 16.7429 16.5941 16.8112 16.5941 16.8947V17.5778H13.4066V16.8947C13.4066 16.8112 13.3382 16.7429 13.2548 16.7429H12.4958C12.4124 16.7429 12.3441 16.8112 12.3441 16.8947V18.4885C12.3441 18.572 12.4124 18.6403 12.4958 18.6403ZM18.9467 16.3066C18.9467 16.5078 19.0267 16.7009 19.169 16.8432C19.3113 16.9855 19.5044 17.0655 19.7057 17.0655C19.9069 17.0655 20.1 16.9855 20.2423 16.8432C20.3846 16.7009 20.4646 16.5078 20.4646 16.3066C20.4646 16.1053 20.3846 15.9122 20.2423 15.7699C20.1 15.6276 19.9069 15.5476 19.7057 15.5476C19.5044 15.5476 19.3113 15.6276 19.169 15.7699C19.0267 15.9122 18.9467 16.1053 18.9467 16.3066ZM23.4813 13.1266L23.0317 12.3412C23.0114 12.3065 22.9784 12.2813 22.9396 12.271C22.9009 12.2607 22.8596 12.2661 22.8249 12.2861L21.8629 12.8477L20.3773 8.74573C20.2989 8.50097 20.1447 8.28746 19.937 8.13604C19.7293 7.98462 19.4789 7.90313 19.2218 7.90332H11.0007C10.3424 7.90332 9.758 8.32832 9.55499 8.95633L8.13959 12.8496L7.17575 12.288C7.141 12.268 7.09974 12.2626 7.061 12.2729C7.02225 12.2832 6.98915 12.3084 6.96894 12.3431L6.51927 13.1266C6.47753 13.1987 6.5022 13.2898 6.5743 13.3316L7.72028 13.9994L7.44517 14.7583C7.4224 14.8191 7.41101 14.8836 7.41101 14.9481V21.5545C7.41101 21.8524 7.6349 22.0934 7.91001 22.0934H9.1926C9.42597 22.0934 9.62898 21.9169 9.67831 21.6703L9.82441 20.955H20.1762L20.3223 21.6703C20.3735 21.9169 20.5746 22.0934 20.808 22.0934H22.0906C22.3657 22.0934 22.5896 21.8524 22.5896 21.5545V14.9481C22.5896 14.8836 22.5782 14.8191 22.5554 14.7583L22.2803 13.9994L23.4244 13.3316C23.4589 13.3117 23.4841 13.2791 23.4948 13.2407C23.5054 13.2024 23.5006 13.1614 23.4813 13.1266ZM21.2235 15.0923V19.5889H8.77709V15.0923L9.07307 14.2764H20.9275L21.2235 15.0923ZM10.8395 9.42118L10.849 9.39651L10.8566 9.37185C10.8774 9.30924 10.9343 9.26749 11.0007 9.26749H19.1137L20.5443 13.2139H9.46012L10.8395 9.42118ZM9.53601 16.3066C9.53601 16.5078 9.61597 16.7009 9.7583 16.8432C9.90063 16.9855 10.0937 17.0655 10.2949 17.0655C10.4962 17.0655 10.6893 16.9855 10.8316 16.8432C10.9739 16.7009 11.0539 16.5078 11.0539 16.3066C11.0539 16.1053 10.9739 15.9122 10.8316 15.7699C10.6893 15.6276 10.4962 15.5476 10.2949 15.5476C10.0937 15.5476 9.90063 15.6276 9.7583 15.7699C9.61597 15.9122 9.53601 16.1053 9.53601 16.3066Z" fill="#414141"/>
</g>
<defs>
<clipPath id="clip0_11396_138575">
<rect width="17" height="17" fill="white" transform="translate(6.5 6.5)"/>
</clipPath>
</defs>
</svg>
