<svg width="30" height="30" viewBox="0 0 30 30" fill="none" xmlns="http://www.w3.org/2000/svg">
<g clip-path="url(#clip0_11396_138561)">
<path d="M18.3397 11.2023V10.2916C18.3397 10.2081 18.2714 10.1398 18.1879 10.1398H10.9022C10.8187 10.1398 10.7504 10.2081 10.7504 10.2916V11.2023C10.7504 11.2858 10.8187 11.3541 10.9022 11.3541H18.1879C18.2714 11.3541 18.3397 11.2858 18.3397 11.2023ZM10.9022 12.8719C10.8187 12.8719 10.7504 12.9402 10.7504 13.0237V13.9344C10.7504 14.0179 10.8187 14.0862 10.9022 14.0862H14.3932C14.4767 14.0862 14.545 14.0179 14.545 13.9344V13.0237C14.545 12.9402 14.4767 12.8719 14.3932 12.8719H10.9022ZM18.0361 15.0728C15.7726 15.0728 13.9379 16.9075 13.9379 19.171C13.9379 21.4345 15.7726 23.2693 18.0361 23.2693C20.2996 23.2693 22.1343 21.4345 22.1343 19.171C22.1343 16.9075 20.2996 15.0728 18.0361 15.0728ZM20.0757 21.2107C19.5312 21.7552 18.8064 22.055 18.0361 22.055C17.2658 22.055 16.541 21.7552 15.9965 21.2107C15.4519 20.6661 15.1522 19.9414 15.1522 19.171C15.1522 18.4007 15.4519 17.6759 15.9965 17.1314C16.541 16.5869 17.2658 16.2871 18.0361 16.2871C18.8064 16.2871 19.5312 16.5869 20.0757 17.1314C20.6202 17.6759 20.92 18.4007 20.92 19.171C20.92 19.9414 20.6202 20.6661 20.0757 21.2107ZM17.429 20.6889C17.429 20.8499 17.4929 21.0043 17.6068 21.1182C17.7206 21.2321 17.8751 21.296 18.0361 21.296C18.1971 21.296 18.3516 21.2321 18.4654 21.1182C18.5793 21.0043 18.6432 20.8499 18.6432 20.6889C18.6432 20.5279 18.5793 20.3734 18.4654 20.2596C18.3516 20.1457 18.1971 20.0818 18.0361 20.0818C17.8751 20.0818 17.7206 20.1457 17.6068 20.2596C17.4929 20.3734 17.429 20.5279 17.429 20.6889ZM17.6566 19.4746H18.4156C18.499 19.4746 18.5673 19.4063 18.5673 19.3228V17.1978C18.5673 17.1143 18.499 17.046 18.4156 17.046H17.6566C17.5732 17.046 17.5048 17.1143 17.5048 17.1978V19.3228C17.5048 19.4063 17.5732 19.4746 17.6566 19.4746ZM13.6343 21.4478H9.23253V8.09068H19.8575V14.6175C19.8575 14.7009 19.9258 14.7693 20.0093 14.7693H21.0718C21.1553 14.7693 21.2236 14.7009 21.2236 14.6175V7.33175C21.2236 6.99593 20.9523 6.72461 20.6165 6.72461H8.4736C8.13777 6.72461 7.86646 6.99593 7.86646 7.33175V22.2068C7.86646 22.5426 8.13777 22.8139 8.4736 22.8139H13.6343C13.7178 22.8139 13.7861 22.7456 13.7861 22.6621V21.5996C13.7861 21.5161 13.7178 21.4478 13.6343 21.4478Z" fill="#414141"/>
</g>
<defs>
<clipPath id="clip0_11396_138561">
<rect width="17" height="17" fill="white" transform="translate(6.5 6.5)"/>
</clipPath>
</defs>
</svg>
