<svg width="30" height="30" viewBox="0 0 30 30" fill="none" xmlns="http://www.w3.org/2000/svg">
<path d="M21.9824 8.77916H18.7949V7.56487C18.7949 7.48139 18.7266 7.41309 18.6432 7.41309H17.5807C17.4972 7.41309 17.4289 7.48139 17.4289 7.56487V8.77916H12.5717V7.56487C12.5717 7.48139 12.5034 7.41309 12.4199 7.41309H11.3574C11.274 7.41309 11.2057 7.48139 11.2057 7.56487V8.77916H8.01815C7.68233 8.77916 7.41101 9.05047 7.41101 9.3863V21.9845C7.41101 22.3203 7.68233 22.5917 8.01815 22.5917H21.9824C22.3183 22.5917 22.5896 22.3203 22.5896 21.9845V9.3863C22.5896 9.05047 22.3183 8.77916 21.9824 8.77916ZM21.2235 21.2256H8.77708V10.1452H11.2057V11.0559C11.2057 11.1394 11.274 11.2077 11.3574 11.2077H12.4199C12.5034 11.2077 12.5717 11.1394 12.5717 11.0559V10.1452H17.4289V11.0559C17.4289 11.1394 17.4972 11.2077 17.5807 11.2077H18.6432C18.7266 11.2077 18.7949 11.1394 18.7949 11.0559V10.1452H21.2235V21.2256ZM18.3396 13.2568H17.2923C17.1955 13.2568 17.1025 13.3043 17.0456 13.3821L14.1826 17.3247L12.955 15.6361C12.8981 15.5583 12.807 15.5109 12.7083 15.5109H11.661C11.5377 15.5109 11.4656 15.6513 11.5377 15.7518L13.9359 19.0532C13.9643 19.092 14.0014 19.1235 14.0442 19.1453C14.0871 19.1671 14.1345 19.1784 14.1826 19.1784C14.2306 19.1784 14.278 19.1671 14.3209 19.1453C14.3637 19.1235 14.4008 19.092 14.4292 19.0532L18.4629 13.4997C18.535 13.3972 18.4629 13.2568 18.3396 13.2568Z" fill="#414141"/>
</svg>
