<svg width="30" height="30" viewBox="0 0 30 30" fill="none" xmlns="http://www.w3.org/2000/svg">
<path d="M19.326 8.33803C18.1534 8.33803 17.201 9.29049 17.201 10.463C17.201 11.4136 17.829 12.2199 18.6904 12.4913V14.3108L11.3572 16.7128V11.3187C12.1958 11.0341 12.7992 10.2391 12.7992 9.30566C12.7992 8.13312 11.8467 7.18066 10.6742 7.18066C9.50165 7.18066 8.54919 8.13312 8.54919 9.30566C8.54919 10.2391 9.15254 11.0322 9.99116 11.3187V18.6784C9.15254 18.963 8.54919 19.758 8.54919 20.6915C8.54919 21.864 9.50165 22.8165 10.6742 22.8165C11.8467 22.8165 12.7992 21.864 12.7992 20.6915C12.7992 19.758 12.1958 18.9649 11.3572 18.6784V18.151L19.3924 15.5194C19.5853 15.4567 19.7534 15.3343 19.8724 15.17C19.9914 15.0056 20.0552 14.8078 20.0546 14.6049V12.459C20.8685 12.1592 21.451 11.3775 21.451 10.463C21.451 9.29049 20.4985 8.33803 19.326 8.33803ZM9.76348 9.30566C9.76834 9.06735 9.86643 8.84043 10.0367 8.67361C10.207 8.50679 10.4358 8.41335 10.6742 8.41335C10.9126 8.41335 11.1414 8.50679 11.3117 8.67361C11.482 8.84043 11.58 9.06735 11.5849 9.30566C11.58 9.54398 11.482 9.7709 11.3117 9.93772C11.1414 10.1045 10.9126 10.198 10.6742 10.198C10.4358 10.198 10.207 10.1045 10.0367 9.93772C9.86643 9.7709 9.76834 9.54398 9.76348 9.30566ZM11.5849 20.6896C11.58 20.9279 11.482 21.1548 11.3117 21.3216C11.1414 21.4885 10.9126 21.5819 10.6742 21.5819C10.4358 21.5819 10.207 21.4885 10.0367 21.3216C9.86643 21.1548 9.76834 20.9279 9.76348 20.6896C9.76834 20.4513 9.86643 20.2244 10.0367 20.0575C10.207 19.8907 10.4358 19.7973 10.6742 19.7973C10.9126 19.7973 11.1414 19.8907 11.3117 20.0575C11.482 20.2244 11.58 20.4513 11.5849 20.6896ZM19.326 11.3737C19.0877 11.3689 18.8607 11.2708 18.6939 11.1005C18.5271 10.9303 18.4337 10.7014 18.4337 10.463C18.4337 10.2247 18.5271 9.99579 18.6939 9.82553C18.8607 9.65527 19.0877 9.55718 19.326 9.55232C19.5643 9.55718 19.7912 9.65527 19.958 9.82553C20.1249 9.99579 20.2183 10.2247 20.2183 10.463C20.2183 10.7014 20.1249 10.9303 19.958 11.1005C19.7912 11.2708 19.5643 11.3689 19.326 11.3737Z" fill="#414141"/>
</svg>
