<svg width="30" height="30" viewBox="0 0 30 30" fill="none" xmlns="http://www.w3.org/2000/svg">
<g clip-path="url(#clip0_11396_138560)">
<path d="M15 6.5C10.306 6.5 6.5 10.306 6.5 15C6.5 19.694 10.306 23.5 15 23.5C19.694 23.5 23.5 19.694 23.5 15C23.5 10.306 19.694 6.5 15 6.5ZM15 22.058C11.1029 22.058 7.94196 18.8971 7.94196 15C7.94196 11.1029 11.1029 7.94196 15 7.94196C18.8971 7.94196 22.058 11.1029 22.058 15C22.058 18.8971 18.8971 22.058 15 22.058ZM15.905 14.5598L15.4231 14.4479V11.8998C16.1441 11.9984 16.59 12.45 16.6658 13.004C16.6753 13.0799 16.7398 13.1349 16.8157 13.1349H17.6676C17.7568 13.1349 17.827 13.0571 17.8194 12.968C17.7037 11.7859 16.7304 11.027 15.4307 10.8961V10.2757C15.4307 10.1922 15.3624 10.1239 15.2789 10.1239H14.7458C14.6623 10.1239 14.594 10.1922 14.594 10.2757V10.9018C13.2507 11.0327 12.1996 11.7746 12.1996 13.1596C12.1996 14.4422 13.1444 15.0607 14.1367 15.2979L14.6054 15.4174V18.1249C13.7667 18.0129 13.2962 17.5652 13.1994 16.9618C13.1881 16.8897 13.1235 16.8366 13.0496 16.8366H12.173C12.0838 16.8366 12.0136 16.9125 12.0212 17.0017C12.1066 18.0452 12.8978 19.0052 14.5864 19.1286V19.7243C14.5864 19.8078 14.6547 19.8761 14.7382 19.8761H15.277C15.3605 19.8761 15.4288 19.8078 15.4288 19.7224L15.425 19.121C16.9106 18.9901 17.9731 18.1951 17.9731 16.7683C17.9712 15.4516 17.1345 14.8634 15.905 14.5598ZM14.6035 14.2525C14.4972 14.2221 14.408 14.1936 14.3189 14.1576C13.6776 13.9261 13.3797 13.5523 13.3797 13.0704C13.3797 12.3817 13.9015 11.989 14.6035 11.8998V14.2525ZM15.4231 18.1306V15.5939C15.4819 15.6109 15.535 15.6242 15.5901 15.6356C16.4875 15.9088 16.7892 16.2883 16.7892 16.8708C16.7892 17.6126 16.2314 18.0585 15.4231 18.1306Z" fill="#414141"/>
</g>
<defs>
<clipPath id="clip0_11396_138560">
<rect width="17" height="17" fill="white" transform="translate(6.5 6.5)"/>
</clipPath>
</defs>
</svg>
