<svg width="30" height="30" viewBox="0 0 30 30" fill="none" xmlns="http://www.w3.org/2000/svg">
<path d="M14.4347 14.9324L11.5716 12.667C11.5147 12.6215 11.4331 12.6632 11.4331 12.7353V14.3556H8.77687V8.77748H12.6474V11.2061C12.6474 11.2478 12.6816 11.2819 12.7233 11.2819H13.8617C13.9034 11.2819 13.9376 11.2478 13.9376 11.2061V8.01855C13.9376 7.72447 13.7004 7.4873 13.4063 7.4873H8.01794C7.72386 7.4873 7.48669 7.72447 7.48669 8.01855V21.9828C7.48669 22.2769 7.72386 22.5141 8.01794 22.5141H13.4063C13.7004 22.5141 13.9376 22.2769 13.9376 21.9828V18.7953C13.9376 18.7536 13.9034 18.7194 13.8617 18.7194H12.7233C12.6816 18.7194 12.6474 18.7536 12.6474 18.7953V21.2239H8.77687V15.6458H11.4331V17.2661C11.4331 17.3382 11.5166 17.3799 11.5716 17.3344L14.4347 15.069C14.4453 15.061 14.4539 15.0507 14.4598 15.0389C14.4658 15.027 14.4688 15.014 14.4688 15.0007C14.4688 14.9874 14.4658 14.9744 14.4598 14.9625C14.4539 14.9507 14.4453 14.9403 14.4347 14.9324ZM21.9822 7.4873H16.5938C16.2998 7.4873 16.0626 7.72447 16.0626 8.01855V11.2061C16.0626 11.2478 16.0967 11.2819 16.1385 11.2819H17.2769C17.3186 11.2819 17.3528 11.2478 17.3528 11.2061V8.77748H21.2233V14.3556H18.5671V12.7353C18.5671 12.6632 18.4855 12.6215 18.4285 12.667L15.5636 14.9324C15.5534 14.9404 15.5452 14.9507 15.5395 14.9623C15.5339 14.974 15.5309 14.9868 15.5309 14.9998C15.5309 15.0127 15.5339 15.0255 15.5395 15.0372C15.5452 15.0488 15.5534 15.0591 15.5636 15.0671L18.4285 17.3344C18.4836 17.378 18.5671 17.3382 18.5671 17.2661V15.6458H21.2233V21.2239H17.3528V18.7953C17.3528 18.7536 17.3186 18.7194 17.2769 18.7194H16.1385C16.0967 18.7194 16.0626 18.7536 16.0626 18.7953V21.9828C16.0626 22.2769 16.2998 22.5141 16.5938 22.5141H21.9822C22.2763 22.5141 22.5135 22.2769 22.5135 21.9828V8.01855C22.5135 7.72447 22.2763 7.4873 21.9822 7.4873Z" fill="#414141"/>
</svg>
