<svg width="30" height="30" viewBox="0 0 30 30" fill="none" xmlns="http://www.w3.org/2000/svg">
<g clip-path="url(#clip0_11396_138569)">
<path d="M22.8929 13.7074H20.8438V11.5521C20.8438 11.2163 20.5724 10.9449 20.2366 10.9449H14.26L12.0345 8.81616C12.0062 8.78965 11.9689 8.77475 11.9301 8.77441H7.10714C6.77132 8.77441 6.5 9.04573 6.5 9.38156V20.6137C6.5 20.9495 6.77132 21.2208 7.10714 21.2208H20.3504C20.5971 21.2208 20.821 21.071 20.914 20.8414L23.4564 14.5423C23.4848 14.4702 23.5 14.3924 23.5 14.3146C23.5 13.9788 23.2287 13.7074 22.8929 13.7074ZM7.86607 10.1405H11.4425L13.7117 12.311H19.4777V13.7074H9.80134C9.55469 13.7074 9.3308 13.8573 9.23783 14.0869L7.86607 17.4869V10.1405ZM19.9198 19.8548H8.30246L10.2624 14.9976H21.8816L19.9198 19.8548Z" fill="#414141"/>
</g>
<defs>
<clipPath id="clip0_11396_138569">
<rect width="17" height="17" fill="white" transform="translate(6.5 6.5)"/>
</clipPath>
</defs>
</svg>
