<svg width="30" height="30" viewBox="0 0 30 30" fill="none" xmlns="http://www.w3.org/2000/svg">
<path d="M21.9824 11.0749H17.1253V8.93094C17.1253 8.59512 16.854 8.3238 16.5182 8.3238H8.77708V7.56487C8.77708 7.48139 8.70878 7.41309 8.6253 7.41309H7.5628C7.47931 7.41309 7.41101 7.48139 7.41101 7.56487V22.4399C7.41101 22.5234 7.47931 22.5917 7.5628 22.5917H8.6253C8.70878 22.5917 8.77708 22.5234 8.77708 22.4399V17.4309H13.4824V19.5749C13.4824 19.9107 13.7538 20.1821 14.0896 20.1821H21.9824C22.3183 20.1821 22.5896 19.9107 22.5896 19.5749V11.6821C22.5896 11.3462 22.3183 11.0749 21.9824 11.0749ZM8.77708 16.0649V9.68987H15.7592V16.0649H8.77708ZM21.2235 18.816H14.8485V17.4309H16.9735C17.057 17.4309 17.1253 17.3626 17.1253 17.2792V12.441H21.2235V18.816Z" fill="#414141"/>
</svg>
