<svg width="30" height="30" viewBox="0 0 30 30" fill="none" xmlns="http://www.w3.org/2000/svg">
<g clip-path="url(#clip0_11396_138567)">
<path d="M21.4964 20.4814C21.5002 20.4757 21.5059 20.47 21.5097 20.4643C22.7525 18.9863 23.5 17.0814 23.5 15C23.5 12.9186 22.7525 11.0137 21.5116 9.53571C21.5078 9.53002 21.5021 9.52623 21.4983 9.52054C21.4775 9.49587 21.4585 9.4731 21.4376 9.45033C21.43 9.44085 21.4224 9.43326 21.4148 9.42377L21.3371 9.3346L21.3352 9.3327C21.3067 9.30045 21.2763 9.26819 21.2479 9.23594L21.246 9.23404C21.1853 9.16953 21.1246 9.10502 21.0619 9.04241L21.06 9.04051L20.969 8.94944L20.9633 8.94375C20.9348 8.91529 20.9064 8.88873 20.8779 8.86217C20.8684 8.85268 20.8589 8.84319 20.8475 8.83371C20.8286 8.81473 20.8096 8.79766 20.7906 8.78058C20.7849 8.77489 20.7773 8.7692 20.7717 8.76161C19.2576 7.35759 17.2294 6.5 15 6.5C12.7706 6.5 10.7424 7.35759 9.22645 8.76161C9.22076 8.7673 9.21317 8.77299 9.20748 8.78058C9.1885 8.79766 9.16953 8.81663 9.15056 8.8356C9.14107 8.84509 9.13158 8.85458 9.1202 8.86406C9.09174 8.89063 9.06328 8.91908 9.03482 8.94565L9.02913 8.95134L8.93806 9.04241L8.93616 9.04431C8.87355 9.10692 8.81283 9.17143 8.75212 9.23594L8.75022 9.23783C8.71987 9.27009 8.69141 9.30234 8.66295 9.3346L8.66105 9.3365C8.63449 9.36496 8.60792 9.39531 8.58326 9.42567C8.57567 9.43516 8.56808 9.44275 8.56049 9.45223C8.53962 9.475 8.52065 9.49967 8.49978 9.52243C8.49598 9.52813 8.49029 9.53192 8.4865 9.53761C7.24754 11.0137 6.5 12.9186 6.5 15C6.5 17.0814 7.24754 18.9863 8.48839 20.4643C8.49219 20.47 8.49788 20.4757 8.50167 20.4814L8.56049 20.5516C8.56808 20.561 8.57567 20.5686 8.58326 20.5781L8.66105 20.6673C8.66105 20.6692 8.66295 20.6692 8.66295 20.6711C8.69141 20.7033 8.71987 20.7356 8.75022 20.766L8.75212 20.7679C8.81283 20.8324 8.87355 20.8969 8.93426 20.9595L8.93616 20.9614C8.96652 20.9917 8.99498 21.0221 9.02534 21.0506L9.03103 21.0563C9.09364 21.1189 9.15815 21.1796 9.22266 21.2384C10.7424 22.6424 12.7706 23.5 15 23.5C17.2294 23.5 19.2576 22.6424 20.7735 21.2384C20.8382 21.1791 20.9014 21.1184 20.9633 21.0563L20.969 21.0506C20.9993 21.0202 21.0297 20.9917 21.0581 20.9614L21.06 20.9595C21.1227 20.8969 21.1834 20.8324 21.2422 20.7679L21.2441 20.766C21.2725 20.7337 21.3029 20.7033 21.3314 20.6711C21.3314 20.6692 21.3333 20.6692 21.3333 20.6673C21.3598 20.6388 21.3864 20.6085 21.411 20.5781C21.4186 20.5686 21.4262 20.561 21.4338 20.5516C21.4553 20.5287 21.4761 20.5053 21.4964 20.4814ZM21.5742 17.7758C21.3124 18.3943 20.9671 18.9673 20.5459 19.4872C20.0715 19.0772 19.5528 18.7215 18.9996 18.4266C19.2196 17.5367 19.3562 16.5596 19.3923 15.5312H22.115C22.058 16.3073 21.8759 17.0605 21.5742 17.7758ZM22.115 14.4688H19.3923C19.3562 13.4404 19.2196 12.4633 18.9996 11.5734C19.5555 11.2775 20.0734 10.9208 20.5459 10.5128C21.4615 11.6398 22.0091 13.0206 22.115 14.4688ZM17.7758 8.42578C18.529 8.74453 19.214 9.18471 19.8173 9.73873C19.4668 10.0372 19.0895 10.3026 18.6903 10.5318C18.3924 9.67801 18.011 8.93616 17.5671 8.3423C17.6373 8.36886 17.7075 8.39732 17.7758 8.42578ZM16.0568 21.7184C15.8823 21.855 15.7077 21.9594 15.5312 22.0296V18.51C16.2841 18.5626 17.0244 18.7302 17.7265 19.0071C17.569 19.4739 17.3868 19.9046 17.1762 20.2935C16.8461 20.9083 16.459 21.3997 16.0568 21.7184ZM17.1762 9.70647C17.3849 10.0973 17.569 10.528 17.7265 10.9929C17.0244 11.2698 16.2841 11.4374 15.5312 11.49V7.97232C15.7058 8.04252 15.8823 8.14498 16.0568 8.28348C16.459 8.60033 16.8461 9.09174 17.1762 9.70647ZM15.5312 17.4456V15.5312H18.3298C18.2994 16.3699 18.1951 17.1838 18.0205 17.956L18.0148 17.9788C17.2186 17.6769 16.3813 17.4971 15.5312 17.4456ZM15.5312 14.4688V12.5544C16.4002 12.5012 17.235 12.3172 18.0148 12.0212L18.0205 12.044C18.1951 12.8162 18.2994 13.6282 18.3298 14.4688H15.5312ZM14.4688 15.5312V17.4456C13.5998 17.4988 12.765 17.6828 11.9852 17.9788L11.9795 17.956C11.8049 17.1838 11.7006 16.3718 11.6702 15.5312H14.4688ZM11.6702 14.4688C11.7006 13.6301 11.8049 12.8162 11.9795 12.044L11.9852 12.0212C12.765 12.3172 13.5979 12.5012 14.4688 12.5544V14.4688H11.6702ZM14.4688 18.51V22.0277C14.2942 21.9575 14.1177 21.855 13.9432 21.7165C13.541 21.3997 13.152 20.9064 12.8219 20.2916C12.6132 19.9008 12.4291 19.4701 12.2717 19.0052C12.9775 18.7282 13.7117 18.5632 14.4688 18.51ZM14.4688 11.49C13.7159 11.4374 12.9756 11.2698 12.2735 10.9929C12.431 10.5261 12.6132 10.0954 12.8238 9.70647C13.1539 9.09174 13.541 8.59844 13.9451 8.28158C14.1196 8.14498 14.2942 8.04062 14.4706 7.97042V11.49H14.4688ZM12.2242 8.42578C12.2944 8.39732 12.3627 8.36886 12.4329 8.3423C11.989 8.93616 11.6076 9.67801 11.3097 10.5318C10.9113 10.3041 10.5337 10.0385 10.1827 9.73873C10.786 9.18471 11.471 8.74453 12.2242 8.42578ZM8.42578 12.2242C8.68761 11.6057 9.03292 11.0327 9.45413 10.5128C9.92656 10.9208 10.4445 11.2775 11.0004 11.5734C10.7804 12.4633 10.6438 13.4404 10.6077 14.4688H7.88504C7.94196 13.6927 8.12411 12.9395 8.42578 12.2242ZM7.88504 15.5312H10.6077C10.6438 16.5596 10.7804 17.5367 11.0004 18.4266C10.4472 18.7215 9.9285 19.0772 9.45413 19.4872C8.53854 18.3602 7.99085 16.9794 7.88504 15.5312ZM12.2242 21.5742C11.471 21.2555 10.786 20.8153 10.1827 20.2613C10.5337 19.9615 10.9113 19.6978 11.3097 19.4682C11.6076 20.322 11.989 21.0638 12.4329 21.6577C12.3627 21.6311 12.2925 21.6027 12.2242 21.5742ZM17.7758 21.5742C17.7056 21.6027 17.6373 21.6311 17.5671 21.6577C18.011 21.0638 18.3924 20.322 18.6903 19.4682C19.0887 19.6959 19.4663 19.9615 19.8173 20.2613C19.2173 20.813 18.5267 21.2571 17.7758 21.5742Z" fill="#414141"/>
</g>
<defs>
<clipPath id="clip0_11396_138567">
<rect width="17" height="17" fill="white" transform="translate(6.5 6.5)"/>
</clipPath>
</defs>
</svg>
