<svg width="30" height="30" viewBox="0 0 30 30" fill="none" xmlns="http://www.w3.org/2000/svg">
<g clip-path="url(#clip0_11396_138570)">
<path d="M22.7984 10.6635C22.5441 10.0746 22.1774 9.54099 21.7188 9.09248C21.2599 8.64264 20.7188 8.28515 20.125 8.03947C19.5093 7.78369 18.8489 7.65278 18.1822 7.65431C17.2468 7.65431 16.3342 7.91045 15.5411 8.39427C15.3514 8.51 15.1711 8.63712 15.0004 8.77563C14.8296 8.63712 14.6494 8.51 14.4596 8.39427C13.6666 7.91045 12.754 7.65431 11.8186 7.65431C11.145 7.65431 10.4923 7.78333 9.87572 8.03947C9.27996 8.28612 8.74302 8.64092 8.28197 9.09248C7.82281 9.54048 7.45602 10.0742 7.20239 10.6635C6.93866 11.2763 6.80396 11.9271 6.80396 12.5968C6.80396 13.2286 6.93297 13.887 7.18911 14.5568C7.40351 15.1165 7.71087 15.6971 8.10362 16.2833C8.72594 17.2111 9.58163 18.1788 10.6441 19.1597C12.4048 20.7857 14.1485 21.9089 14.2225 21.9544L14.6721 22.2428C14.8714 22.3699 15.1275 22.3699 15.3267 22.2428L15.7764 21.9544C15.8504 21.907 17.5921 20.7857 19.3547 19.1597C20.4172 18.1788 21.2729 17.2111 21.8953 16.2833C22.288 15.6971 22.5973 15.1165 22.8098 14.5568C23.0659 13.887 23.1949 13.2286 23.1949 12.5968C23.1968 11.9271 23.0621 11.2763 22.7984 10.6635ZM15.0004 20.742C15.0004 20.742 8.24592 16.4142 8.24592 12.5968C8.24592 10.6635 9.84536 9.09627 11.8186 9.09627C13.2055 9.09627 14.4084 9.87038 15.0004 11.0012C15.5923 9.87038 16.7952 9.09627 18.1822 9.09627C20.1554 9.09627 21.7548 10.6635 21.7548 12.5968C21.7548 16.4142 15.0004 20.742 15.0004 20.742Z" fill="#414141"/>
</g>
<defs>
<clipPath id="clip0_11396_138570">
<rect width="17" height="17" fill="white" transform="translate(6.5 6.5)"/>
</clipPath>
</defs>
</svg>
