<svg width="30" height="30" viewBox="0 0 30 30" fill="none" xmlns="http://www.w3.org/2000/svg">
<path d="M21.0835 8.91576C19.4783 7.31063 16.8809 7.31063 15.2777 8.91576L13.4392 10.7543L14.4068 11.7219L16.2453 9.8834C17.2661 8.86264 18.9888 8.75449 20.1158 9.8834C21.2447 11.0123 21.1366 12.7332 20.1158 13.7539L18.2773 15.5924L19.2469 16.562L21.0854 14.7235C22.6867 13.1183 22.6867 10.5209 21.0835 8.91576ZM13.7579 20.1138C12.7371 21.1345 11.0144 21.2427 9.88737 20.1138C8.75846 18.9848 8.86661 17.264 9.88737 16.2432L11.7259 14.4047L10.7563 13.4352L8.91784 15.2737C7.31271 16.8788 7.31271 19.4763 8.91784 21.0795C10.523 22.6827 13.1204 22.6846 14.7236 21.0795L16.5621 19.241L15.5945 18.2734L13.7579 20.1138ZM10.2251 9.25728C10.1966 9.22903 10.158 9.21319 10.1179 9.21319C10.0777 9.21319 10.0392 9.22903 10.0107 9.25728L9.25936 10.0086C9.23111 10.0371 9.21526 10.0757 9.21526 10.1158C9.21526 10.156 9.23111 10.1945 9.25936 10.223L19.7781 20.7418C19.8369 20.8006 19.9337 20.8006 19.9925 20.7418L20.7438 19.9904C20.8027 19.9316 20.8027 19.8349 20.7438 19.776L10.2251 9.25728Z" fill="#414141"/>
</svg>
