<svg width="30" height="30" viewBox="0 0 30 30" fill="none" xmlns="http://www.w3.org/2000/svg">
<g clip-path="url(#clip0_11396_138555)">
<path d="M10.9022 10.0259C10.8187 10.0259 10.7504 10.0943 10.7504 10.1777V11.0884C10.7504 11.1719 10.8187 11.2402 10.9022 11.2402H18.1879C18.2714 11.2402 18.3397 11.1719 18.3397 11.0884V10.1777C18.3397 10.0943 18.2714 10.0259 18.1879 10.0259H10.9022ZM14.3933 12.7581H10.9022C10.8187 12.7581 10.7504 12.8264 10.7504 12.9099V13.8206C10.7504 13.9041 10.8187 13.9724 10.9022 13.9724H14.3933C14.4768 13.9724 14.5451 13.9041 14.5451 13.8206V12.9099C14.5451 12.8264 14.4768 12.7581 14.3933 12.7581ZM13.4826 21.4478H9.23259V8.09068H19.8576V14.1621C19.8576 14.2456 19.9259 14.3139 20.0094 14.3139H21.0719C21.1554 14.3139 21.2237 14.2456 21.2237 14.1621V7.33175C21.2237 6.99593 20.9523 6.72461 20.6165 6.72461H8.47366C8.13783 6.72461 7.86652 6.99593 7.86652 7.33175V22.2068C7.86652 22.5426 8.13783 22.8139 8.47366 22.8139H13.4826C13.5661 22.8139 13.6344 22.7456 13.6344 22.6621V21.5996C13.6344 21.5161 13.5661 21.4478 13.4826 21.4478ZM21.8308 19.7782H19.0987V19.0838C19.9771 18.8219 20.6165 18.0099 20.6165 17.046C20.6165 15.8716 19.666 14.921 18.4915 14.921C17.3171 14.921 16.3665 15.8716 16.3665 17.046C16.3665 18.008 17.0059 18.8219 17.8844 19.0838V19.7782H15.1522C14.9853 19.7782 14.8487 19.9148 14.8487 20.0818V22.9657C14.8487 23.1326 14.9853 23.2693 15.1522 23.2693H21.8308C21.9978 23.2693 22.1344 23.1326 22.1344 22.9657V20.0818C22.1344 19.9148 21.9978 19.7782 21.8308 19.7782ZM17.5429 17.046C17.5429 16.5224 17.9679 16.0974 18.4915 16.0974C19.0152 16.0974 19.4402 16.5224 19.4402 17.046C19.4402 17.5697 19.0152 17.9947 18.4915 17.9947C17.9679 17.9947 17.5429 17.5697 17.5429 17.046ZM20.958 22.0929H16.025V20.9545H20.958V22.0929Z" fill="#414141"/>
</g>
<defs>
<clipPath id="clip0_11396_138555">
<rect width="17" height="17" fill="white" transform="translate(6.5 6.5)"/>
</clipPath>
</defs>
</svg>
