<svg width="30" height="30" viewBox="0 0 30 30" fill="none" xmlns="http://www.w3.org/2000/svg">
<g clip-path="url(#clip0_11396_138563)">
<path d="M21.5005 10.7716C21.1433 9.9479 20.6283 9.20214 19.9846 8.57637C19.3387 7.94494 18.5773 7.44378 17.7419 7.10025C16.873 6.73976 15.9509 6.55762 15.0003 6.55762C14.0497 6.55762 13.1276 6.73976 12.2587 7.09835C11.4182 7.44556 10.6649 7.94266 10.016 8.57447C9.37269 9.2006 8.85775 9.94627 8.50007 10.7697C8.1301 11.6235 7.94226 12.5304 7.94226 13.4639C7.94226 14.8034 8.26291 16.1372 8.89282 17.4236C9.3994 18.4576 10.1071 19.4651 10.9988 20.4232C12.5224 22.0587 14.1199 23.0586 14.5734 23.3261C14.7021 23.4022 14.8489 23.4421 14.9984 23.4419C15.1464 23.4419 15.2925 23.4039 15.4234 23.3261C15.8769 23.0586 17.4744 22.0587 18.998 20.4232C19.8897 19.467 20.5974 18.4576 21.104 17.4236C21.7377 16.1391 22.0583 14.8072 22.0583 13.4658C22.0583 12.5323 21.8705 11.6254 21.5005 10.7716ZM15.0003 21.9866C13.75 21.1917 9.30833 18.044 9.30833 13.4658C9.30833 11.9878 9.8984 10.5989 10.9704 9.55159C12.0462 8.50237 13.4767 7.92369 15.0003 7.92369C16.5238 7.92369 17.9544 8.50237 19.0302 9.55349C20.1022 10.5989 20.6923 11.9878 20.6923 13.4658C20.6923 18.044 16.2506 21.1917 15.0003 21.9866ZM15.0003 10.2764C13.1561 10.2764 11.661 11.7715 11.661 13.6157C11.661 15.4598 13.1561 16.9549 15.0003 16.9549C16.8445 16.9549 18.3396 15.4598 18.3396 13.6157C18.3396 11.7715 16.8445 10.2764 15.0003 10.2764ZM16.503 15.1183C16.3059 15.316 16.0717 15.4727 15.8138 15.5795C15.5559 15.6863 15.2794 15.7411 15.0003 15.7407C14.433 15.7407 13.8999 15.5187 13.4976 15.1183C13.3 14.9212 13.1432 14.687 13.0364 14.4291C12.9296 14.1712 12.8749 13.8948 12.8753 13.6157C12.8753 13.0484 13.0973 12.5152 13.4976 12.113C13.8999 11.7107 14.433 11.4907 15.0003 11.4907C15.5676 11.4907 16.1007 11.7107 16.503 12.113C16.9052 12.5152 17.1253 13.0484 17.1253 13.6157C17.1253 14.183 16.9052 14.7161 16.503 15.1183Z" fill="#414141"/>
</g>
<defs>
<clipPath id="clip0_11396_138563">
<rect width="17" height="17" fill="white" transform="translate(6.5 6.5)"/>
</clipPath>
</defs>
</svg>
