<svg width="30" height="30" viewBox="0 0 30 30" fill="none" xmlns="http://www.w3.org/2000/svg">
<path d="M22.0204 10.4507V8.02023C22.0204 7.6844 21.7491 7.41309 21.4133 7.41309H8.58736C8.25154 7.41309 7.98022 7.6844 7.98022 8.02023V10.4507C7.66337 10.4697 7.41102 10.7334 7.41102 11.0559V13.5547C7.40981 14.014 7.50279 14.4686 7.68424 14.8904C7.76582 15.084 7.86638 15.2661 7.98022 15.4388V21.9845C7.98022 22.3184 8.25154 22.5917 8.58736 22.5917H21.4133C21.7491 22.5917 22.0204 22.3203 22.0204 21.9845V15.4388C22.136 15.2657 22.2351 15.0821 22.3164 14.8904C22.4966 14.4673 22.5896 14.0177 22.5896 13.5547V11.0559C22.5896 10.7334 22.3373 10.4697 22.0204 10.4507ZM9.34629 8.77916H20.6543V10.4488H9.34629V8.77916ZM16.2146 21.2275H13.786V19.2524H16.2146V21.2275ZM20.6543 21.2275H17.4289V18.6452C17.4289 18.3094 17.1576 18.0381 16.8217 18.0381H13.1789C12.8431 18.0381 12.5717 18.3094 12.5717 18.6452V21.2275H9.34629V16.6322C9.40131 16.6587 9.45823 16.6853 9.51705 16.7081C9.94015 16.8864 10.3898 16.9756 10.8528 16.9756C11.3157 16.9756 11.7635 16.8864 12.1885 16.7081C12.4503 16.598 12.697 16.4576 12.9227 16.2888C12.9265 16.2869 12.9303 16.2869 12.9341 16.2888C13.1606 16.4583 13.4072 16.5992 13.6684 16.7081C14.0915 16.8864 14.5412 16.9756 15.0041 16.9756C15.4671 16.9756 15.9148 16.8864 16.3398 16.7081C16.6016 16.598 16.8483 16.4576 17.0741 16.2888C17.0779 16.2869 17.0817 16.2869 17.0855 16.2888C17.3119 16.4583 17.5586 16.5992 17.8197 16.7081C18.2428 16.8864 18.6925 16.9756 19.1554 16.9756C19.6184 16.9756 20.0662 16.8864 20.4912 16.7081C20.5481 16.6834 20.605 16.6587 20.6619 16.6322V21.2275H20.6543ZM21.2235 13.5547C21.2235 14.6893 20.2938 15.6095 19.1498 15.6095C18.3756 15.6095 17.7002 15.1902 17.3435 14.5679C17.2885 14.473 17.1898 14.4142 17.0798 14.4142H17.0684C16.9602 14.4142 16.8597 14.473 16.8047 14.5679C16.6226 14.8853 16.3598 15.1489 16.0429 15.3319C15.726 15.5148 15.3662 15.6106 15.0003 15.6095C14.2281 15.6095 13.5545 15.1921 13.1979 14.5717C13.1409 14.4749 13.0385 14.4142 12.9265 14.4142C12.8146 14.4142 12.7102 14.4749 12.6552 14.5717C12.4721 14.8879 12.209 15.1503 11.8922 15.3325C11.5754 15.5147 11.2163 15.6103 10.8509 15.6095C9.70678 15.6095 8.77709 14.6893 8.77709 13.5547V11.8244C8.77709 11.8187 8.78089 11.8149 8.78658 11.8149H21.214C21.2197 11.8149 21.2235 11.8187 21.2235 11.8244V13.5547Z" fill="#414141"/>
</svg>
