<svg width="30" height="30" viewBox="0 0 30 30" fill="none" xmlns="http://www.w3.org/2000/svg">
<path d="M8.47326 14.852C8.49223 14.0229 8.66299 13.2184 8.98364 12.4614C9.31188 11.6835 9.78241 10.9872 10.382 10.3857C10.9815 9.78426 11.6797 9.31373 12.4576 8.98549C13.2621 8.64587 14.1159 8.47321 14.9982 8.47321C15.8804 8.47321 16.7342 8.64587 17.5368 8.98549C18.3124 9.31305 19.0168 9.78866 19.6105 10.3857C19.7984 10.5735 19.9748 10.7728 20.138 10.9815L18.9958 11.8732C18.9732 11.8907 18.956 11.9142 18.9462 11.941C18.9363 11.9679 18.9343 11.9969 18.9402 12.0249C18.9462 12.0528 18.9599 12.0785 18.9798 12.099C18.9997 12.1195 19.025 12.134 19.0527 12.1407L22.3863 12.9566C22.4812 12.9794 22.5742 12.9073 22.5742 12.8105L22.5893 9.37824C22.5893 9.25112 22.4432 9.17902 22.3446 9.25871L21.2745 10.0954C19.8154 8.22846 17.5463 7.03125 14.9963 7.03125C10.6495 7.03125 7.11288 10.5147 7.0313 14.8444C7.03079 14.8647 7.03434 14.8848 7.04174 14.9037C7.04914 14.9225 7.06024 14.9397 7.07439 14.9542C7.08854 14.9687 7.10544 14.9802 7.12411 14.9881C7.14277 14.996 7.16283 15 7.18308 15H8.32148C8.40496 15 8.47136 14.9336 8.47326 14.852ZM22.817 15H21.6786C21.5951 15 21.5287 15.0664 21.5268 15.148C21.5079 15.9771 21.3371 16.7816 21.0165 17.5386C20.6882 18.3165 20.2177 19.0147 19.6181 19.6143C19.013 20.2219 18.2935 20.7038 17.5012 21.032C16.709 21.3603 15.8595 21.5284 15.0019 21.5268C14.1446 21.5284 13.2955 21.3602 12.5036 21.032C11.7116 20.7037 10.9925 20.2219 10.3877 19.6143C10.1998 19.4265 10.0234 19.2272 9.8602 19.0185L11.0024 18.1268C11.025 18.1093 11.0422 18.0858 11.052 18.059C11.0619 18.0321 11.0639 18.0031 11.058 17.9751C11.052 17.9472 11.0383 17.9215 11.0184 17.901C10.9985 17.8805 10.9732 17.866 10.9455 17.8593L7.61188 17.0434C7.51701 17.0206 7.42404 17.0927 7.42404 17.1895L7.41076 20.6237C7.41076 20.7508 7.55686 20.8229 7.65552 20.7432L8.72561 19.9065C10.1846 21.7715 12.4538 22.9688 15.0038 22.9688C19.3525 22.9688 22.8872 19.4834 22.9688 15.1556C22.9693 15.1353 22.9658 15.1152 22.9584 15.0963C22.951 15.0775 22.9398 15.0603 22.9257 15.0458C22.9116 15.0313 22.8947 15.0198 22.876 15.0119C22.8573 15.004 22.8373 15 22.817 15Z" fill="#414141"/>
</svg>
