<svg xmlns="http://www.w3.org/2000/svg" width="16" height="8" viewBox="0 0 16 8" fill="none">
    <path d="M5.62066 0.0226769C4.95788 0.134494 4.38264 0.690382 4.22632 1.36128C4.13566 1.75424 4.18568 2.15039 4.38264 2.62002C4.39827 2.65836 3.53854 3.61359 2.57563 4.62633C2.54437 4.66147 2.49435 4.65189 2.30364 4.58799C1.81594 4.42187 1.39389 4.44742 0.953079 4.67425C-0.103613 5.20778 -0.325581 6.63903 0.509143 7.49203C0.846784 7.83707 1.25008 8 1.74403 7.99681C2.23799 7.99361 2.64128 7.81151 2.9758 7.44092C3.451 6.91698 3.57292 6.1694 3.29156 5.50809L3.21965 5.34515L4.15754 4.3388L5.09544 3.33245L5.28927 3.41552C5.46121 3.49219 5.51749 3.49858 5.90202 3.49858C6.28656 3.49858 6.34283 3.49219 6.51791 3.41552L6.71174 3.33245L7.65276 4.3388C8.1686 4.89469 8.5844 5.36432 8.57814 5.38029C8.4187 5.7413 8.39369 5.84673 8.37806 6.15023C8.35618 6.69654 8.50311 7.09908 8.87202 7.47925C9.20341 7.82109 9.61608 8 10.0913 8C10.5633 8 10.9698 7.82429 11.3105 7.47606C11.8107 6.9649 11.9514 6.19496 11.6669 5.53045C11.595 5.36752 11.595 5.35793 11.6482 5.29084C11.6763 5.2525 12.0984 4.79565 12.5861 4.27491L13.4708 3.33245L13.6646 3.41552C13.8397 3.489 13.8991 3.49858 14.2493 3.49858C14.7026 3.49858 14.8964 3.44746 15.1903 3.25258C15.6905 2.92352 16 2.34527 16 1.74146C16 1.52422 15.8968 1.12168 15.7905 0.917211C15.6749 0.699967 15.3403 0.358128 15.1215 0.230337C14.9058 0.105742 14.5213 0.000313282 14.2837 0.000313282C13.6303 0.00350809 13.0144 0.39327 12.7142 0.99708C12.5017 1.42198 12.5048 2.09927 12.7236 2.53376L12.783 2.65516L12.1953 3.28453C11.8733 3.62956 11.445 4.08322 11.248 4.29088L10.8885 4.66467L10.654 4.57841C10.4539 4.50493 10.3695 4.49215 10.0913 4.49215C9.81304 4.49215 9.7255 4.50493 9.52229 4.5816L9.27844 4.66786L8.90953 4.27491C7.85284 3.15035 7.41828 2.67433 7.42454 2.63919C7.42766 2.62002 7.4683 2.5114 7.5152 2.39639C7.58085 2.23665 7.60274 2.11844 7.61524 1.88522C7.634 1.50505 7.59023 1.28141 7.43079 0.961937C7.10565 0.297427 6.33971 -0.101919 5.62066 0.0226769Z" fill="#232F6A"/>
</svg>
