<svg width="30" height="30" viewBox="0 0 30 30" fill="none" xmlns="http://www.w3.org/2000/svg">
<path d="M14.0894 8.01855H8.32158C8.15461 8.01855 8.01801 8.15516 8.01801 8.32213V14.09C8.01801 14.2569 8.15461 14.3936 8.32158 14.3936H14.0894C14.2564 14.3936 14.393 14.2569 14.393 14.09V8.32213C14.393 8.15516 14.2564 8.01855 14.0894 8.01855ZM13.1028 13.1034H9.30818V9.30873H13.1028V13.1034ZM21.6787 8.01855H15.9109C15.7439 8.01855 15.6073 8.15516 15.6073 8.32213V14.09C15.6073 14.2569 15.7439 14.3936 15.9109 14.3936H21.6787C21.8457 14.3936 21.9823 14.2569 21.9823 14.09V8.32213C21.9823 8.15516 21.8457 8.01855 21.6787 8.01855ZM20.6921 13.1034H16.8975V9.30873H20.6921V13.1034ZM14.0894 15.6078H8.32158C8.15461 15.6078 8.01801 15.7444 8.01801 15.9114V21.6793C8.01801 21.8462 8.15461 21.9828 8.32158 21.9828H14.0894C14.2564 21.9828 14.393 21.8462 14.393 21.6793V15.9114C14.393 15.7444 14.2564 15.6078 14.0894 15.6078ZM13.1028 20.6927H9.30818V16.898H13.1028V20.6927ZM21.6787 15.6078H15.9109C15.7439 15.6078 15.6073 15.7444 15.6073 15.9114V21.6793C15.6073 21.8462 15.7439 21.9828 15.9109 21.9828H21.6787C21.8457 21.9828 21.9823 21.8462 21.9823 21.6793V15.9114C21.9823 15.7444 21.8457 15.6078 21.6787 15.6078ZM20.6921 20.6927H16.8975V16.898H20.6921V20.6927Z" fill="#414141"/>
</svg>
