<svg width="30" height="30" viewBox="0 0 30 30" fill="none" xmlns="http://www.w3.org/2000/svg">
<path d="M21.5737 19.7713C21.2158 18.9235 20.6964 18.1535 20.0444 17.504C19.3945 16.8527 18.6245 16.3334 17.7771 15.9748C17.7695 15.971 17.762 15.9691 17.7544 15.9653C18.9364 15.1115 19.7048 13.7207 19.7048 12.1516C19.7048 9.55232 17.5988 7.44629 14.9995 7.44629C12.4001 7.44629 10.2941 9.55232 10.2941 12.1516C10.2941 13.7207 11.0625 15.1115 12.2445 15.9672C12.237 15.971 12.2294 15.9729 12.2218 15.9766C11.3718 16.3352 10.6091 16.8494 9.95448 17.5059C9.30314 18.1558 8.78384 18.9258 8.42524 19.7732C8.07295 20.6028 7.88295 21.4922 7.86553 22.3934C7.86502 22.4136 7.86857 22.4338 7.87597 22.4526C7.88337 22.4715 7.89447 22.4887 7.90862 22.5032C7.92276 22.5177 7.93967 22.5292 7.95834 22.5371C7.977 22.5449 7.99706 22.549 8.01731 22.549H9.1557C9.23919 22.549 9.30559 22.4826 9.30749 22.401C9.34544 20.9362 9.93361 19.5645 10.9733 18.5248C12.0491 17.449 13.4778 16.857 14.9995 16.857C16.5211 16.857 17.9498 17.449 19.0256 18.5248C20.0653 19.5645 20.6535 20.9362 20.6914 22.401C20.6933 22.4845 20.7597 22.549 20.8432 22.549H21.9816C22.0019 22.549 22.0219 22.5449 22.0406 22.5371C22.0592 22.5292 22.0761 22.5177 22.0903 22.5032C22.1044 22.4887 22.1155 22.4715 22.1229 22.4526C22.1303 22.4338 22.1339 22.4136 22.1334 22.3934C22.1144 21.4865 21.9266 20.6042 21.5737 19.7713ZM14.9995 15.415C14.1286 15.415 13.3089 15.0754 12.6923 14.4588C12.0757 13.8422 11.7361 13.0225 11.7361 12.1516C11.7361 11.2808 12.0757 10.4611 12.6923 9.8445C13.3089 9.22787 14.1286 8.88825 14.9995 8.88825C15.8703 8.88825 16.69 9.22787 17.3066 9.8445C17.9232 10.4611 18.2628 11.2808 18.2628 12.1516C18.2628 13.0225 17.9232 13.8422 17.3066 14.4588C16.69 15.0754 15.8703 15.415 14.9995 15.415Z" fill="#414141"/>
</svg>
