<svg width="24" height="22" viewBox="0 0 24 22" fill="none" xmlns="http://www.w3.org/2000/svg">
<line x1="12.5" y1="8" x2="12.5" y2="17.3333" stroke="#414141"/>
<line x1="8" y1="12.834" x2="17.3333" y2="12.834" stroke="#414141"/>
<path d="M0.501165 3.74011C0.501171 3.51761 0.500871 3.29841 0.500573 3.08138C0.499933 2.61375 0.499306 2.15621 0.501789 1.69755C0.504031 1.28339 0.632403 0.996548 0.814299 0.814373C0.995887 0.632506 1.28024 0.505411 1.68999 0.504874C2.19398 0.504213 2.69949 0.504913 3.20579 0.505614C4.1776 0.50696 5.1523 0.50831 6.12462 0.500047C6.43391 0.497419 6.63993 0.600888 6.80269 0.815829C7.08274 1.18565 7.34363 1.57666 7.59897 1.97938C7.71879 2.16837 7.87241 2.33982 8.08739 2.45694C8.30168 2.57369 8.53244 2.61219 8.7658 2.61142C12.4526 2.59923 16.1393 2.60025 19.827 2.60127C20.6468 2.6015 21.4666 2.60172 22.2865 2.6018C22.7204 2.60185 23.0097 2.73012 23.1899 2.91023C23.37 3.0903 23.4989 3.37998 23.499 3.81622C23.5004 9.30421 23.5003 14.7922 23.4987 20.2802C23.4985 20.715 23.3693 21.0067 23.1881 21.1887C23.0071 21.3705 22.7183 21.4992 22.2888 21.4992C15.43 21.5001 8.57124 21.5002 1.71244 21.4998C1.28365 21.4997 0.994535 21.3709 0.813108 21.1887C0.63144 21.0063 0.50211 20.7145 0.501997 20.2807C0.500908 16.1117 0.501008 11.9428 0.501108 7.76261C0.50114 6.42304 0.501172 5.08234 0.501165 3.74011ZM0.501165 3.74011L0.0011647 3.7401L0.501165 3.74011ZM22.9219 5.26596L23.4514 5.29726V4.76683C23.4514 4.67114 23.4524 4.56902 23.4534 4.46266C23.4559 4.1922 23.4587 3.89428 23.4466 3.60461C23.4373 3.38332 23.3633 3.16642 23.2078 2.99095C23.0539 2.81728 22.8511 2.71877 22.6425 2.67644C22.49 2.64549 22.3419 2.64431 22.2399 2.64429C21.4343 2.64412 20.6287 2.64386 19.8231 2.6436C16.0624 2.64239 12.3011 2.64118 8.53977 2.6497C8.1924 2.65048 7.96905 2.53903 7.7751 2.28651C7.67082 2.15073 7.57135 2.007 7.46683 1.85338C7.32821 1.64965 7.19187 1.44581 7.05426 1.24006C6.99382 1.1497 6.93314 1.05898 6.87192 0.967735C6.77754 0.827091 6.65207 0.712071 6.49168 0.638094C6.3372 0.566843 6.18093 0.547821 6.04399 0.548457L6.04631 1.04845L6.04399 0.548457C5.00443 0.553287 3.9654 0.553113 2.92496 0.552938C2.52269 0.552871 2.12022 0.552803 1.71742 0.553025C1.71553 0.553026 1.71362 0.553027 1.71168 0.553027C1.63979 0.553053 1.52837 0.553094 1.41306 0.570916C0.947105 0.642932 0.554758 1.00672 0.551316 1.54523C0.546237 2.34007 0.547045 3.13572 0.547836 3.9147C0.548123 4.19762 0.548408 4.47833 0.548408 4.75601V5.2733L1.06539 5.25573C1.47043 5.24196 1.86195 5.22865 2.30324 5.2157C3.33381 5.21568 4.36437 5.21565 5.39492 5.21561C10.9568 5.21543 16.5185 5.21525 22.0802 5.21749C22.2559 5.21757 22.4195 5.22992 22.606 5.244C22.7034 5.25135 22.8071 5.25917 22.9219 5.26596ZM8.96927 21.4517C9.98223 21.4517 10.9952 21.4517 12.0081 21.4518C15.4269 21.4519 18.8457 21.4519 22.2644 21.4519C22.548 21.4519 22.8997 21.414 23.1567 21.1593C23.415 20.9033 23.4537 20.5515 23.4537 20.2686C23.4538 15.6661 23.4537 11.0635 23.4534 6.46097C23.4534 6.18021 23.4197 5.82581 23.1673 5.56731C22.9113 5.30511 22.5564 5.26925 22.2774 5.26924C15.4344 5.26906 8.59146 5.26918 1.74849 5.26963C1.46722 5.26965 1.09543 5.29684 0.83227 5.56612C0.572908 5.83151 0.547377 6.20257 0.547358 6.48651C0.547047 11.0115 0.546997 15.5366 0.546946 20.0616L0.546944 20.243C0.546941 20.5278 0.576799 20.8962 0.842004 21.1596C1.10596 21.4216 1.47432 21.4513 1.76112 21.4514C3.83217 21.4519 5.90321 21.4518 8.0075 21.4517L8.96927 21.4517Z" fill="#414141" stroke="#414141"/>
</svg>
