<svg width="34" height="26" viewBox="0 0 34 26" fill="none" xmlns="http://www.w3.org/2000/svg">
<rect x="8.46289" y="19.3594" width="7.75195" height="6.39599" fill="#414141"/>
<path d="M15.3106 2.53303C14.4407 3.93162 12.0548 7.76069 10.0135 11.044C6.08582 17.3632 3.44154 21.5931 3.12285 22.0877C2.12371 23.6569 0.840332 25.7718 0.840332 25.8571C0.840332 25.8912 4.63017 25.9253 9.26411 25.9253L17.6793 25.9168L19.4019 23.1367C20.3494 21.6101 21.2452 20.1689 21.3916 19.9301L21.6586 19.5123L22.1323 20.2627C22.3994 20.6806 22.7783 21.3031 22.9851 21.6443C23.1918 21.9854 23.4588 22.4118 23.5794 22.5994C23.7 22.7785 24.0187 23.2902 24.2857 23.7251C24.5613 24.16 24.992 24.8423 25.2417 25.2431L25.6982 25.968L29.5484 25.9935C33.1401 26.0106 33.3985 26.0021 33.3985 25.8656C33.3985 25.7889 33.097 25.2345 32.7267 24.6461C32.0721 23.6228 31.0385 21.9513 30.8576 21.6443C30.8145 21.5675 30.4269 20.9535 30.0049 20.2798C28.0583 17.1756 27.9118 16.9368 27.9032 16.8515C27.9032 16.8089 27.8602 16.7492 27.8171 16.7236C27.731 16.6724 27.0247 15.5382 27.0247 15.4529C27.0247 15.4274 26.9386 15.2909 26.8266 15.1459C26.7146 15.001 26.594 14.8219 26.5682 14.7536C26.5337 14.6854 26.3873 14.4552 26.2495 14.242C26.1117 14.0288 25.948 13.7644 25.8877 13.645C25.8274 13.5256 25.7585 13.4147 25.7241 13.3892C25.6896 13.3636 25.5949 13.2101 25.5087 13.048C25.414 12.886 25.259 12.6302 25.1556 12.4767C25.0436 12.3317 24.9575 12.1697 24.9575 12.1185C24.9575 12.0503 23.7947 12.0162 21.0815 12.0076L17.2142 11.982L18.9368 9.21045C19.8929 7.68394 20.7025 6.37915 20.7456 6.29387C20.7973 6.19154 20.6422 5.876 20.1082 5.01468C18.8507 3.0106 17.5931 0.997992 17.2831 0.494841C17.1194 0.221945 16.973 0.000217438 16.9472 0.000217438C16.9213 0.000217438 16.1892 1.14297 15.3106 2.53303ZM17.8946 13.4489C18.3339 14.1482 18.8938 15.0351 19.1522 15.4359C19.4105 15.8367 19.7809 16.4251 19.9704 16.7577C20.3666 17.4485 20.4011 17.5082 20.8834 18.2672C21.0815 18.5827 21.3055 18.9579 21.383 19.1029L21.5208 19.3588H18.0841H14.6474L14.277 19.7596C13.8033 20.2883 10.9179 23.2816 9.98763 24.2197L9.26411 24.9446L9.8412 24.015C10.1599 23.5034 10.4786 22.9832 10.5561 22.8638C10.625 22.7444 10.7714 22.5056 10.8748 22.3436C11.805 20.8767 12.4683 19.7852 12.563 19.572C12.6233 19.427 12.9161 18.9324 13.2004 18.4633C13.4932 17.9943 14.2857 16.7066 14.9661 15.6064C16.5854 12.9798 17.0764 12.1952 17.085 12.1952C17.0936 12.1952 17.4553 12.7581 17.8946 13.4489Z" fill="#414141"/>
<mask id="mask0_4148_14270" style="mask-type:alpha" maskUnits="userSpaceOnUse" x="8" y="19" width="7" height="7">
<path d="M12.4584 19.3789H14.6648L11.7822 22.7158L8.72168 25.9028L12.4584 19.3789Z" fill="#414141"/>
</mask>
<g mask="url(#mask0_4148_14270)">
<path d="M8.59229 25.9668L12.6621 19.3789H15.8274L15.394 25.287L8.59229 25.9668Z" fill="#414141"/>
</g>
</svg>
