<svg width="120" height="43" viewBox="0 0 120 43" fill="none" xmlns="http://www.w3.org/2000/svg">
<rect x="9.36523" y="25.0742" width="9.52381" height="7.94386" fill="#414141"/>
<path d="M17.7778 4.17812C16.709 5.91518 13.7778 10.6709 11.2698 14.7487C6.44444 22.5973 3.19577 27.8508 2.80423 28.4651C1.57672 30.414 0 33.0408 0 33.1467C0 33.1891 4.65608 33.2315 10.3492 33.2315L20.6878 33.2209L22.8042 29.7679C23.9683 27.872 25.0688 26.082 25.2487 25.7854L25.5767 25.2664L26.1587 26.1985C26.4868 26.7175 26.9524 27.4907 27.2063 27.9144C27.4603 28.338 27.7884 28.8676 27.9365 29.1007C28.0847 29.3231 28.4762 29.9586 28.8042 30.4988C29.1429 31.039 29.672 31.8863 29.9788 32.3841L30.5397 33.2844L35.2698 33.3162C39.6825 33.3374 40 33.3268 40 33.1573C40 33.062 39.6296 32.3735 39.1746 31.6427C38.3704 30.3717 37.1005 28.2957 36.8783 27.9144C36.8254 27.819 36.3492 27.0564 35.8307 26.2197C33.4392 22.3643 33.2593 22.0677 33.2487 21.9618C33.2487 21.9088 33.1958 21.8347 33.1429 21.8029C33.037 21.7393 32.1693 20.3306 32.1693 20.2247C32.1693 20.1929 32.0635 20.0235 31.9259 19.8434C31.7884 19.6633 31.6402 19.4409 31.6085 19.3562C31.5661 19.2715 31.3862 18.9855 31.2169 18.7207C31.0476 18.4559 30.8466 18.1275 30.7725 17.9793C30.6984 17.831 30.6138 17.6933 30.5714 17.6615C30.5291 17.6297 30.4127 17.4391 30.3069 17.2378C30.1905 17.0366 30 16.7188 29.873 16.5282C29.7354 16.3481 29.6296 16.1469 29.6296 16.0833C29.6296 15.9986 28.2011 15.9562 24.8677 15.9456L20.1164 15.9138L22.2328 12.4715C23.4074 10.5756 24.4021 8.95503 24.455 8.84911C24.5185 8.72201 24.328 8.33011 23.672 7.26034C22.127 4.77127 20.582 2.2716 20.2011 1.64668C20 1.30774 19.8201 1.03236 19.7884 1.03236C19.7566 1.03236 18.8571 2.45166 17.7778 4.17812ZM20.9524 17.7356C21.4921 18.6042 22.1799 19.7057 22.4974 20.2035C22.8148 20.7013 23.2698 21.4322 23.5026 21.8453C23.9894 22.7032 24.0317 22.7773 24.6243 23.72C24.8677 24.1119 25.1429 24.5779 25.2381 24.758L25.4074 25.0758H21.1852H16.963L16.5079 25.5736C15.9259 26.2303 12.381 29.948 11.2381 31.1131L10.3492 32.0134L11.0582 30.8589C11.4497 30.2234 11.8413 29.5773 11.9365 29.429C12.0212 29.2807 12.2011 28.9841 12.328 28.7829C13.4709 26.9611 14.2857 25.6054 14.4021 25.3406C14.4762 25.1605 14.836 24.5462 15.1852 23.9636C15.545 23.3811 16.5185 21.7817 17.3545 20.4154C19.3439 17.1531 19.9471 16.1786 19.9577 16.1786C19.9683 16.1786 20.4127 16.8777 20.9524 17.7356Z" fill="#808080"/>
<mask id="mask0_3564_69695" style="mask-type:alpha" maskUnits="userSpaceOnUse" x="9" y="25" width="8" height="9">
<path d="M14.2734 25.1016H16.9842L13.4427 29.2461L9.68262 33.2043L14.2734 25.1016Z" fill="#414141"/>
</mask>
<g mask="url(#mask0_3564_69695)">
<path d="M9.52393 33.2837L14.5239 25.1016H18.4128L17.8803 32.4394L9.52393 33.2837Z" fill="#414141"/>
</g>
<path d="M50.005 33.0312H47.8C47.4033 33.0312 47.205 32.8329 47.205 32.4362V15.7762C47.205 15.3796 47.4033 15.1812 47.8 15.1812H50.005C50.4017 15.1812 50.6 15.3796 50.6 15.7762V17.1062H50.74C50.9733 16.5229 51.4167 16.0562 52.07 15.7062C52.7467 15.3562 53.4933 15.1812 54.31 15.1812H55.605C56.0017 15.1812 56.2 15.3796 56.2 15.7762V17.5962C56.2 18.0396 56.0017 18.2262 55.605 18.1562H53.505C51.5683 18.1562 50.6 19.2179 50.6 21.3412V32.4362C50.6 32.8329 50.4017 33.0312 50.005 33.0312ZM67.8186 33.0312H66.4536C64.727 33.0312 63.3853 32.5529 62.4286 31.5962C61.4953 30.6396 61.0286 29.3096 61.0286 27.6062V20.6062C61.0286 18.8796 61.4953 17.5496 62.4286 16.6162C63.3853 15.6596 64.727 15.1812 66.4536 15.1812H74.2936C74.7136 15.1812 74.9236 15.3796 74.9236 15.7762V32.4362C74.9236 32.8329 74.7136 33.0312 74.2936 33.0312H72.0886C71.692 33.0312 71.4936 32.8329 71.4936 32.4362V31.1762H71.3536C70.7936 32.4129 69.6153 33.0312 67.8186 33.0312ZM71.4936 27.0812V18.5062C71.4936 18.2729 71.3653 18.1562 71.1086 18.1562H66.9436C65.2636 18.1562 64.4236 19.0196 64.4236 20.7462V27.4662C64.4236 29.1929 65.2636 30.0562 66.9436 30.0562H68.6236C70.537 30.0562 71.4936 29.0646 71.4936 27.0812ZM91.8888 15.1812H94.4088C94.6188 15.1812 94.7588 15.2512 94.8288 15.3912C94.9221 15.5079 94.8988 15.6712 94.7588 15.8812L89.8238 23.7212V23.8612L95.1438 32.3312C95.2605 32.5179 95.2721 32.6812 95.1788 32.8212C95.1088 32.9612 94.9455 33.0312 94.6888 33.0312H92.4138C91.8771 33.0312 91.4805 32.8329 91.2238 32.4362L86.2888 24.3512C86.1255 24.0479 86.1255 23.7329 86.2888 23.4062L90.8738 15.7412C91.0838 15.3679 91.4221 15.1812 91.8888 15.1812ZM84.5388 33.0312H82.3338C81.9371 33.0312 81.7388 32.8329 81.7388 32.4362V9.02125C81.7388 8.62458 81.9371 8.42625 82.3338 8.42625H84.5388C84.9355 8.42625 85.1338 8.62458 85.1338 9.02125V32.4362C85.1338 32.8329 84.9355 33.0312 84.5388 33.0312ZM106.521 33.0312H100.081C99.684 33.0312 99.4857 32.8329 99.4857 32.4362V30.7213C99.4857 30.3479 99.684 30.1612 100.081 30.1612H105.961C107.477 30.1612 108.236 29.6362 108.236 28.5862V28.1662C108.236 27.2329 107.687 26.5212 106.591 26.0312L102.776 24.2112C101.586 23.6512 100.722 23.0329 100.186 22.3562C99.649 21.6796 99.3807 20.7929 99.3807 19.6962C99.3807 16.6862 101.049 15.1812 104.386 15.1812H110.196C110.569 15.1812 110.756 15.3796 110.756 15.7762V17.4912C110.756 17.8879 110.569 18.0862 110.196 18.0862H105.086C104.386 18.0862 103.849 18.2146 103.476 18.4712C103.102 18.7046 102.916 19.0196 102.916 19.4162V19.8012C102.916 20.5479 103.511 21.2012 104.701 21.7612L108.551 23.7212C109.764 24.2579 110.592 24.8996 111.036 25.6462C111.502 26.3696 111.736 27.3146 111.736 28.4812C111.736 31.5146 109.997 33.0312 106.521 33.0312Z" fill="#414141"/>
</svg>
