<svg width="14" height="14" viewBox="0 0 14 14" fill="none" xmlns="http://www.w3.org/2000/svg">
<rect x="3.27734" y="9.34766" width="3.33333" height="2.75522" fill="#414141"/>
<path d="M6.22222 2.09029C5.84815 2.69276 4.82222 4.34222 3.94444 5.75657C2.25556 8.47872 1.11852 10.3008 0.981481 10.5139C0.551852 11.1899 0 12.1009 0 12.1377C0 12.1524 1.62963 12.167 3.62222 12.167L7.24074 12.1634L7.98148 10.9658C8.38889 10.3082 8.77407 9.68735 8.83704 9.58449L8.95185 9.40448L9.15556 9.72776C9.27037 9.90776 9.43333 10.1759 9.52222 10.3229C9.61111 10.4698 9.72593 10.6535 9.77778 10.7343C9.82963 10.8115 9.96667 11.0319 10.0815 11.2192C10.2 11.4066 10.3852 11.7005 10.4926 11.8732L10.6889 12.1854L12.3444 12.1964C13.8889 12.2038 14 12.2001 14 12.1413C14 12.1083 13.8704 11.8695 13.7111 11.616C13.4296 11.1752 12.9852 10.4551 12.9074 10.3229C12.8889 10.2898 12.7222 10.0253 12.5407 9.7351C11.7037 8.3979 11.6407 8.29504 11.637 8.25831C11.637 8.23994 11.6185 8.21422 11.6 8.2032C11.563 8.18116 11.2593 7.69257 11.2593 7.65583C11.2593 7.64481 11.2222 7.58603 11.1741 7.52358C11.1259 7.46113 11.0741 7.38398 11.063 7.35459C11.0481 7.3252 10.9852 7.22602 10.9259 7.13418C10.8667 7.04234 10.7963 6.92845 10.7704 6.87702C10.7444 6.82559 10.7148 6.77783 10.7 6.76681C10.6852 6.75579 10.6444 6.68967 10.6074 6.61987C10.5667 6.55007 10.5 6.43986 10.4556 6.37373C10.4074 6.31128 10.3704 6.24148 10.3704 6.21944C10.3704 6.19005 9.87037 6.17536 8.7037 6.17169L7.04074 6.16066L7.78148 4.96674C8.19259 4.30916 8.54074 3.74709 8.55926 3.71036C8.58148 3.66627 8.51481 3.53035 8.28518 3.15931C7.74444 2.29601 7.2037 1.42903 7.07037 1.21229C7 1.09473 6.93704 0.999218 6.92593 0.999218C6.91481 0.999218 6.6 1.49148 6.22222 2.09029ZM7.33333 6.79253C7.52222 7.09377 7.76296 7.47582 7.87407 7.64848C7.98519 7.82114 8.14444 8.07462 8.22593 8.2179C8.3963 8.51546 8.41111 8.54117 8.61852 8.86813C8.7037 9.00405 8.8 9.16569 8.83333 9.22814L8.89259 9.33835H7.41481H5.93704L5.77778 9.51101C5.57407 9.73878 4.33333 11.0282 3.93333 11.4323L3.62222 11.7446L3.87037 11.3442C4.00741 11.1237 4.14444 10.8996 4.17778 10.8482C4.20741 10.7968 4.27037 10.6939 4.31481 10.6241C4.71481 9.99226 5 9.52203 5.04074 9.43019C5.06667 9.36774 5.19259 9.15467 5.31481 8.95262C5.44074 8.75057 5.78148 8.19585 6.07407 7.72196C6.77037 6.59048 6.98148 6.25251 6.98519 6.25251C6.98889 6.25251 7.14444 6.49496 7.33333 6.79253Z" fill="#414141"/>
<mask id="mask0_12907_48635" style="mask-type:alpha" maskUnits="userSpaceOnUse" x="3" y="9" width="3" height="4">
<path d="M4.9935 9.35547H5.94227L4.70275 10.7929L3.38672 12.1658L4.9935 9.35547Z" fill="black"/>
</mask>
<g mask="url(#mask0_12907_48635)">
<path d="M3.33203 12.1914L5.08203 9.35352H6.44314L5.08203 10.7212L3.33203 12.1914Z" fill="black"/>
</g>
</svg>
