<svg width="25" height="20" viewBox="0 0 25 20" fill="none" xmlns="http://www.w3.org/2000/svg">
<path d="M11.4208 2.08929C10.3969 2.95717 8.79764 4.31263 7.8615 5.09275L6.16474 6.51646L4.73127 8.99334C1.34751 14.854 0.0408059 17.1358 0.00179996 17.2431C-0.037206 17.3406 0.547883 17.3699 2.72247 17.3699H5.49189L5.77468 16.7068C5.93071 16.346 6.31101 15.5268 6.61331 14.8832C6.91561 14.2396 7.60796 12.7672 8.14429 11.6165C9.04143 9.69545 10.8845 5.73635 11.5963 4.20536C12.2204 2.88891 13.3126 0.499794 13.3028 0.499794C13.2931 0.509546 12.4447 1.22141 11.4208 2.08929Z" fill="#2173BA"/>
<path d="M14.2682 1.97291C14.239 2.05093 13.5564 3.94271 12.747 6.18556L11.2648 10.2617L14.2 13.7625C15.8187 15.6933 17.1352 17.3315 17.1352 17.4095C17.1352 17.5655 17.1059 17.5753 15.1849 17.9069C13.8294 18.1311 12.8933 18.2969 10.4066 18.7357C9.7923 18.843 8.58312 19.0575 7.72499 19.2038L6.1745 19.4671L15.1361 19.4963C20.0704 19.5061 24.205 19.4963 24.322 19.4671C24.5171 19.4183 24.478 19.3111 23.5809 17.7801C22.6643 16.2101 20.8602 13.0994 16.5208 5.57121C15.3994 3.61116 14.434 1.97291 14.395 1.92416C14.3462 1.86565 14.2975 1.8949 14.2682 1.97291Z" fill="#2173BA"/>
</svg>
