<svg width="27" height="33" viewBox="0 0 27 33" fill="none" xmlns="http://www.w3.org/2000/svg">
<path d="M12.5196 0.605229C11.361 1.04131 10.7725 1.87636 10.7725 3.05471C10.7725 4.07533 11.2414 4.82688 12.1977 5.33719C12.7679 5.64337 13.7977 5.62482 14.423 5.2908C15.8667 4.52997 16.2161 2.60935 15.1495 1.33822C14.5886 0.670178 13.3012 0.308322 12.5196 0.605229Z" fill="#808080"/>
<path d="M9.1374 4.25035C7.91441 4.92767 7.04085 5.73489 6.3328 6.83901C5.43165 8.23076 5.09142 9.53901 4.99947 12.0627C4.80636 17.0452 3.89602 19.3184 1.28452 21.3411C0.162685 22.204 0.0523402 22.3617 0.00636317 23.0576C-0.0672001 24.1431 0.49372 24.8761 1.86383 25.5163C3.15119 26.1194 4.94429 26.4813 7.80407 26.7411C9.58797 26.8988 16.8615 26.8988 18.6546 26.7411C24.0983 26.2586 26.4707 25.173 26.4707 23.1782C26.4707 22.5565 26.2684 22.2225 25.5512 21.638C24.2822 20.6174 24.0064 20.3576 23.5466 19.7916C23.2799 19.4576 22.8845 18.8081 22.6546 18.3442C21.9098 16.7668 21.6431 15.3751 21.4592 12.1555C21.3121 9.5854 21.1742 8.87097 20.5857 7.66479C20.0891 6.62561 19.3903 5.73489 18.5811 5.0854C17.9926 4.62149 16.8248 3.91633 16.7788 4.00912C16.1443 5.37303 15.1604 6.17097 13.7811 6.42149C12.3466 6.69056 10.5535 5.78128 9.90981 4.46375C9.79027 4.20396 9.67073 3.99984 9.64315 3.99984C9.61556 3.99056 9.39487 4.11118 9.1374 4.25035Z" fill="#808080"/>
<path d="M9.52181 29.0901C9.62296 30.1943 10.4965 31.4376 11.5632 31.985C12.6023 32.5139 13.8988 32.5139 14.9655 31.9943C16.0046 31.4747 16.9057 30.185 17.0069 29.0716L17.0528 28.552H13.2643H9.47583L9.52181 29.0901Z" fill="#808080"/>
</svg>
