<svg width="24" height="24" viewBox="0 0 24 24" fill="none" xmlns="http://www.w3.org/2000/svg">
<g clip-path="url(#clip0_3588_87407)">
<path d="M1 11H10C10.552 11 11 10.552 11 10V1C11 0.448 10.552 0 10 0H1C0.448 0 0 0.448 0 1V10C0 10.552 0.448 11 1 11Z" fill="#232F6A"/>
<path d="M23 0H14C13.448 0 13 0.448 13 1V10C13 10.552 13.448 11 14 11H23C23.552 11 24 10.552 24 10V1C24 0.448 23.552 0 23 0Z" fill="#232F6A"/>
<path d="M1 24H10C10.552 24 11 23.552 11 23V14C11 13.448 10.552 13 10 13H1C0.448 13 0 13.448 0 14V23C0 23.552 0.448 24 1 24Z" fill="#232F6A"/>
<path d="M23 13H14C13.448 13 13 13.448 13 14V23C13 23.552 13.448 24 14 24H23C23.552 24 24 23.552 24 23V14C24 13.448 23.552 13 23 13Z" fill="#232F6A"/>
</g>
<defs>
<clipPath id="clip0_3588_87407">
<rect width="24" height="24" fill="white"/>
</clipPath>
</defs>
</svg>
