<svg width="24" height="24" viewBox="0 0 24 24" fill="none" xmlns="http://www.w3.org/2000/svg">
<g clip-path="url(#clip0_3588_87534)">
<path d="M10 10.5H1C0.724142 10.5 0.5 10.2759 0.5 10V1C0.5 0.724142 0.724142 0.5 1 0.5H10C10.2759 0.5 10.5 0.724142 10.5 1V10C10.5 10.2759 10.2759 10.5 10 10.5Z" stroke="#808080"/>
<path d="M14 0.5H23C23.2759 0.5 23.5 0.724142 23.5 1V10C23.5 10.2759 23.2759 10.5 23 10.5H14C13.7241 10.5 13.5 10.2759 13.5 10V1C13.5 0.724142 13.7241 0.5 14 0.5Z" stroke="#808080"/>
<path d="M10 23.5H1C0.724142 23.5 0.5 23.2759 0.5 23V14C0.5 13.7241 0.724142 13.5 1 13.5H10C10.2759 13.5 10.5 13.7241 10.5 14V23C10.5 23.2759 10.2759 23.5 10 23.5Z" stroke="#808080"/>
<path d="M14 13.5H23C23.2759 13.5 23.5 13.7241 23.5 14V23C23.5 23.2759 23.2759 23.5 23 23.5H14C13.7241 23.5 13.5 23.2759 13.5 23V14C13.5 13.7241 13.7241 13.5 14 13.5Z" stroke="#808080"/>
</g>
<defs>
<clipPath id="clip0_3588_87534">
<rect width="24" height="24" fill="white"/>
</clipPath>
</defs>
</svg>
