<svg xmlns="http://www.w3.org/2000/svg" width="32" height="32" viewBox="0 0 40 33" fill="none">
    <path d="M17.7778 3.14259C16.709 4.87804 13.7778 9.62936 11.2698 13.7034C6.44444 21.5447 3.19577 26.7934 2.80423 27.4071C1.57672 29.3542 0 31.9786 0 32.0844C0 32.1267 4.65608 32.169 10.3492 32.169L20.6878 32.1585L22.8042 28.7087C23.9683 26.8145 25.0688 25.0262 25.2487 24.7299L25.5767 24.2114L26.1587 25.1426C26.4868 25.6611 26.9524 26.4336 27.2063 26.8569C27.4603 27.2802 27.7884 27.8093 27.9365 28.0421C28.0847 28.2643 28.4762 28.8992 28.8042 29.4389C29.1429 29.9786 29.672 30.8251 29.9788 31.3225L30.5397 32.222L35.2698 32.2537C39.6825 32.2749 40 32.2643 40 32.095C40 31.9997 39.6296 31.3119 39.1746 30.5817C38.3704 29.3119 37.1005 27.2378 36.8783 26.8569C36.8254 26.7616 36.3492 25.9997 35.8307 25.1638C33.4392 21.3119 33.2593 21.0156 33.2487 20.9098C33.2487 20.8569 33.1958 20.7828 33.1429 20.7511C33.037 20.6876 32.1693 19.2802 32.1693 19.1743C32.1693 19.1426 32.0635 18.9733 31.9259 18.7934C31.7884 18.6135 31.6402 18.3913 31.6085 18.3066C31.5661 18.222 31.3862 17.9362 31.2169 17.6717C31.0476 17.4071 30.8466 17.0791 30.7725 16.9309C30.6984 16.7828 30.6138 16.6452 30.5714 16.6135C30.5291 16.5817 30.4127 16.3913 30.3069 16.1902C30.1905 15.9891 30 15.6717 29.873 15.4812C29.7354 15.3013 29.6296 15.1003 29.6296 15.0368C29.6296 14.9521 28.2011 14.9098 24.8677 14.8992L20.1164 14.8675L22.2328 11.4283C23.4074 9.53412 24.4021 7.91507 24.455 7.80925C24.5185 7.68227 24.328 7.29074 23.672 6.22195C22.127 3.73518 20.582 1.23783 20.2011 0.613485C20 0.274862 19.8201 -0.000270844 19.7884 -0.000270844C19.7566 -0.000270844 18.8571 1.41772 17.7778 3.14259ZM20.9524 16.6876C21.4921 17.5553 22.1799 18.6558 22.4974 19.1532C22.8148 19.6505 23.2698 20.3807 23.5026 20.7934C23.9894 21.6505 24.0317 21.7246 24.6243 22.6664C24.8677 23.0579 25.1429 23.5235 25.2381 23.7034L25.4074 24.0209H21.1852H16.963L16.5079 24.5182C15.9259 25.1743 12.381 28.8886 11.2381 30.0526L10.3492 30.9521L11.0582 29.7987C11.4497 29.1638 11.8413 28.5182 11.9365 28.3701C12.0212 28.222 12.2011 27.9257 12.328 27.7246C13.4709 25.9045 14.2857 24.55 14.4021 24.2854C14.4762 24.1055 14.836 23.4918 15.1852 22.9098C15.545 22.3278 16.5185 20.7299 17.3545 19.3648C19.3439 16.1055 19.9471 15.132 19.9577 15.132C19.9683 15.132 20.4127 15.8304 20.9524 16.6876Z" fill="#808080"/>
</svg>
