<svg width="14" height="18" viewBox="0 0 14 18" fill="none" xmlns="http://www.w3.org/2000/svg">
<path d="M5.53836 1.02442C5.20561 1.08214 4.9136 1.31303 4.7642 1.6322C4.6895 1.80198 4.67592 1.87668 4.66573 2.28753L4.65215 2.7561H2.85256H1.05298L0.954508 2.85456C0.815294 2.99378 0.815294 3.1975 0.954508 3.33672C1.04618 3.4284 1.07335 3.43519 1.29405 3.43519H1.53513L1.54192 9.82542L1.55211 16.219L1.6302 16.3718C1.75583 16.6265 1.89505 16.7691 2.13952 16.888L2.36701 17H7.10366H11.8403L12.0678 16.888C12.3123 16.7691 12.4515 16.6265 12.5771 16.3718L12.6552 16.219L12.6654 9.82542L12.6722 3.43519H12.9133C13.134 3.43519 13.1611 3.4284 13.2528 3.33672C13.392 3.1975 13.392 2.99378 13.2528 2.85456L13.1544 2.7561H11.3548H9.55518L9.5416 2.28753C9.53141 1.87668 9.51783 1.80198 9.43973 1.6322C9.33108 1.39113 9.14772 1.21117 8.90665 1.09572L8.7165 1.00744L7.20553 1.00065C6.37364 0.997255 5.62325 1.00744 5.53836 1.02442ZM8.64859 1.74425C8.80139 1.81216 8.83534 1.931 8.83534 2.36562V2.7561H7.10366H5.37198V2.35543C5.37538 1.931 5.40254 1.82914 5.54515 1.75104C5.6572 1.68993 8.51617 1.68314 8.64859 1.74425ZM11.9592 9.75411C11.9592 14.0222 11.949 16.0934 11.9252 16.1376C11.8301 16.3107 12.044 16.3039 7.10366 16.3039C2.16329 16.3039 2.3772 16.3107 2.28213 16.1376C2.25836 16.0934 2.24817 14.0222 2.24817 9.75411V3.43519H7.10366H11.9592V9.75411Z" fill="#232F6A" stroke="#232F6A" stroke-width="0.5"/>
<path d="M4.8387 5.23589C4.7674 5.27663 4.71647 5.34454 4.6927 5.42943C4.66554 5.52111 4.65874 6.83175 4.66554 9.96575L4.67572 14.3764L4.78777 14.4749C4.93717 14.6073 5.09336 14.6073 5.24276 14.4749L5.35481 14.3764L5.365 9.925C5.37179 5.02877 5.38537 5.33096 5.16806 5.21891C5.03903 5.151 4.97113 5.1544 4.8387 5.23589Z" fill="#232F6A" stroke="#232F6A" stroke-width="0.5"/>
<path d="M6.98147 5.19914C6.94072 5.21612 6.87621 5.27384 6.83546 5.32477L6.76416 5.41645V9.88825V14.3601L6.84565 14.4483C6.94072 14.5502 7.06636 14.5909 7.19199 14.5604C7.23952 14.5468 7.31762 14.4959 7.36176 14.4483L7.44325 14.3601V9.88486V5.40626L7.35157 5.3044C7.24971 5.19574 7.09691 5.1516 6.98147 5.19914Z" fill="#232F6A" stroke="#232F6A" stroke-width="0.5"/>
<path d="M9.01891 5.23C8.96118 5.26395 8.89667 5.33865 8.8763 5.38958C8.84574 5.46428 8.83555 6.5678 8.84234 9.9293L8.85253 14.3739L8.96458 14.4724C9.14793 14.6354 9.38222 14.5912 9.49766 14.3671C9.54181 14.2823 9.5486 13.7084 9.5486 9.88516C9.5486 5.08739 9.55878 5.32846 9.34826 5.21981C9.21584 5.14851 9.14793 5.1519 9.01891 5.23Z" fill="#232F6A" stroke="#232F6A" stroke-width="0.5"/>
</svg>
