<svg width="23" height="22" viewBox="0 0 23 22" fill="none" xmlns="http://www.w3.org/2000/svg">
<path d="M9.1001 18.5629H4.9751C4.79276 18.5629 4.61789 18.4905 4.48896 18.3615C4.36003 18.2326 4.2876 18.0577 4.2876 17.8754V14.0352C4.2876 13.9449 4.30538 13.8555 4.33993 13.7721C4.37448 13.6887 4.42512 13.6129 4.48896 13.549L14.8015 3.23652C14.9304 3.10759 15.1053 3.03516 15.2876 3.03516C15.4699 3.03516 15.6448 3.10759 15.7737 3.23652L19.614 7.07675C19.7429 7.20568 19.8153 7.38055 19.8153 7.56288C19.8153 7.74522 19.7429 7.92009 19.614 8.04902L9.1001 18.5629Z" stroke="#232F6A" stroke-width="1.5" stroke-linecap="round" stroke-linejoin="round"/>
<path d="M12.5376 5.5L17.3501 10.3125" stroke="#232F6A" stroke-width="1.5" stroke-linecap="round" stroke-linejoin="round"/>
<path d="M19.4128 18.5617H9.1003L4.33154 13.793" stroke="#232F6A" stroke-width="1.5" stroke-linecap="round" stroke-linejoin="round"/>
</svg>
