<svg width="22" height="20" viewBox="0 0 22 20" fill="none" xmlns="http://www.w3.org/2000/svg">
<path d="M21.8811 19.1375C21.7889 19.2846 21.6972 19.4137 21.5884 19.56C21.5563 19.5857 21.549 19.5985 21.5346 19.6214C21.2502 19.8691 20.9276 19.9773 20.5715 20.0013C18.947 19.9985 17.3225 19.9938 15.698 19.9934C10.9872 19.9925 6.27627 19.99 1.56542 20.0003C1.21487 20.001 0.916438 19.912 0.608671 19.7226C0.587778 19.7094 0.567552 19.7071 0.567552 19.7071C0.376616 19.5721 0.222508 19.4085 0.141274 19.1499C0.0930264 18.9929 0.0568176 18.865 0.0206088 18.737C0.0189168 14.4338 0.0163359 10.1305 0.0197273 5.82729C0.0198314 5.69516 0.0820109 5.56309 0.133879 5.40814C0.178419 5.35929 0.20433 5.3333 0.249062 5.30393C0.409536 5.27641 0.551191 5.25226 0.712674 5.23503C0.843546 5.23734 0.954589 5.23274 1.081 5.23504C1.11784 5.23733 1.13931 5.23274 1.18051 5.23505C1.31095 5.23735 1.42167 5.23275 1.54773 5.23504C1.58453 5.23734 1.60598 5.23274 1.64714 5.23505C1.77758 5.23735 1.88829 5.23275 2.01435 5.23504C2.05115 5.23734 2.0726 5.23274 2.11401 5.23505C2.26004 5.23736 2.3861 5.23275 2.52752 5.23504C2.56436 5.23733 2.58584 5.23274 2.62703 5.23505C2.75747 5.23735 2.86819 5.23275 2.99426 5.23504C3.03105 5.23734 3.0525 5.23274 3.09367 5.23505C3.2241 5.23735 3.33482 5.23275 3.46088 5.23504C3.49767 5.23734 3.51912 5.23274 3.56029 5.23505C3.69072 5.23735 3.80144 5.23275 3.9275 5.23504C3.96429 5.23734 3.98574 5.23274 4.02716 5.23505C4.17319 5.23736 4.29925 5.23275 4.44067 5.23504C4.47751 5.23733 4.49899 5.23274 4.54018 5.23505C4.67062 5.23735 4.78134 5.23275 4.90741 5.23504C4.9442 5.23734 4.96565 5.23274 5.00682 5.23505C5.13725 5.23735 5.24797 5.23275 5.37403 5.23504C5.41082 5.23734 5.43227 5.23274 5.47343 5.23505C5.60387 5.23735 5.71459 5.23274 5.84065 5.23504C5.87744 5.23734 5.89889 5.23274 5.94031 5.23505C6.08633 5.23736 6.21239 5.23275 6.35382 5.23504C6.39066 5.23733 6.41213 5.23274 6.45333 5.23505C6.58377 5.23735 6.69449 5.23275 6.82056 5.23504C6.85735 5.23734 6.8788 5.23274 6.91996 5.23505C7.0504 5.23735 7.16112 5.23275 7.28718 5.23504C7.32397 5.23734 7.34542 5.23274 7.38658 5.23505C7.51702 5.23735 7.62774 5.23275 7.7538 5.23504C7.79059 5.23734 7.81204 5.23274 7.85345 5.23505C7.99948 5.23736 8.12554 5.23275 8.26697 5.23504C8.3038 5.23733 8.32528 5.23274 8.36647 5.23505C8.49692 5.23735 8.60764 5.23275 8.7337 5.23504C8.77049 5.23734 8.79194 5.23274 8.83311 5.23505C8.96355 5.23735 9.07427 5.23275 9.20033 5.23504C9.23712 5.23734 9.25856 5.23274 9.29973 5.23505C9.43017 5.23735 9.54089 5.23275 9.66695 5.23504C9.70374 5.23734 9.72519 5.23274 9.7666 5.23505C9.91263 5.23736 10.0387 5.23275 10.1801 5.23504C10.217 5.23734 10.2384 5.23274 10.2796 5.23505C10.4101 5.23735 10.5208 5.23275 10.6469 5.23504C10.6836 5.23734 10.7051 5.23274 10.7463 5.23505C10.8767 5.23735 10.9874 5.23275 11.1135 5.23504C11.1503 5.23734 11.1717 5.23274 11.2129 5.23505C11.3433 5.23735 11.454 5.23275 11.5801 5.23504C11.6169 5.23734 11.6383 5.23274 11.6795 5.23505C11.8099 5.23735 11.9207 5.23275 12.0467 5.23504C12.0835 5.23734 12.105 5.23274 12.1464 5.23505C12.2924 5.23736 12.4185 5.23275 12.5599 5.23504C12.5967 5.23733 12.6182 5.23274 12.6594 5.23505C12.7898 5.23735 12.9005 5.23275 13.0265 5.23504C13.0633 5.23733 13.0848 5.23274 13.126 5.23505C13.2565 5.23735 13.3672 5.23275 13.4932 5.23504C13.53 5.23734 13.5515 5.23274 13.5926 5.23505C13.7231 5.23735 13.8338 5.23275 13.9599 5.23504C13.9967 5.23734 14.0181 5.23274 14.0595 5.23505C14.2055 5.23736 14.3316 5.23275 14.473 5.23504C14.5099 5.23733 14.5313 5.23274 14.5725 5.23505C14.703 5.23735 14.8137 5.23275 14.9398 5.23504C14.9766 5.23734 14.998 5.23274 15.0392 5.23505C15.1696 5.23735 15.2803 5.23275 15.4064 5.23504C15.4432 5.23734 15.4646 5.23274 15.5058 5.23505C15.6362 5.23735 15.747 5.23275 15.873 5.23504C15.9098 5.23734 15.9313 5.23274 15.9727 5.23505C16.1187 5.23736 16.2448 5.23275 16.3862 5.23504C16.423 5.23734 16.4445 5.23274 16.4857 5.23505C16.6161 5.23735 16.7269 5.23274 16.8529 5.23504C16.8897 5.23734 16.9112 5.23274 16.9523 5.23505C17.0828 5.23735 17.1935 5.23275 17.3195 5.23504C17.3563 5.23734 17.3778 5.23274 17.4189 5.23505C17.5494 5.23735 17.6601 5.23275 17.7862 5.23504C17.823 5.23734 17.8444 5.23274 17.8858 5.23505C18.0318 5.23736 18.1579 5.23275 18.2993 5.23504C18.3362 5.23733 18.3576 5.23274 18.3988 5.23505C18.5293 5.23735 18.64 5.23275 18.7661 5.23504C18.8029 5.23734 18.8243 5.23274 18.8655 5.23505C18.9959 5.23735 19.1066 5.23275 19.2327 5.23504C19.2695 5.23734 19.2909 5.23274 19.3321 5.23505C19.4625 5.23735 19.5732 5.23275 19.6993 5.23504C19.7361 5.23734 19.7575 5.23274 19.799 5.23505C19.945 5.23736 20.0711 5.23275 20.2125 5.23504C20.2493 5.23733 20.2708 5.23274 20.312 5.23505C20.4424 5.23735 20.5531 5.23275 20.6791 5.23504C20.7159 5.23734 20.7374 5.23274 20.7786 5.23505C20.909 5.23735 21.0198 5.23275 21.1458 5.23504C21.1826 5.23734 21.2041 5.23274 21.2451 5.23505C21.3758 5.24244 21.4869 5.24292 21.5979 5.24339C21.9261 5.36764 21.9961 5.47931 21.9961 5.88612C21.9963 8.76337 21.9961 11.6406 21.996 14.5179C21.996 15.8173 22.0015 17.1167 21.9907 18.4161C21.9888 18.6509 21.9197 18.8851 21.8811 19.1375Z" fill="#C3C3C3"/>
<path d="M21.717 2.4769C21.9826 2.8499 22.0127 3.27506 21.9964 3.7119C21.9898 3.88871 21.9941 4.06593 21.9638 4.26387C15.7163 4.28478 9.49827 4.28434 3.28026 4.28518C2.21569 4.28533 1.15111 4.2909 0.0721738 4.2887C0.0389918 4.27561 0.0201745 4.26777 0.00729968 4.24248C0.00882819 4.1519 0.00441415 4.07876 0 4.00562C0.00517553 3.22134 0.00782128 2.43704 0.0173388 1.65282C0.0196633 1.46128 0.0445146 1.27002 0.0702451 1.04494C0.09784 0.954806 0.114198 0.898358 0.142152 0.831291C0.201113 0.737784 0.248479 0.654896 0.307789 0.563353C0.412991 0.460793 0.506248 0.366887 0.613535 0.26907C0.68257 0.22628 0.737574 0.1874 0.809207 0.147392C0.93731 0.104954 1.04879 0.0636441 1.18105 0.0231105C1.31219 0.0147931 1.42255 0.00569924 1.5484 0.00040795C1.58484 0.00166664 1.60579 -0.00087714 1.64717 0.000341112C1.77824 0.00159492 1.88889 -0.000913282 2.01502 0.000393412C2.05145 0.0016646 2.07241 -0.000879003 2.11406 0.000341201C2.26078 0.0015958 2.3868 -0.000913396 2.5283 0.000392881C2.56474 0.00166481 2.58569 -0.000878331 2.62708 0.000340758C2.75815 0.00159494 2.86879 -0.000913278 2.99492 0.000393324C3.03136 0.00166493 3.05231 -0.000878331 3.0937 0.000340758C3.22477 0.00159494 3.33542 -0.000913278 3.46154 0.000393324C3.49798 0.00166484 3.51893 -0.000878424 3.56032 0.000340758C3.69139 0.00159494 3.80204 -0.000913282 3.92817 0.000393412C3.9646 0.00166469 3.98556 -0.00087891 4.02721 0.000341201C4.17393 0.0015958 4.29995 -0.000913298 4.44145 0.000392792C4.47789 0.00166482 4.49884 -0.000878331 4.54022 0.000340758C4.6713 0.00159494 4.78194 -0.000913282 4.90807 0.000393412C4.94451 0.00166502 4.96546 -0.000878238 5.00684 0.000340758C5.13792 0.00159494 5.24856 -0.000913282 5.37469 0.000393412C5.41112 0.00166539 5.43208 -0.000877639 5.47346 0.000341821C5.6046 0.00255069 5.71531 0.000996925 5.84318 0.00417764C6.00044 0.0562939 6.14052 0.103676 6.28596 0.162941C6.30715 0.180718 6.32299 0.186613 6.34609 0.20632C6.48619 0.35133 6.61903 0.482529 6.75331 0.624553C6.759 0.651195 6.76917 0.660711 6.79157 0.679173C6.97024 0.948482 7.14263 1.20254 7.31653 1.46953C7.33493 1.50139 7.35182 1.52034 7.37138 1.55492C7.50662 1.70952 7.561 1.95512 7.85351 1.90781C8.00026 1.90898 8.12628 1.90663 8.26779 1.90787C8.3042 1.90907 8.32513 1.90667 8.36652 1.9078C8.49763 1.90898 8.60828 1.90663 8.73441 1.90787C8.77082 1.90907 8.79175 1.90667 8.83315 1.9078C8.96426 1.90898 9.0749 1.90663 9.20103 1.90787C9.23745 1.90907 9.25837 1.90667 9.29977 1.9078C9.43088 1.90898 9.54152 1.90663 9.66765 1.90787C9.70407 1.90907 9.72499 1.90667 9.76666 1.90781C9.91341 1.90898 10.0394 1.90663 10.1809 1.90787C10.2174 1.90907 10.2383 1.90667 10.2797 1.9078C10.4108 1.90897 10.5214 1.90661 10.6476 1.90783C10.684 1.90867 10.7049 1.90593 10.7463 1.90644C10.8775 1.90715 10.9881 1.9046 11.1141 1.90587C11.1506 1.90715 11.1715 1.9046 11.2129 1.90582C11.344 1.90708 11.4546 1.90457 11.5808 1.90587C11.6172 1.90715 11.6381 1.9046 11.6795 1.90582C11.8106 1.90708 11.9213 1.90457 12.0474 1.90587C12.0838 1.90714 12.1048 1.9046 12.1464 1.90582C12.2931 1.90708 12.4192 1.90457 12.5607 1.90587C12.5971 1.90714 12.6181 1.9046 12.6594 1.90582C12.7905 1.90707 12.9012 1.90457 13.0273 1.90587C13.0637 1.90714 13.0847 1.9046 13.1261 1.90582C13.2571 1.90707 13.3678 1.90457 13.4939 1.90587C13.5303 1.90714 13.5513 1.9046 13.5927 1.90582C13.7238 1.90708 13.8344 1.90457 13.9605 1.90587C13.997 1.90714 14.0179 1.9046 14.0596 1.90582C14.2063 1.90708 14.3323 1.90457 14.4738 1.90587C14.5102 1.90714 14.5312 1.9046 14.5726 1.90582C14.7037 1.90707 14.8143 1.90457 14.9404 1.90587C14.9769 1.90715 14.9978 1.9046 15.0392 1.90582C15.1703 1.90707 15.2809 1.90457 15.4071 1.90587C15.4435 1.90715 15.4644 1.9046 15.5058 1.90582C15.6369 1.90708 15.7475 1.90457 15.8737 1.90587C15.9101 1.90714 15.9311 1.9046 15.9727 1.90582C16.1194 1.90708 16.2455 1.90457 16.387 1.90587C16.4234 1.90715 16.4443 1.9046 16.4857 1.90582C16.6168 1.90707 16.7275 1.90457 16.8536 1.90587C16.89 1.90714 16.911 1.9046 16.9524 1.90582C17.0834 1.90707 17.1941 1.90457 17.3202 1.90587C17.3566 1.90714 17.3776 1.9046 17.419 1.90582C17.55 1.90707 17.6607 1.90457 17.7868 1.90587C17.8233 1.90714 17.8442 1.9046 17.8859 1.90582C18.0326 1.90708 18.1586 1.90457 18.3001 1.90587C18.3365 1.90714 18.3575 1.9046 18.3989 1.90582C18.53 1.90707 18.6406 1.90457 18.7667 1.90587C18.8032 1.90714 18.8241 1.9046 18.8655 1.90582C18.9966 1.90707 19.1072 1.90457 19.2333 1.90587C19.2698 1.90714 19.2907 1.9046 19.3321 1.90582C19.4632 1.90707 19.5738 1.90457 19.7 1.90587C19.7364 1.90715 19.7574 1.9046 19.799 1.90582C19.9457 1.90708 20.0717 1.90457 20.2133 1.90587C20.2497 1.90715 20.2706 1.9046 20.312 1.90582C20.4431 1.90792 20.5538 1.90626 20.6823 1.90907C20.8482 1.94901 20.9963 1.98449 21.1565 2.03224C21.3416 2.174 21.5145 2.30348 21.6879 2.44277C21.6927 2.46682 21.7022 2.47494 21.717 2.4769Z" fill="#C3C3C3"/>
</svg>
