<svg width="24" height="24" viewBox="0 0 24 24" fill="none" xmlns="http://www.w3.org/2000/svg">
<path d="M21.1744 15.3003C21.1884 15.2681 21.2001 15.235 21.2094 15.2012C21.9305 13.1267 21.9302 10.8695 21.2084 8.79516C21.1994 8.76295 21.1883 8.73138 21.1751 8.70066C20.4941 6.81361 19.2484 5.18207 17.6075 4.02784C15.9666 2.87361 14.0101 2.2527 12.0039 2.24953L12 2.24609L11.9961 2.24953C9.99007 2.2527 8.03371 2.87349 6.39291 4.02751C4.75211 5.18153 3.50646 6.81281 2.82527 8.6996C2.81165 8.7311 2.80023 8.76351 2.79108 8.79659C2.06922 10.8721 2.06965 13.1307 2.79231 15.206C2.80103 15.2369 2.81174 15.2672 2.82436 15.2967C3.50514 17.1841 4.75074 18.8161 6.39174 19.9706C8.03274 21.1251 9.98952 21.7462 11.996 21.7494L12 21.753L12.004 21.7494C14.0098 21.7462 15.966 21.1255 17.6067 19.9717C19.2474 18.8179 20.4931 17.1868 21.1744 15.3003ZM12 4.2706C13.0886 5.3986 13.9067 6.75912 14.3927 8.24949H9.60727C10.0933 6.75912 10.9114 5.3986 12 4.2706ZM9.60731 15.7495H14.3927C13.9067 17.2398 13.0886 18.6004 12 19.7284C10.9114 18.6004 10.0933 17.2398 9.60731 15.7495ZM9.21464 14.2495C8.92845 12.7631 8.92845 11.2358 9.21464 9.74948H14.7854C15.0715 11.2358 15.0715 12.7631 14.7854 14.2495H9.21464ZM16.3152 9.74948H19.9381C20.354 11.2207 20.354 12.7783 19.9381 14.2495H16.3152C16.5616 12.7596 16.5616 11.2394 16.3152 9.74948ZM19.3474 8.24948H15.9757C15.5267 6.66904 14.7565 5.1982 13.7133 3.92889C14.914 4.18619 16.0425 4.70735 17.0169 5.45463C17.9914 6.2019 18.7874 7.15657 19.3474 8.24948H19.3474ZM13.7132 20.0701C14.7564 18.8008 15.5266 17.3299 15.9757 15.7495H19.3474C18.7874 16.8424 17.9914 17.7971 17.0169 18.5444C16.0425 19.2916 14.914 19.8128 13.7132 20.0701Z" fill="#353432"/>
</svg>
