<svg width="24" height="24" viewBox="0 0 24 24" fill="none" xmlns="http://www.w3.org/2000/svg">
<g clip-path="url(#clip0_3588_87408)">
<path d="M1 23.5C0.724142 23.5 0.5 23.2759 0.5 23V18C0.5 17.7241 0.724142 17.5 1 17.5H23C23.2759 17.5 23.5 17.7241 23.5 18V23C23.5 23.2759 23.2759 23.5 23 23.5H1Z" stroke="#808080"/>
<path d="M1 0.5H23C23.2759 0.5 23.5 0.724142 23.5 1V6C23.5 6.27586 23.2759 6.5 23 6.5H1C0.724142 6.5 0.5 6.27586 0.5 6V1C0.5 0.724142 0.724142 0.5 1 0.5Z" stroke="#808080"/>
<path d="M23 15H1C0.724142 15 0.5 14.7759 0.5 14.5V9.5C0.5 9.22414 0.724142 9 1 9H23C23.2759 9 23.5 9.22414 23.5 9.5V14.5C23.5 14.7759 23.2759 15 23 15Z" stroke="#808080"/>
</g>
<defs>
<clipPath id="clip0_3588_87408">
<rect width="24" height="24" fill="white"/>
</clipPath>
</defs>
</svg>
