<svg width="24" height="24" viewBox="0 0 24 24" fill="none" xmlns="http://www.w3.org/2000/svg">
<g clip-path="url(#clip0_965_7971)">
<path d="M0 23C0 23.552 0.448 24 1 24H23C23.552 24 24 23.552 24 23V18C24 17.448 23.552 17 23 17H1C0.448 17 0 17.448 0 18V23Z" fill="black"/>
<path d="M23 0H1C0.448 0 0 0.448 0 1V6C0 6.552 0.448 7 1 7H23C23.552 7 24 6.552 24 6V1C24 0.448 23.552 0 23 0Z" fill="black"/>
<path d="M1 15.5H23C23.552 15.5 24 15.052 24 14.5V9.5C24 8.948 23.552 8.5 23 8.5H1C0.448 8.5 0 8.948 0 9.5V14.5C0 15.052 0.448 15.5 1 15.5Z" fill="black"/>
</g>
<defs>
<clipPath id="clip0_965_7971">
<rect width="24" height="24" fill="white"/>
</clipPath>
</defs>
</svg>
