<svg width="151" height="170" viewBox="0 0 151 170" fill="none" xmlns="http://www.w3.org/2000/svg">
<path d="M0.0108151 160.257C0.00438505 107.853 0.000925348 55.6908 6.54202e-08 3.52862C-6.01903e-05 0.117249 0.0407257 0.0458388 3.36226 0.0437049C27.6989 0.0280711 52.0356 0.0413913 76.3723 1.34682e-05C78.2014 -0.00309583 79.5726 0.531923 80.8837 1.85003C95.5856 16.6309 110.331 31.3687 125.091 46.0917C126.291 47.2882 127.028 48.4812 127.02 50.2949C126.953 65.1859 126.984 80.0773 126.964 94.9686C126.963 95.6858 127.224 96.4974 126.185 97.4692C123.737 93.3449 119.137 90.942 119.383 85.0402C119.783 75.4413 119.432 65.813 119.534 56.1985C119.558 53.9592 118.851 53.2598 116.617 53.2744C103.428 53.361 90.238 53.3244 77.0485 53.3189C73.6798 53.3175 73.6542 53.2797 73.6529 49.8814C73.648 36.8621 73.5968 23.8425 73.6903 10.8239C73.7071 8.48217 72.9992 7.76607 70.6457 7.77515C50.564 7.85261 30.4818 7.84167 10.4 7.77217C8.23015 7.76466 7.44858 8.32369 7.45158 10.6306C7.51268 57.6872 7.51801 104.744 7.44119 151.8C7.43699 154.374 8.47801 154.686 10.6217 154.683C39.9788 154.632 69.3361 154.64 98.6932 154.67C99.8895 154.671 101.654 154.016 102.15 155.448C102.837 157.428 102.728 159.648 102.158 161.715C101.965 162.418 101.036 162.377 100.363 162.388C98.7468 162.415 97.1298 162.402 95.5131 162.402C64.7944 162.405 34.0757 162.414 3.35706 162.387C1.98 162.385 0.0369584 163.046 0.0108151 160.257ZM81.434 27.3541C81.4318 32.5414 81.5126 37.7307 81.3881 42.9151C81.3357 45.0956 81.9716 45.8942 84.2655 45.8645C93.278 45.748 102.293 45.8221 111.307 45.8053C111.954 45.8041 112.66 46.0147 112.871 45.8401C102.369 35.3878 91.8497 24.9182 81.4341 14.5519C81.4341 18.3642 81.4341 22.6039 81.434 27.3541Z" fill="#414141"/>
<path d="M108.287 117.357C112.2 112.742 116.022 108.29 119.771 103.777C120.849 102.481 121.673 102.035 122.966 103.564C132.134 114.408 141.351 125.21 150.543 136.033C150.753 136.281 150.854 136.62 151 136.906C150.429 137.963 149.472 137.573 148.7 137.581C144.703 137.62 140.703 137.683 136.71 137.557C134.708 137.494 134.038 138.172 134.056 140.182C134.137 148.941 134.038 157.702 134.121 166.461C134.14 168.505 133.586 169.318 131.409 169.28C124.777 169.164 118.141 169.172 111.509 169.279C109.335 169.314 108.756 168.459 108.775 166.423C108.853 158.004 108.808 149.584 108.806 141.164C108.805 137.61 108.802 137.607 105.12 137.604C100.8 137.601 96.4805 137.604 92.1605 137.604C91.9987 137.37 91.837 137.136 91.6752 136.902C97.173 130.434 102.671 123.965 108.287 117.357ZM116.534 145.345C116.463 149.934 116.465 154.526 116.287 159.111C116.209 161.109 116.872 161.933 118.898 161.775C120.42 161.656 121.972 161.618 123.485 161.782C125.996 162.053 126.688 160.992 126.656 158.585C126.543 149.997 126.671 141.407 126.577 132.819C126.554 130.677 127.308 129.92 129.386 130.08C131.04 130.207 132.711 130.106 134.374 130.106C134.477 129.885 134.581 129.665 134.684 129.444C130.362 124.183 126.039 118.923 121.438 113.322C116.865 118.911 112.55 124.184 107.707 130.101C110.327 130.101 112.163 130.188 113.988 130.077C115.892 129.961 116.58 130.807 116.559 132.617C116.51 136.693 116.537 140.77 116.534 145.345Z" fill="#414141"/>
</svg>
