<svg xmlns="http://www.w3.org/2000/svg" width="20" height="11" viewBox="0 0 20 11" fill="none">
    <path d="M13.0715 6.36591C9.16297 6.36554 5.30196 6.36659 1.44095 6.36344C0.745289 6.36287 0.466452 6.06538 0.503188 5.39674C0.527819 4.94842 0.756306 4.70441 1.14899 4.64051C1.30402 4.61529 1.46485 4.63061 1.62305 4.6306C6.35437 4.63051 11.0857 4.63081 15.817 4.63105C15.9889 4.63106 16.1609 4.63105 16.3655 4.63105C16.3431 4.37639 16.1811 4.27513 16.0686 4.14989C15.4485 3.45928 14.8111 2.78676 14.1997 2.08712C13.7151 1.53251 13.8339 0.819803 14.4244 0.564664C14.765 0.41751 15.0559 0.533669 15.2928 0.79018C16.652 2.26191 18.001 3.74478 19.3588 5.21806C19.545 5.42014 19.5487 5.57333 19.3598 5.77815C18.0124 7.23835 16.6765 8.71119 15.3261 10.168C14.9291 10.5962 14.4913 10.6012 14.1463 10.2349C13.8018 9.86928 13.8074 9.34446 14.1968 8.90182C14.7666 8.25422 15.3574 7.62869 15.9374 6.99177C16.0682 6.84814 16.1914 6.69632 16.3181 6.54826C16.3089 6.48748 16.2997 6.42669 16.2905 6.3659C15.2333 6.3659 14.1761 6.3659 13.0715 6.36591Z" fill="white"/>
</svg>
