<svg width="102" height="102" viewBox="0 0 102 102" fill="none" xmlns="http://www.w3.org/2000/svg">
<path d="M82.875 41.4375C82.875 70.125 51 92.4375 51 92.4375C51 92.4375 19.125 70.125 19.125 41.4375C19.125 32.9837 22.4832 24.8762 28.461 18.8985C34.4387 12.9207 42.5462 9.5625 51 9.5625C59.4538 9.5625 67.5613 12.9207 73.539 18.8985C79.5168 24.8762 82.875 32.9837 82.875 41.4375V41.4375Z" fill="#232F6A" stroke="#232F6A" stroke-width="2" stroke-linecap="round" stroke-linejoin="round"/>
<path d="M51 54.1875C58.0416 54.1875 63.75 48.4791 63.75 41.4375C63.75 34.3959 58.0416 28.6875 51 28.6875C43.9584 28.6875 38.25 34.3959 38.25 41.4375C38.25 48.4791 43.9584 54.1875 51 54.1875Z" fill="white" stroke="white" stroke-width="2" stroke-linecap="round" stroke-linejoin="round"/>
</svg>
