<svg width="16" height="14" viewBox="0 0 16 14" fill="none" xmlns="http://www.w3.org/2000/svg">
<path d="M3.71077 1.00349C6.88597 1.00349 10.0442 1.00349 13.2002 1.00349C13.5454 0.979288 13.8875 1.08165 14.1627 1.29142C14.4379 1.5012 14.6272 1.80403 14.6953 2.14327C14.7184 2.27259 14.7279 2.40395 14.7238 2.53524C14.7238 4.75022 14.7238 6.965 14.7238 9.17961C14.7411 9.38621 14.713 9.59408 14.6416 9.78871C14.5701 9.98333 14.457 10.16 14.3102 10.3064C14.1634 10.4527 13.9864 10.5652 13.7915 10.636C13.5967 10.7069 13.3887 10.7342 13.1822 10.7163C11.1679 10.7189 9.15386 10.7178 7.13998 10.713C7.0742 10.7041 7.00737 10.7184 6.95101 10.7535C6.89464 10.7886 6.85228 10.8422 6.83122 10.9052C6.57098 11.5214 6.13604 12.0479 5.58008 12.4198C5.02411 12.7917 4.37143 12.9927 3.70256 12.9981C3.53285 13.0068 3.37409 12.9931 3.31278 12.8043C3.25147 12.6154 3.37355 12.5147 3.51424 12.421C3.78695 12.2401 3.99708 11.9793 4.11585 11.6743C4.23462 11.3693 4.25624 11.0351 4.17775 10.7174C3.81041 10.7174 3.43815 10.7229 3.06643 10.7174C2.7279 10.731 2.39561 10.6235 2.12929 10.414C1.86296 10.2046 1.68008 9.90707 1.6135 9.57487C1.59171 9.45241 1.58273 9.32802 1.58668 9.2037C1.58668 6.97486 1.58668 4.7462 1.58668 2.51773C1.57319 2.31659 1.60268 2.11488 1.67319 1.92603C1.7437 1.73717 1.8536 1.56549 1.9956 1.4224C2.13761 1.27931 2.30844 1.1681 2.49676 1.09615C2.68507 1.0242 2.88654 0.993176 3.08778 1.00513C3.28869 1.00239 3.48906 1.00349 3.71077 1.00349Z" stroke="#232F6A" stroke-width="1.5"/>
</svg>
