<svg width="30" height="30" viewBox="0 0 30 30" fill="none" xmlns="http://www.w3.org/2000/svg">
<path d="M13.1328 0.0259304C13.0467 0.0382271 12.7328 0.0812702 12.4251 0.118162C11.6744 0.210396 10.1728 0.597775 9.34817 0.911367C4.94811 2.58386 1.61883 6.28548 0.424963 10.8295C0.0495731 12.2745 0.000341551 12.6926 0.000341551 14.5004C-0.00581239 16.3204 0.0680349 16.88 0.480349 18.3742C1.56344 22.3094 4.29579 25.6298 7.97584 27.4806C10.0374 28.5198 12.1421 29.0117 14.4867 29.0117C16.8744 29.0117 18.9175 28.526 21.0099 27.4684C23.8099 26.0541 26.0253 23.8528 27.4346 21.0858C28.5054 18.9768 29.01 16.8738 29.01 14.5004C29.01 12.1269 28.5054 10.024 27.4346 7.91493C25.9946 5.08645 23.7238 2.86056 20.856 1.45862C19.4591 0.776093 18.2837 0.401011 16.7637 0.13661C16.2098 0.0443764 13.5205 -0.041708 13.1328 0.0259304ZM13.8713 4.44697V7.55215H13.6067C12.8313 7.55215 10.9851 7.34924 9.85279 7.14632C9.21278 7.0295 9.22509 7.12788 9.66818 6.01493C10.3513 4.2748 11.3174 2.84826 12.339 2.06736C12.8128 1.69842 13.4959 1.34794 13.7359 1.34179H13.8713V4.44697ZM15.8652 1.58159C17.2067 2.23338 18.4437 3.82593 19.3052 6.01493C19.7299 7.07869 19.7237 7.03564 19.3668 7.11558C18.5052 7.2939 16.179 7.55215 15.3606 7.55215H15.1021V4.44697V1.34179H15.2375C15.3113 1.34179 15.5944 1.45247 15.8652 1.58159ZM10.7328 1.81525C10.7328 1.83985 10.6405 1.95668 10.5236 2.07965C9.76048 2.86671 8.78201 4.64988 8.23431 6.23014C8.142 6.50069 8.062 6.7282 8.05584 6.73435C8.01277 6.80814 5.57581 5.935 5.0158 5.646L4.75733 5.51687L4.89887 5.35085C4.97888 5.25862 5.22503 5.01881 5.44042 4.80975C6.8189 3.51849 8.24046 2.65765 10.0866 1.98127C10.6836 1.75991 10.7328 1.74761 10.7328 1.81525ZM19.1022 2.06121C20.813 2.68839 22.3699 3.67836 23.7053 4.98807C24.1607 5.43694 24.2038 5.49843 24.1115 5.56606C23.8099 5.78742 20.9914 6.83273 20.9237 6.74665C20.9176 6.73435 20.8314 6.50069 20.7391 6.23014C20.1914 4.64988 19.2129 2.86671 18.4498 2.07965C18.0868 1.70457 18.1175 1.69842 19.1022 2.06121ZM5.90197 7.37998C6.30813 7.5337 6.86813 7.71817 7.15122 7.79811C7.50814 7.90264 7.65584 7.97027 7.65584 8.04406C7.65584 8.09325 7.58815 8.44374 7.50199 8.81267C7.26814 9.83338 7.05275 11.4075 6.97275 12.7172L6.89275 13.8855H4.08656C2.54192 13.8855 1.2619 13.8732 1.24959 13.8547C1.18805 13.7994 1.32959 12.6004 1.47113 11.8748C1.82191 10.1347 2.70192 8.1117 3.66193 6.83273L3.90194 6.51299L4.52964 6.80814C4.88041 6.97416 5.49581 7.22626 5.90197 7.37998ZM25.3115 6.83888C26.2961 8.17319 27.1515 10.1285 27.5023 11.8748C27.6438 12.6004 27.7854 13.7994 27.7238 13.8547C27.7115 13.8732 26.4315 13.8855 24.8869 13.8855H22.0807L22.0068 12.791C21.9145 11.389 21.7853 10.3929 21.5514 9.24309C21.2622 7.85345 21.176 8.03791 22.333 7.64438C23.2868 7.32464 24.5669 6.79584 24.8438 6.59908C24.9176 6.54988 24.9976 6.50684 25.0222 6.50684C25.0469 6.50684 25.1761 6.65442 25.3115 6.83888ZM9.9451 8.44374C10.979 8.62206 12.5174 8.78193 13.2005 8.78193C13.459 8.78193 13.7175 8.80037 13.7729 8.81882C13.859 8.84956 13.8713 9.13241 13.8713 11.3706V13.8855H11.0405H8.20969V13.3321C8.20969 11.9056 8.76355 8.29002 8.98509 8.29002C9.02817 8.29002 9.45894 8.35765 9.9451 8.44374ZM20.2037 8.9172C20.5299 10.4298 20.7637 12.2929 20.7637 13.3321V13.8855H17.9329H15.1021V11.3645V8.84341L15.2436 8.81882C15.3175 8.80037 15.7544 8.77578 16.216 8.75733C17.0591 8.72044 18.6837 8.53597 19.4099 8.3884C20.1053 8.24697 20.0499 8.20393 20.2037 8.9172ZM6.97275 16.2836C7.05891 17.6117 7.26199 19.0936 7.50814 20.2065C7.60661 20.6493 7.64968 20.9813 7.61892 21.012C7.58815 21.0366 7.27429 21.1535 6.91737 21.2641C6.06197 21.5285 5.29888 21.8298 4.5481 22.1988L3.93271 22.5001L3.7604 22.2971C3.46501 21.9528 2.88038 20.9628 2.49269 20.1573C2.04345 19.2289 1.68037 18.1405 1.47113 17.1259C1.32959 16.4004 1.18805 15.2013 1.24959 15.146C1.2619 15.1276 2.54192 15.1153 4.08656 15.1153H6.89275L6.97275 16.2836ZM13.8713 17.6363V20.1573L13.7359 20.1819C13.6559 20.2004 13.219 20.225 12.7636 20.2434C11.8282 20.2803 10.7451 20.4033 9.66818 20.5939C9.26817 20.6677 8.9297 20.7107 8.9174 20.6984C8.90509 20.6861 8.81278 20.268 8.70201 19.7638C8.45585 18.5525 8.27123 17.1382 8.22816 16.0191L8.19123 15.1153H11.0282H13.8713V17.6363ZM20.7453 16.0191C20.7022 17.1382 20.5176 18.5525 20.2714 19.7638C20.1606 20.268 20.0683 20.6861 20.056 20.6984C20.0437 20.7107 19.6868 20.6615 19.2622 20.5939C18.0991 20.391 17.1329 20.2803 16.2098 20.2434C15.7544 20.225 15.3175 20.2004 15.2436 20.1819L15.1021 20.1573V17.6363V15.1153H17.9452H20.7822L20.7453 16.0191ZM27.7238 15.4842C27.6807 16.4004 27.3792 17.8577 27.0284 18.8661C26.6715 19.8929 25.9023 21.3625 25.3115 22.1619L25.0715 22.4878L24.4438 22.1926C23.7115 21.8483 22.5607 21.4117 21.8222 21.1965C21.2253 21.0243 21.256 21.1965 21.5514 19.7577C21.7853 18.6078 21.9145 17.6117 22.0068 16.2036L22.0807 15.1153L24.9115 15.1276L27.7423 15.146L27.7238 15.4842ZM13.8713 24.5538C13.8713 28.1263 13.9452 27.8065 13.2067 27.4745C11.8344 26.8473 10.542 25.2179 9.66818 22.9858C9.24355 21.9159 9.24355 21.9651 9.63741 21.8852C10.2159 21.7683 11.1144 21.6392 11.8405 21.5716C12.8744 21.4793 12.9975 21.4732 13.459 21.4609L13.8713 21.4486V24.5538ZM16.4621 21.5162C17.3668 21.5839 18.2898 21.7007 19.1206 21.8544C19.7606 21.9713 19.7483 21.8729 19.3052 22.9858C18.4314 25.2179 17.1391 26.8473 15.7667 27.4745C15.0283 27.8065 15.1021 28.1263 15.1021 24.5538V21.4486H15.3667C15.5144 21.4486 16.0067 21.4793 16.4621 21.5162ZM8.22816 22.7583C8.77586 24.3447 9.76048 26.134 10.5359 26.9334C10.659 27.0625 10.739 27.1794 10.7205 27.1978C10.702 27.2162 10.4497 27.1486 10.1543 27.0441C8.67739 26.5214 7.39737 25.8082 6.16659 24.8243C5.65581 24.4185 4.75733 23.5331 4.79426 23.4777C4.87426 23.3425 7.71122 22.2603 7.99431 22.248C8.03123 22.248 8.13585 22.4755 8.22816 22.7583ZM21.5637 22.4386C22.173 22.6169 23.2068 23.0043 23.773 23.2687L24.2345 23.4839L23.8038 23.9143C22.7022 25.0334 21.3176 25.9926 19.9083 26.6137C19.2191 26.915 18.296 27.2408 18.2529 27.1978C18.2345 27.1794 18.3145 27.0625 18.4375 26.9334C19.2068 26.1402 20.2099 24.3201 20.7453 22.7583C20.8745 22.3832 20.9422 22.2541 21.0099 22.2787C21.0591 22.291 21.3114 22.3648 21.5637 22.4386Z" fill="#808080"/>
</svg>
