<svg width="22" height="21" viewBox="0 0 22 21" fill="none" xmlns="http://www.w3.org/2000/svg">
<path d="M3.66602 13.2503C4.21602 13.2503 4.58268 12.8837 4.58268 12.3337V4.08366H12.8327C13.3827 4.08366 13.7493 3.71699 13.7493 3.16699C13.7493 2.61699 13.3827 2.25033 12.8327 2.25033H3.66602C3.11602 2.25033 2.74935 2.61699 2.74935 3.16699V12.3337C2.74935 12.8837 3.11602 13.2503 3.66602 13.2503ZM18.3327 0.416992C16.7744 0.416992 15.5827 1.60866 15.5827 3.16699C15.5827 4.72533 16.7744 5.91699 18.3327 5.91699C19.891 5.91699 21.0827 4.72533 21.0827 3.16699C21.0827 1.60866 19.891 0.416992 18.3327 0.416992ZM18.3327 4.08366C17.7827 4.08366 17.416 3.71699 17.416 3.16699C17.416 2.61699 17.7827 2.25033 18.3327 2.25033C18.8827 2.25033 19.2494 2.61699 19.2494 3.16699C19.2494 3.71699 18.8827 4.08366 18.3327 4.08366ZM3.66602 15.0837C2.10768 15.0837 0.916016 16.2753 0.916016 17.8337C0.916016 19.392 2.10768 20.5837 3.66602 20.5837C5.22435 20.5837 6.41602 19.392 6.41602 17.8337C6.41602 16.2753 5.22435 15.0837 3.66602 15.0837ZM3.66602 18.7503C3.11602 18.7503 2.74935 18.3837 2.74935 17.8337C2.74935 17.2837 3.11602 16.917 3.66602 16.917C4.21602 16.917 4.58268 17.2837 4.58268 17.8337C4.58268 18.3837 4.21602 18.7503 3.66602 18.7503ZM18.3327 7.75033C17.7827 7.75033 17.416 8.11699 17.416 8.66699V16.917H9.16602C8.61602 16.917 8.24935 17.2837 8.24935 17.8337C8.24935 18.3837 8.61602 18.7503 9.16602 18.7503H18.3327C18.8827 18.7503 19.2494 18.3837 19.2494 17.8337V8.66699C19.2494 8.11699 18.8827 7.75033 18.3327 7.75033Z" fill="#232F6A"/>
</svg>
