<svg width="22" height="22" viewBox="0 0 22 22" fill="none" xmlns="http://www.w3.org/2000/svg">
<path d="M9.10219 0.427925C9.00068 0.502186 8.92623 0.805984 8.72998 1.95366L8.48635 3.39164L7.85021 3.65493C7.49831 3.80345 7.13287 3.95198 7.03812 3.99248C6.8757 4.05999 6.76743 3.99923 5.71847 3.24311C4.85901 2.62877 4.52064 2.42624 4.36499 2.42624C4.18904 2.42624 4.00632 2.58151 3.12655 3.45915C2.3483 4.23552 2.0979 4.52582 2.0979 4.65409C2.0979 4.7621 2.39567 5.24143 2.88292 5.93679C3.31604 6.55113 3.68148 7.09122 3.70178 7.13172C3.72208 7.17898 3.66794 7.36126 3.57997 7.53679C3.49876 7.70556 3.34988 8.06337 3.25513 8.32666L3.07918 8.79923L1.63095 9.04227C0.47372 9.23805 0.169186 9.31231 0.094744 9.41358C0.0203023 9.51485 0 9.8659 0 11.0001C0 12.33 0.0135349 12.4718 0.121814 12.5731C0.203023 12.6473 0.730882 12.7756 1.65802 12.9376L3.07241 13.1942L3.22129 13.5992C3.29574 13.822 3.44462 14.1731 3.53936 14.3824C3.64087 14.5916 3.72208 14.7807 3.72208 14.8009C3.72208 14.8279 3.35664 15.3545 2.90999 15.9756C2.30092 16.8262 2.0979 17.157 2.0979 17.3123C2.0979 17.4878 2.25355 17.6701 3.14009 18.5545C4.07399 19.4862 4.20257 19.5874 4.37176 19.5604C4.48004 19.5469 5.08234 19.1689 5.71171 18.73C6.76743 17.9874 6.86217 17.9334 7.03135 18.0077C7.1261 18.0482 7.49831 18.1967 7.85021 18.3452L8.48635 18.6085L8.72998 20.0465C8.92623 21.1942 9.00068 21.498 9.10219 21.5722C9.2037 21.6465 9.5556 21.6667 10.6925 21.6667C12.046 21.6667 12.1678 21.66 12.2761 21.5385C12.3573 21.4507 12.4724 20.9579 12.6416 19.9857L12.8919 18.5613L13.2303 18.4465C13.4198 18.3857 13.7852 18.244 14.0424 18.1224L14.5229 17.9064L15.7004 18.7368C16.4516 19.2701 16.9456 19.5739 17.0539 19.5739C17.1825 19.5739 17.4735 19.3309 18.2585 18.541C19.1247 17.6769 19.2872 17.4811 19.2872 17.3123C19.2872 17.1638 19.0706 16.8127 18.4412 15.9419L17.5953 14.7739L17.7916 14.3891C17.8998 14.1798 18.0487 13.822 18.1299 13.5992L18.2788 13.1942L19.7067 12.9444C20.6745 12.7756 21.1685 12.6608 21.2565 12.5798C21.3783 12.4718 21.3851 12.3503 21.3851 10.9866C21.3851 9.64987 21.3715 9.50134 21.2633 9.39333C21.1685 9.29881 20.7895 9.21105 19.7541 9.04227C18.9962 8.92075 18.3397 8.78573 18.2991 8.74523C18.2585 8.70472 18.1705 8.51569 18.1029 8.33341C18.0352 8.14438 17.8931 7.82033 17.7848 7.61105L17.5953 7.21949L18.4412 6.02455C18.9826 5.25493 19.2872 4.7621 19.2872 4.65409C19.2872 4.52582 19.0435 4.23552 18.2517 3.4524C17.3855 2.58826 17.1893 2.42624 17.0201 2.42624C16.8712 2.42624 16.5396 2.62877 15.7343 3.20936C15.1387 3.64143 14.6109 4.00599 14.5635 4.02624C14.5161 4.04649 14.2319 3.95873 13.9206 3.82371C13.6161 3.69544 13.2574 3.55366 13.1288 3.51316L12.8852 3.4389L12.6416 2.01442C12.4724 1.04902 12.3506 0.542692 12.2761 0.461679C12.1678 0.346912 12.0392 0.33341 10.6925 0.33341C9.5556 0.33341 9.2037 0.353662 9.10219 0.427925ZM11.4369 7.83383C11.9648 7.95535 12.5806 8.29966 12.9867 8.71147C14.259 9.99417 14.259 12.006 12.9935 13.2819C11.7212 14.5579 9.68419 14.5646 8.40514 13.2819C6.63884 11.5199 7.44417 8.52244 9.86014 7.86084C10.2594 7.75282 11.0241 7.73932 11.4369 7.83383Z" fill="#414141"/>
</svg>
