<svg width="31" height="27" viewBox="0 0 31 27" fill="none" xmlns="http://www.w3.org/2000/svg">
<path d="M11.0497 0.0398216C8.30959 0.375004 6.5881 1.88931 6.16518 4.32537C6.06391 4.9239 6.04604 6.39033 6.13539 7.07865C6.17113 7.33602 6.26644 7.89865 6.34983 8.3296L6.50471 9.1077L6.34983 9.34113C6.12348 9.67032 6.05796 9.99354 6.0937 10.5382C6.15326 11.4659 6.52854 12.28 6.97529 12.4715L7.21951 12.5792L7.3863 13.2436C7.57691 14.0097 7.99984 14.8836 8.35724 15.2786L8.58955 15.536L8.54785 16.5954C8.5002 17.8045 8.48233 17.8524 7.97601 18.3132C7.60074 18.6544 6.80254 19.0614 5.39081 19.636C3.38936 20.45 2.55542 20.8989 1.6917 21.6291C1.00668 22.2037 0.405055 23.1435 0.125091 24.0592C0.0238268 24.3884 0 24.6218 0 25.2683V26.0703H12.1517H24.3033V25.783C24.3033 24.975 23.9936 23.724 23.6421 23.0896L23.4694 22.7783H26.8647H30.26V22.0122C30.26 21.1563 30.1945 20.8451 29.8669 20.1986C29.5214 19.5043 28.8483 18.7681 28.1513 18.3192C27.6391 17.996 26.8051 17.595 25.6912 17.1461C24.351 16.6134 23.797 16.3201 23.4753 15.9909C23.1596 15.6677 23.1179 15.4821 23.112 14.5245C23.112 13.7883 23.112 13.7823 23.2907 13.5848C23.5468 13.2915 23.9221 12.4715 24.065 11.8849C24.1842 11.4061 24.208 11.3642 24.4105 11.2565C24.8215 11.035 25.1551 10.1911 25.1492 9.38303C25.1492 9.08974 25.1075 8.92813 24.9824 8.68273L24.8215 8.35952L24.9466 7.89266C25.1551 7.12055 25.2683 6.27062 25.2683 5.45062C25.2683 4.49296 25.1551 3.88843 24.8394 3.23004C24.4641 2.44595 23.7374 1.84741 22.8856 1.61997C22.7188 1.57807 22.4686 1.44639 22.3257 1.33267C21.599 0.746098 20.634 0.518654 19.3473 0.638361C18.2811 0.740112 17.3816 1.02741 16.7026 1.49427L16.4822 1.64391L16.2082 1.50624C16.0592 1.42843 15.7733 1.31471 15.5768 1.25486C15.3266 1.17705 15.124 1.06332 14.9036 0.865807C14.2901 0.309164 13.48 0.0458069 12.2708 0.00390816C11.8598 -0.00806236 11.3118 0.00989342 11.0497 0.0398216ZM13.4026 1.39851C13.8493 1.54216 14.1352 1.73967 14.3258 2.02099C14.445 2.19456 14.5105 2.23048 14.85 2.29033C15.6423 2.42201 16.226 2.82902 16.5775 3.48741C17.1672 4.59471 17.1434 6.59383 16.506 8.7785L16.2796 9.55062L16.5 9.67631C16.7681 9.82594 16.8574 9.99952 16.8574 10.3467C16.8574 10.6938 16.7026 11.2624 16.5536 11.4719C16.4583 11.6096 16.3869 11.6455 16.2141 11.6455C16.095 11.6455 15.9639 11.6694 15.9282 11.6934C15.8925 11.7173 15.821 11.9986 15.7674 12.3219C15.5946 13.3454 15.0704 14.4706 14.6296 14.7579L14.4033 14.9075L14.4271 16.4099L14.4509 17.9182L14.6416 18.3073C14.7488 18.5287 14.9811 18.8459 15.1657 19.0375C15.7733 19.654 16.4047 20.0011 18.3287 20.7673C20.2289 21.5154 21.0629 21.9943 21.8372 22.7604C22.0815 22.9998 22.3316 23.317 22.4389 23.5265C22.6354 23.9096 22.8737 24.5799 22.8737 24.7655C22.8737 24.8672 22.5103 24.8732 12.0563 24.8732C1.78701 24.8732 1.24495 24.8672 1.26878 24.7655C1.54278 23.7599 1.80488 23.2572 2.32311 22.7364C3.01409 22.0421 3.93142 21.5274 5.89713 20.7433C8.27385 19.7916 9.01843 19.3008 9.53071 18.3492L9.73919 17.9601L9.75706 16.4278L9.78089 14.8956L9.56645 14.7699C9.04822 14.4646 8.34533 12.8366 8.33937 11.9388C8.33937 11.6934 8.27385 11.6455 7.95814 11.6455C7.64244 11.6455 7.45778 11.3462 7.32673 10.64C7.23738 10.1372 7.31482 9.89777 7.63052 9.68828C7.7854 9.58653 7.85688 9.50273 7.83305 9.4369C7.82114 9.38303 7.7437 9.05981 7.66031 8.71266C6.83233 5.12142 7.36247 2.7931 9.23287 1.80551C10.0251 1.38654 10.8471 1.23092 12.0921 1.25486C12.8367 1.26683 13.0928 1.29675 13.4026 1.39851ZM20.8365 1.91924C21.3488 2.03894 21.6466 2.20654 21.8015 2.45194C21.8968 2.61354 21.9802 2.6734 22.147 2.69734C23.243 2.88288 23.7493 3.38566 23.9816 4.52288C24.1603 5.42069 23.9757 7.12653 23.5647 8.3296L23.4217 8.76054L23.6838 8.94609C23.928 9.11368 23.9459 9.1496 23.9459 9.38901C23.9459 9.71222 23.8089 10.1791 23.6719 10.3347C23.6064 10.4065 23.4932 10.4484 23.3443 10.4484C23.1179 10.4484 23.1179 10.4484 23.0822 10.7297C23.0047 11.3343 22.8499 11.849 22.5818 12.3817C22.3674 12.8127 22.2542 12.9683 22.0755 13.082L21.8432 13.2316L21.8789 14.5245C21.9087 15.7814 21.9147 15.8353 22.0695 16.1405C22.3853 16.763 23.0822 17.3496 23.9995 17.7626C24.214 17.8583 24.7977 18.1037 25.2862 18.3013C27.7105 19.2889 28.5385 19.9473 28.9078 21.2042L29.0031 21.5214H25.6674H22.3257L22.0815 21.3179C21.4858 20.8271 20.6042 20.3782 18.704 19.5941C17.0778 18.9237 16.5477 18.6424 16.1069 18.1995C15.8627 17.9541 15.7316 17.7746 15.7078 17.6369C15.684 17.5292 15.6661 16.9905 15.6661 16.4518V15.4642L15.8388 15.2966C16.1903 14.9375 16.7621 13.6147 16.8872 12.8546C16.923 12.6391 16.9647 12.5852 17.1434 12.4894C17.2685 12.4236 17.4233 12.3099 17.4948 12.2321C17.8284 11.873 18.156 10.7118 18.0845 10.1252C18.0667 9.95762 17.9713 9.65835 17.8701 9.45485L17.6854 9.09573L17.8343 8.52113C18.2037 7.09062 18.3287 5.46259 18.1441 4.41515C18.0369 3.79267 17.7748 3.05646 17.5365 2.70931C17.4531 2.58361 17.3935 2.46989 17.4055 2.45792C17.465 2.40405 18.0547 2.13471 18.2513 2.06887C18.9661 1.83544 20.1813 1.76362 20.8365 1.91924Z" fill="#808080"/>
</svg>
