<svg width="24" height="24" viewBox="0 0 24 24" fill="none" xmlns="http://www.w3.org/2000/svg">
<path d="M0.357143 0.357277L0 0.700134V5.71442V10.7287L0.357143 11.0716L0.7 11.4287H5.71429H10.7286L11.0714 11.0716L11.4286 10.7287V5.71442V0.700134L11.0714 0.357277L10.7286 0.000134468H5.71429H0.7L0.357143 0.357277ZM10.2857 5.71442V10.2859H5.71429H1.14286V5.71442V1.14299H5.71429H10.2857V5.71442Z" fill="#808080"/>
<path d="M1.85713 1.92844C1.48571 2.38558 2.04285 3.08558 2.54285 2.7713C3.02856 2.45701 2.85713 1.71416 2.28571 1.71416C2.14285 1.71416 1.95713 1.81416 1.85713 1.92844Z" fill="#808080"/>
<path d="M5.28572 1.92844C4.91429 2.38558 5.47144 3.08558 5.97144 2.7713C6.45715 2.45701 6.28572 1.71416 5.71429 1.71416C5.57144 1.71416 5.38572 1.81416 5.28572 1.92844Z" fill="#808080"/>
<path d="M8.71431 1.92844C8.34288 2.38558 8.90003 3.08558 9.40003 2.7713C9.88574 2.45701 9.71431 1.71416 9.14288 1.71416C9.00003 1.71416 8.81431 1.81416 8.71431 1.92844Z" fill="#808080"/>
<path d="M3.57149 3.6428C3.20006 4.09994 3.7572 4.79994 4.2572 4.48565C4.74292 4.17137 4.57149 3.42851 4.00006 3.42851C3.8572 3.42851 3.67149 3.52851 3.57149 3.6428Z" fill="#808080"/>
<path d="M6.99996 3.6428C6.62853 4.09994 7.18567 4.79994 7.68567 4.48565C8.17139 4.17137 7.99996 3.42851 7.42853 3.42851C7.28567 3.42851 7.09996 3.52851 6.99996 3.6428Z" fill="#808080"/>
<path d="M1.85713 5.35715C1.48571 5.8143 2.04285 6.5143 2.54285 6.20001C3.02856 5.88572 2.85713 5.14287 2.28571 5.14287C2.14285 5.14287 1.95713 5.24287 1.85713 5.35715Z" fill="#808080"/>
<path d="M5.28572 5.35715C4.91429 5.8143 5.47144 6.5143 5.97144 6.20001C6.45715 5.88572 6.28572 5.14287 5.71429 5.14287C5.57144 5.14287 5.38572 5.24287 5.28572 5.35715Z" fill="#808080"/>
<path d="M8.71431 5.35715C8.34288 5.8143 8.90003 6.5143 9.40003 6.20001C9.88574 5.88572 9.71431 5.14287 9.14288 5.14287C9.00003 5.14287 8.81431 5.24287 8.71431 5.35715Z" fill="#808080"/>
<path d="M3.57149 7.07126C3.20006 7.52841 3.7572 8.22841 4.2572 7.91412C4.74292 7.59984 4.57149 6.85698 4.00006 6.85698C3.8572 6.85698 3.67149 6.95698 3.57149 7.07126Z" fill="#808080"/>
<path d="M6.99996 7.07126C6.62853 7.52841 7.18567 8.22841 7.68567 7.91412C8.17139 7.59984 7.99996 6.85698 7.42853 6.85698C7.28567 6.85698 7.09996 6.95698 6.99996 7.07126Z" fill="#808080"/>
<path d="M1.85713 8.78562C1.48571 9.24276 2.04285 9.94276 2.54285 9.62848C3.02856 9.31419 2.85713 8.57133 2.28571 8.57133C2.14285 8.57133 1.95713 8.67133 1.85713 8.78562Z" fill="#808080"/>
<path d="M5.28572 8.78562C4.91429 9.24276 5.47144 9.94276 5.97144 9.62848C6.45715 9.31419 6.28572 8.57133 5.71429 8.57133C5.57144 8.57133 5.38572 8.67133 5.28572 8.78562Z" fill="#808080"/>
<path d="M8.71431 8.78562C8.34288 9.24276 8.90003 9.94276 9.40003 9.62848C9.88574 9.31419 9.71431 8.57133 9.14288 8.57133C9.00003 8.57133 8.81431 8.67133 8.71431 8.78562Z" fill="#808080"/>
<path d="M12.9286 0.357277L12.5714 0.700134V5.71442V10.7287L12.9286 11.0716L13.2714 11.4287H18.2857H23.3L23.6428 11.0716L24 10.7287V5.71442V0.700134L23.6428 0.357277L23.3 0.000134468H18.2857H13.2714L12.9286 0.357277ZM22.8571 5.71442V10.2859H18.2857H13.7143V5.71442V1.14299H18.2857H22.8571V5.71442Z" fill="#808080"/>
<path d="M0.357143 12.9286L0 13.2714V18.2857V23.3L0.357143 23.6429L0.7 24H5.71429H10.7286L11.0714 23.6429L11.4286 23.3V18.2857V13.2714L11.0714 12.9286L10.7286 12.5714H5.71429H0.7L0.357143 12.9286ZM10.2857 18.2857V22.8571H5.71429H1.14286V18.2857V13.7143H5.71429H10.2857V18.2857Z" fill="#808080"/>
<path d="M2.78577 14.4142C2.14291 14.7 1.78577 15.2714 1.78577 16.0143C1.78577 16.6143 1.8572 16.7714 2.2572 17.1714C2.6572 17.5714 2.81434 17.6428 3.42862 17.6428C4.04291 17.6428 4.20005 17.5714 4.60005 17.1714C5.00005 16.7714 5.07148 16.6143 5.07148 16C5.07148 15.4 5.00005 15.2285 4.62862 14.8428C4.1572 14.3714 3.31434 14.1857 2.78577 14.4142ZM3.8572 15.6428C4.22862 16.1 3.67148 16.8 3.18577 16.4857C2.68577 16.1714 2.8572 15.4285 3.42862 15.4285C3.57148 15.4285 3.7572 15.5285 3.8572 15.6428Z" fill="#808080"/>
<path d="M7.35718 14.4142C6.71432 14.7 6.35718 15.2714 6.35718 16.0143C6.35718 16.6143 6.42861 16.7714 6.82861 17.1714C7.22861 17.5714 7.38575 17.6428 8.00004 17.6428C8.61432 17.6428 8.77146 17.5714 9.17146 17.1714C9.57146 16.7714 9.64289 16.6143 9.64289 16C9.64289 15.4 9.57146 15.2285 9.20004 14.8428C8.72861 14.3714 7.88575 14.1857 7.35718 14.4142ZM8.42861 15.6428C8.80004 16.1 8.24289 16.8 7.75718 16.4857C7.25718 16.1714 7.42861 15.4285 8.00004 15.4285C8.14289 15.4285 8.32861 15.5285 8.42861 15.6428Z" fill="#808080"/>
<path d="M2.78577 18.9858C2.14291 19.2715 1.78577 19.8429 1.78577 20.5858C1.78577 21.1858 1.8572 21.3429 2.2572 21.7429C2.6572 22.1429 2.81434 22.2144 3.42862 22.2144C4.04291 22.2144 4.20005 22.1429 4.60005 21.7429C5.00005 21.3429 5.07148 21.1858 5.07148 20.5715C5.07148 19.9715 5.00005 19.8001 4.62862 19.4144C4.1572 18.9429 3.31434 18.7572 2.78577 18.9858ZM3.8572 20.2144C4.22862 20.6715 3.67148 21.3715 3.18577 21.0572C2.8572 20.8572 2.78577 20.4715 3.00005 20.2144C3.22862 19.9429 3.62862 19.9429 3.8572 20.2144Z" fill="#808080"/>
<path d="M7.35718 18.9858C6.71432 19.2715 6.35718 19.8429 6.35718 20.5858C6.35718 21.1858 6.42861 21.3429 6.82861 21.7429C7.22861 22.1429 7.38575 22.2144 8.00004 22.2144C8.61432 22.2144 8.77146 22.1429 9.17146 21.7429C9.57146 21.3429 9.64289 21.1858 9.64289 20.5715C9.64289 19.9715 9.57146 19.8001 9.20004 19.4144C8.72861 18.9429 7.88575 18.7572 7.35718 18.9858ZM8.42861 20.2144C8.64289 20.4715 8.57146 20.8572 8.25718 21.0572C7.75718 21.3715 7.20004 20.6715 7.57146 20.2144C7.80004 19.9429 8.20004 19.9429 8.42861 20.2144Z" fill="#808080"/>
<path d="M12.9286 12.9286L12.5714 13.2714V18.2857V23.3L12.9286 23.6429L13.2714 24H18.2857H23.3L23.6428 23.6429L24 23.3V18.2857V13.2714L23.6428 12.9286L23.3 12.5714H18.2857H13.2714L12.9286 12.9286ZM15.1428 13.7571C15.1428 13.7714 14.8286 14.1143 14.4286 14.5L13.7143 15.2V14.4571V13.7143H14.4286C14.8286 13.7143 15.1428 13.7286 15.1428 13.7571ZM16.2143 16.1429L13.7857 18.5714L13.7428 17.6857L13.7 16.8L15.2428 15.2571L16.7857 13.7143H17.7143H18.6428L16.2143 16.1429ZM17.9286 17.8571L13.7857 22L13.7428 21.1143L13.7 20.2286L16.9571 16.9714L20.2143 13.7143H21.1428H22.0714L17.9286 17.8571ZM19.6143 19.6L16.3571 22.8571H15.4286H14.5L18.6428 18.7143L22.7857 14.5714L22.8286 15.4571L22.8714 16.3429L19.6143 19.6ZM21.3286 21.3143L19.7857 22.8571H18.8571H17.9286L20.3571 20.4286L22.7857 18L22.8286 18.8857L22.8714 19.7714L21.3286 21.3143ZM22.8571 22.1429V22.8571H22.1143H21.3714L22.0714 22.1429C22.4571 21.7429 22.8 21.4286 22.8143 21.4286C22.8428 21.4286 22.8571 21.7429 22.8571 22.1429Z" fill="#808080"/>
</svg>
