<svg width="24" height="24" viewBox="0 0 24 24" fill="none" xmlns="http://www.w3.org/2000/svg">
<path d="M22.7941 8.54386e-05C23.9401 0.0144256 23.999 0.069439 23.9992 1.12787C24.0002 8.38178 24.0003 15.6357 23.9991 22.8896C23.9989 23.8964 23.9003 23.9995 22.9042 23.9997C15.6503 24.0019 8.39637 24.0019 1.14246 23.9997C0.111446 23.9994 0.00153961 23.8874 0.00129433 22.8504C-0.000420796 15.5728 -0.000490178 8.29514 0.00143978 1.01753C0.0016808 0.105835 0.106828 0.00180216 1.0348 0.00151989C8.26498 -0.000679255 15.4952 0.000186881 22.7941 8.54386e-05ZM11.6435 22.7644C15.0566 22.7641 18.4699 22.7481 21.8827 22.7769C22.5574 22.7826 22.7801 22.5922 22.7769 21.8979C22.752 16.4228 22.752 10.9475 22.7782 5.47239C22.7814 4.79538 22.5552 4.64016 21.9194 4.64206C15.3065 4.6618 8.69352 4.66193 2.08064 4.64225C1.43541 4.64032 1.21997 4.82002 1.22281 5.48537C1.24623 10.9842 1.24596 16.4832 1.22272 21.9821C1.22 22.6256 1.43824 22.7804 2.04406 22.7756C5.19627 22.7506 8.34878 22.7642 11.6435 22.7644ZM13.6353 1.23932C9.7728 1.23932 5.91018 1.2503 2.04776 1.228C1.43747 1.22447 1.14856 1.39534 1.23336 2.03082C1.252 2.1705 1.23569 2.31481 1.23592 2.45699C1.23745 3.41191 1.23749 3.41371 2.22374 3.41383C8.62182 3.41467 15.0199 3.41701 21.418 3.41316C22.8937 3.41228 22.7196 3.57288 22.7786 2.09022C22.8069 1.38007 22.5461 1.21665 21.8817 1.22474C19.1807 1.25759 16.479 1.23896 13.6353 1.23932Z" fill="#808080"/>
<path d="M15.8405 9.77438C11.8834 9.77373 7.99746 9.77395 4.11153 9.77175C2.89207 9.77106 2.84593 9.72086 2.84437 8.47096C2.8439 8.09185 2.84298 7.71272 2.84501 7.33362C2.85025 6.35597 2.93702 6.26148 3.89512 6.26069C7.5678 6.25765 11.2405 6.25901 14.9132 6.25889C16.6666 6.25884 18.42 6.25547 20.1734 6.26091C21.0368 6.26359 21.1455 6.38005 21.1532 7.26031C21.1576 7.75786 21.1573 8.25551 21.1532 8.75306C21.1459 9.63862 21.0198 9.76581 20.1055 9.77016C18.7076 9.77683 17.3096 9.77344 15.8405 9.77438ZM6.66407 7.49806C5.97674 7.49859 5.28938 7.50324 4.6021 7.49794C4.25036 7.49522 4.08526 7.64515 4.07981 8.00856C4.07449 8.36281 4.20087 8.53205 4.57268 8.53176C9.52616 8.52786 14.4797 8.5292 19.4331 8.53166C19.8092 8.53185 19.9118 8.32678 19.9181 7.9875C19.9288 7.41461 19.5246 7.49855 19.1782 7.49839C15.0542 7.49649 10.9302 7.49774 6.66407 7.49806Z" fill="#808080"/>
<path d="M11.4796 14.5599C11.4796 16.312 11.4827 17.9929 11.4784 19.6738C11.4757 20.7711 11.0902 21.1521 9.97406 21.1548C8.08009 21.1594 6.18609 21.16 4.29214 21.1531C3.25238 21.1493 2.84874 20.7373 2.84659 19.6782C2.84156 17.1924 2.84123 14.7065 2.84724 12.2207C2.84959 11.2443 3.25959 10.8198 4.21397 10.8155C6.17893 10.8064 8.14399 10.8062 10.1089 10.8155C11.0704 10.8201 11.4686 11.237 11.4778 12.216C11.4849 12.9736 11.4794 13.7312 11.4796 14.5599ZM4.10931 12.3236C4.10026 14.6457 4.10247 16.9679 4.07358 19.2897C4.06706 19.8138 4.2959 19.9278 4.75972 19.9228C6.34746 19.9056 7.93584 19.8974 9.52323 19.9265C10.0943 19.9369 10.2572 19.7184 10.2516 19.1746C10.2299 17.0418 10.2277 14.9085 10.2536 12.7758C10.2604 12.2151 10.0752 12.0314 9.51705 12.0419C7.95339 12.0714 6.38879 12.0501 4.82458 12.0539C4.59389 12.0545 4.34333 12.0015 4.10931 12.3236Z" fill="#808080"/>
<path d="M13.382 10.851C15.5738 10.8277 17.7053 10.8105 19.8366 10.8183C20.7057 10.8215 21.1475 11.2732 21.1505 12.1381C21.1595 14.6962 21.1592 17.2543 21.1508 19.8124C21.1478 20.727 20.7194 21.147 19.7906 21.1517C17.8247 21.1616 15.8588 21.1618 13.8929 21.1546C12.961 21.1512 12.5265 20.7343 12.5233 19.8255C12.5144 17.2675 12.5277 14.7094 12.5161 12.1513C12.5133 11.534 12.747 11.1033 13.382 10.851ZM14.8008 12.0527C13.7564 12.0571 13.7562 12.0571 13.7561 13.1094C13.7561 15.1468 13.7696 17.1843 13.7473 19.2214C13.7416 19.7406 13.9023 19.9351 14.4362 19.9264C16.023 19.9005 17.6107 19.9047 19.1978 19.9246C19.6951 19.9308 19.9312 19.7995 19.9257 19.2483C19.9042 17.069 19.9027 14.8891 19.9276 12.7099C19.934 12.1499 19.6948 12.0358 19.2011 12.0437C17.78 12.0663 16.3583 12.0523 14.8008 12.0527Z" fill="#808080"/>
</svg>
