<svg width="24" height="25" viewBox="0 0 24 25" fill="none" xmlns="http://www.w3.org/2000/svg">
<g id="Visualisation">
<g id="Group">
<path id="Vector" d="M16.9915 3.6567C16.6279 3.69115 16.4327 3.74856 16.0729 3.9208C15.495 4.20021 15.0663 4.63655 14.7907 5.23748C14.5917 5.66616 14.5419 5.89964 14.5457 6.38957C14.5496 7.0326 14.7103 7.5187 15.0816 8.01245C15.1964 8.16555 15.2462 8.26124 15.2232 8.29569C15.2079 8.32248 14.4692 9.22961 13.5889 10.3052L11.9851 12.2649H9.71921H7.4533L7.39206 12.0046C7.25809 11.4611 6.87917 10.8563 6.45431 10.5233C6.18255 10.3052 5.70411 10.064 5.37494 9.97981C5.04194 9.8956 4.40274 9.8956 4.07357 9.98364C3.08224 10.2401 2.28994 11.04 2.06028 12.0161C1.97991 12.3605 1.97991 12.9347 2.06028 13.2792C2.46218 14.9977 4.42571 15.8972 5.98735 15.0781C6.68779 14.7068 7.20834 14.0447 7.39206 13.2868L7.4533 13.0304H9.71538H11.9775L13.5506 15.1202L15.1275 17.2062L14.9936 17.4053C14.6835 17.8607 14.5496 18.3086 14.5457 18.9057C14.5419 19.3841 14.5917 19.6252 14.7754 20.0271C15.1352 20.8194 15.8318 21.3974 16.6471 21.5849C17.3399 21.7457 18.1743 21.6041 18.7446 21.229C19.5445 20.7046 19.9962 19.8778 20 18.9439C20 18.4693 19.9273 18.121 19.7282 17.7191C19.4488 17.1412 19.0087 16.7125 18.4116 16.4369C17.9905 16.2417 17.7532 16.1881 17.2786 16.1881C16.7313 16.1881 16.2681 16.3144 15.8548 16.5747C15.7706 16.6283 15.6978 16.6665 15.694 16.6589C15.6864 16.6512 15.0204 15.7671 14.2127 14.6953C13.4013 13.6198 12.7238 12.7203 12.7085 12.6935C12.6932 12.6667 13.2712 11.928 14.2395 10.7453C15.0931 9.69657 15.8165 8.81623 15.8395 8.78944C15.8777 8.75117 15.9313 8.76265 16.115 8.85451C16.4863 9.03823 16.7849 9.1033 17.2786 9.1033C17.7685 9.10713 18.0862 9.03058 18.5187 8.81241C19.2192 8.46027 19.7627 7.76366 19.9388 7.00581C20.0191 6.6575 20.0191 6.06806 19.9388 5.73123C19.6172 4.41073 18.3656 3.52656 16.9915 3.6567Z" fill="#414141"/>
</g>
</g>
</svg>
