<svg width="504" height="408" viewBox="0 0 504 408" fill="none" xmlns="http://www.w3.org/2000/svg">
<g clip-path="url(#clip0_4261_99959)">
<path d="M396.817 317.596C396.763 317.504 396.693 317.424 396.608 317.36C396.524 317.296 396.428 317.25 396.325 317.224C396.223 317.197 396.116 317.191 396.011 317.206C395.906 317.221 395.806 317.257 395.715 317.311L393.036 318.888L391.458 316.21C391.349 316.027 391.172 315.894 390.966 315.842C390.812 315.802 390.65 315.809 390.499 315.862C390.349 315.915 390.218 316.011 390.123 316.138C390.028 316.265 389.972 316.418 389.964 316.577C389.955 316.735 389.994 316.893 390.075 317.03L391.649 319.708L388.97 321.284C388.878 321.338 388.798 321.409 388.735 321.493C388.671 321.578 388.624 321.674 388.598 321.776C388.547 321.982 388.578 322.199 388.685 322.382C388.738 322.474 388.809 322.554 388.894 322.618C388.978 322.681 389.074 322.728 389.177 322.754C389.279 322.781 389.386 322.787 389.491 322.772C389.595 322.757 389.696 322.721 389.787 322.667L392.466 321.09L394.04 323.768C394.126 323.911 394.253 324.024 394.406 324.092C394.558 324.16 394.727 324.179 394.891 324.146C394.98 324.129 395.065 324.097 395.142 324.049C395.233 323.996 395.312 323.925 395.375 323.841C395.439 323.757 395.485 323.661 395.511 323.559C395.537 323.457 395.543 323.351 395.528 323.246C395.513 323.142 395.477 323.042 395.423 322.951L393.849 320.273L396.529 318.7C396.62 318.647 396.7 318.576 396.764 318.491C396.828 318.406 396.875 318.31 396.902 318.208C396.929 318.105 396.935 317.998 396.92 317.893C396.906 317.788 396.87 317.687 396.817 317.596Z" fill="#DEDEDE"/>
<path d="M403.581 335.245C402.888 335.245 402.211 335.039 401.635 334.655C401.059 334.27 400.61 333.723 400.345 333.083C400.08 332.444 400.01 331.74 400.145 331.06C400.281 330.381 400.614 329.757 401.104 329.268C401.594 328.778 402.218 328.445 402.898 328.309C403.577 328.174 404.282 328.244 404.922 328.509C405.562 328.774 406.109 329.222 406.494 329.798C406.879 330.374 407.084 331.051 407.084 331.744C407.083 332.672 406.714 333.562 406.057 334.218C405.4 334.875 404.51 335.244 403.581 335.245ZM403.581 330.117C403.258 330.117 402.943 330.212 402.675 330.392C402.406 330.571 402.197 330.826 402.074 331.124C401.951 331.422 401.919 331.75 401.982 332.066C402.045 332.382 402.201 332.673 402.429 332.901C402.658 333.129 402.948 333.284 403.265 333.346C403.582 333.409 403.91 333.376 404.208 333.252C404.506 333.128 404.76 332.919 404.939 332.65C405.118 332.382 405.213 332.066 405.212 331.744C405.211 331.312 405.039 330.898 404.733 330.593C404.427 330.288 404.013 330.117 403.581 330.117Z" fill="#DEDEDE"/>
<path d="M49.8463 386.62C49.1533 386.62 48.4757 386.416 47.8992 386.031C47.3226 385.647 46.8731 385.1 46.6075 384.461C46.3418 383.821 46.272 383.117 46.4067 382.437C46.5415 381.758 46.8749 381.134 47.3647 380.644C47.8545 380.154 48.4787 379.82 49.1583 379.685C49.8379 379.549 50.5424 379.619 51.1827 379.883C51.823 380.148 52.3703 380.597 52.7554 381.173C53.1405 381.749 53.346 382.426 53.346 383.119C53.3451 384.046 52.9762 384.936 52.3202 385.592C51.6641 386.248 50.7745 386.618 49.8463 386.62ZM49.8463 381.492C49.5236 381.492 49.2081 381.587 48.9398 381.767C48.6715 381.946 48.4625 382.201 48.3391 382.499C48.2158 382.797 48.1837 383.125 48.2469 383.441C48.3101 383.757 48.4658 384.048 48.6942 384.276C48.9226 384.504 49.2135 384.659 49.5301 384.721C49.8467 384.784 50.1748 384.751 50.4727 384.627C50.7707 384.503 51.0252 384.294 51.204 384.025C51.3828 383.757 51.4779 383.441 51.4772 383.119C51.4764 382.687 51.3041 382.273 50.9984 381.968C50.6926 381.663 50.2783 381.492 49.8463 381.492Z" fill="#DEDEDE"/>
<path d="M437.675 10.1901C436.982 10.1901 436.305 9.98468 435.728 9.5998C435.152 9.21493 434.703 8.6679 434.438 8.02792C434.173 7.38795 434.104 6.68378 434.239 6.0045C434.375 5.32522 434.709 4.70136 435.199 4.21183C435.689 3.72229 436.314 3.38909 436.994 3.25437C437.673 3.11965 438.378 3.18946 439.018 3.45498C439.658 3.7205 440.205 4.1698 440.589 4.74602C440.974 5.32225 441.179 5.99952 441.178 6.69215C441.177 7.62018 440.808 8.5099 440.151 9.1658C439.494 9.8217 438.603 10.1901 437.675 10.1901ZM437.675 5.062C437.352 5.062 437.037 5.15761 436.769 5.33673C436.501 5.51586 436.292 5.77046 436.168 6.06833C436.045 6.3662 436.012 6.69396 436.075 7.01018C436.138 7.32639 436.294 7.61686 436.522 7.84484C436.75 8.07282 437.04 8.22809 437.357 8.29098C437.673 8.35388 438.001 8.32161 438.299 8.19823C438.597 8.07485 438.852 7.8659 439.031 7.59782C439.21 7.32974 439.306 7.01457 439.306 6.69215C439.302 6.26183 439.129 5.85028 438.824 5.54692C438.518 5.24357 438.105 5.07292 437.675 5.07205V5.062Z" fill="#DEDEDE"/>
<path d="M497.626 98.853C497.434 98.9468 497.287 99.113 497.217 99.3149C497.183 99.4146 497.169 99.5201 497.176 99.6252C497.183 99.7304 497.21 99.8331 497.257 99.9275L498.614 102.712L495.827 104.068C495.646 104.167 495.51 104.332 495.448 104.529C495.385 104.726 495.401 104.939 495.491 105.124C495.582 105.31 495.74 105.453 495.934 105.525C496.127 105.597 496.341 105.592 496.531 105.511L499.317 104.172L500.673 106.957C500.767 107.149 500.933 107.296 501.135 107.365C501.235 107.4 501.341 107.415 501.446 107.408C501.551 107.401 501.654 107.373 501.748 107.325C501.843 107.279 501.928 107.215 501.998 107.137C502.068 107.058 502.122 106.966 502.157 106.867C502.191 106.767 502.206 106.662 502.2 106.557C502.193 106.452 502.166 106.349 502.12 106.254L500.781 103.469L503.563 102.13C503.658 102.084 503.744 102.019 503.814 101.941C503.884 101.862 503.938 101.77 503.972 101.67C504.007 101.57 504.021 101.464 504.015 101.359C504.008 101.254 503.981 101.151 503.935 101.056C503.889 100.961 503.825 100.876 503.746 100.806C503.667 100.736 503.575 100.682 503.475 100.647C503.375 100.613 503.269 100.598 503.164 100.605C503.058 100.611 502.955 100.638 502.86 100.684L500.074 102.023L498.717 99.2413C498.673 99.143 498.608 99.0548 498.529 98.9817C498.449 98.9087 498.356 98.8524 498.254 98.8162C498.152 98.78 498.044 98.7646 497.936 98.7709C497.828 98.7772 497.723 98.8052 497.626 98.853Z" fill="#DEDEDE"/>
<path d="M447.027 165.471C446.334 165.471 445.656 165.266 445.08 164.881C444.504 164.497 444.055 163.95 443.79 163.31C443.525 162.67 443.456 161.966 443.591 161.287C443.726 160.608 444.06 159.984 444.549 159.494C445.039 159.005 445.664 158.671 446.343 158.536C447.023 158.401 447.727 158.47 448.367 158.735C449.007 159 449.554 159.449 449.939 160.025C450.324 160.601 450.53 161.278 450.53 161.97C450.529 162.898 450.159 163.788 449.503 164.445C448.846 165.101 447.955 165.47 447.027 165.471ZM447.027 160.34C446.704 160.34 446.389 160.436 446.12 160.615C445.852 160.794 445.643 161.048 445.52 161.346C445.396 161.644 445.364 161.972 445.427 162.288C445.49 162.604 445.645 162.895 445.873 163.123C446.101 163.351 446.392 163.506 446.708 163.569C447.025 163.632 447.353 163.6 447.651 163.476C447.949 163.353 448.203 163.144 448.383 162.876C448.562 162.608 448.657 162.292 448.657 161.97C448.657 161.538 448.484 161.124 448.179 160.818C447.873 160.513 447.459 160.341 447.027 160.34Z" fill="#DEDEDE"/>
<path d="M0.426935 214.273C0.273219 214.42 0.183262 214.621 0.176372 214.833C0.169482 215.045 0.246215 215.252 0.390101 215.408L2.51005 217.667L0.252821 219.786C0.171292 219.857 0.104896 219.944 0.0576115 220.041C0.0103264 220.138 -0.0168897 220.244 -0.0223937 220.351C-0.0278977 220.459 -0.011594 220.567 0.0255603 220.669C0.0627147 220.77 0.119939 220.863 0.193829 220.942C0.267719 221.021 0.356746 221.084 0.455593 221.127C0.55444 221.171 0.661107 221.194 0.769155 221.196C0.877202 221.197 0.984409 221.177 1.08443 221.136C1.18446 221.095 1.27521 221.035 1.35127 220.958L3.61185 218.839L5.7318 221.098C5.8036 221.175 5.89004 221.237 5.98609 221.28C6.08213 221.323 6.18581 221.347 6.29106 221.349C6.50377 221.356 6.7107 221.279 6.86713 221.135C6.94452 221.063 7.00688 220.976 7.05064 220.88C7.0944 220.784 7.11868 220.68 7.1221 220.574C7.12553 220.468 7.10803 220.363 7.07059 220.264C7.03315 220.165 6.97653 220.074 6.90396 219.997L4.78401 217.741L7.04459 215.622C7.16543 215.508 7.248 215.359 7.28097 215.196C7.31394 215.033 7.29573 214.864 7.2288 214.712C7.1925 214.628 7.14269 214.551 7.08143 214.484C6.93465 214.329 6.73243 214.239 6.51902 214.232C6.30561 214.226 6.09843 214.304 5.94279 214.451L3.68556 216.566L1.56561 214.31C1.49339 214.233 1.40661 214.17 1.31022 214.127C1.21383 214.083 1.10974 214.059 1.00394 214.055C0.898135 214.052 0.792703 214.069 0.693687 214.107C0.594671 214.144 0.504005 214.201 0.426935 214.273Z" fill="#DEDEDE"/>
<path d="M34.94 252.76C34.247 252.761 33.5694 252.556 32.9929 252.172C32.4164 251.788 31.9669 251.241 31.7012 250.601C31.4356 249.962 31.3657 249.258 31.5005 248.578C31.6353 247.899 31.9687 247.275 32.4584 246.785C32.9482 246.295 33.5724 245.961 34.252 245.825C34.9316 245.69 35.6362 245.759 36.2765 246.024C36.9168 246.289 37.4641 246.738 37.8492 247.314C38.2342 247.889 38.4397 248.566 38.4397 249.259C38.4388 250.187 38.07 251.076 37.4139 251.733C36.7579 252.389 35.8682 252.759 34.94 252.76ZM34.94 247.629C34.6173 247.628 34.3016 247.723 34.033 247.902C33.7643 248.081 33.5548 248.335 33.4308 248.633C33.3068 248.931 33.2741 249.259 33.3366 249.575C33.3992 249.892 33.5543 250.182 33.7822 250.411C34.0102 250.639 34.3008 250.795 34.6173 250.858C34.9337 250.921 35.2618 250.889 35.56 250.765C35.8582 250.642 36.1132 250.433 36.2925 250.165C36.4719 249.897 36.5676 249.582 36.5676 249.259C36.5668 248.828 36.3951 248.414 36.0901 248.109C35.7852 247.803 35.3717 247.631 34.94 247.629Z" fill="#DEDEDE"/>
<path d="M95.237 362.787C95.0556 362.781 94.8834 362.706 94.7555 362.577C94.6276 362.449 94.5535 362.276 94.5484 362.095C94.5432 361.913 94.6074 361.737 94.7279 361.601C94.8484 361.466 95.0161 361.381 95.1968 361.365C97.5411 361.234 99.9256 361 102.27 360.668C102.451 360.655 102.63 360.711 102.771 360.824C102.912 360.938 103.004 361.101 103.03 361.28C103.055 361.46 103.011 361.642 102.906 361.79C102.802 361.938 102.645 362.041 102.468 362.078C100.086 362.412 97.6684 362.653 95.2772 362.787H95.237ZM85.2134 362.757H85.1665C82.7719 362.606 80.3573 362.352 77.9829 362.001C77.8016 361.966 77.6407 361.863 77.5339 361.713C77.427 361.563 77.3826 361.377 77.4099 361.194C77.4372 361.012 77.5341 360.847 77.6803 360.735C77.8264 360.622 78.0105 360.571 78.1939 360.591C80.5382 360.926 82.9026 361.187 85.2569 361.334C85.4378 361.351 85.6055 361.436 85.7258 361.572C85.8461 361.708 85.91 361.885 85.9044 362.066C85.8989 362.248 85.8243 362.42 85.6959 362.548C85.5675 362.677 85.3949 362.751 85.2134 362.757ZM112.196 360.109C112.025 360.106 111.861 360.042 111.733 359.928C111.606 359.814 111.523 359.657 111.501 359.488C111.479 359.318 111.519 359.146 111.614 359.003C111.708 358.861 111.851 358.756 112.016 358.71C114.303 358.111 116.584 357.408 118.804 356.621C118.894 356.581 118.991 356.559 119.09 356.558C119.189 356.556 119.287 356.576 119.378 356.614C119.469 356.653 119.551 356.71 119.618 356.782C119.686 356.854 119.738 356.939 119.771 357.032C119.804 357.125 119.818 357.224 119.81 357.322C119.803 357.421 119.776 357.517 119.729 357.604C119.683 357.691 119.619 357.768 119.542 357.829C119.465 357.891 119.375 357.935 119.28 357.96C117.022 358.76 114.701 359.473 112.377 360.083C112.319 360.1 112.258 360.109 112.196 360.109ZM68.2741 359.945C68.2108 359.946 68.1477 359.938 68.0865 359.922C65.7723 359.289 63.4582 358.549 61.2043 357.726C61.1137 357.696 61.03 357.648 60.9583 357.585C60.8865 357.522 60.8282 357.445 60.7866 357.36C60.7451 357.274 60.7212 357.18 60.7164 357.085C60.7116 356.99 60.7261 356.894 60.7588 356.805C60.7915 356.715 60.8419 356.633 60.907 356.563C60.9721 356.493 61.0505 356.437 61.1376 356.398C61.2248 356.359 61.3188 356.338 61.4143 356.336C61.5097 356.334 61.6046 356.352 61.6933 356.387C63.9103 357.197 66.1876 357.923 68.4616 358.546C68.6269 358.593 68.7698 358.697 68.8642 358.841C68.9585 358.984 68.9979 359.157 68.9751 359.327C68.9523 359.497 68.8688 359.653 68.74 359.767C68.6113 359.88 68.4458 359.944 68.2741 359.945ZM128.275 354.101C128.119 354.095 127.969 354.038 127.848 353.939C127.727 353.84 127.642 353.704 127.606 353.551C127.571 353.399 127.586 353.24 127.65 353.097C127.714 352.954 127.823 352.837 127.96 352.762C130.073 351.718 132.167 350.566 134.183 349.344C134.344 349.252 134.535 349.227 134.715 349.274C134.895 349.32 135.049 349.435 135.146 349.594C135.242 349.752 135.273 349.942 135.231 350.123C135.19 350.304 135.079 350.462 134.923 350.563C132.87 351.805 130.74 352.976 128.593 354.037C128.493 354.082 128.385 354.104 128.275 354.101ZM52.2524 353.766C52.1361 353.769 52.021 353.742 51.9175 353.689C49.7808 352.605 47.6609 351.416 45.618 350.158C45.4563 350.058 45.341 349.898 45.2973 349.713C45.2537 349.528 45.2853 349.333 45.3852 349.172C45.4852 349.01 45.6452 348.895 45.8302 348.851C46.0151 348.808 46.2099 348.839 46.3715 348.939C48.3809 350.178 50.464 351.346 52.5638 352.414C52.7053 352.487 52.8178 352.607 52.8832 352.752C52.9487 352.897 52.9633 353.061 52.9246 353.215C52.8859 353.37 52.7962 353.507 52.67 353.605C52.5438 353.702 52.3884 353.754 52.2289 353.753L52.2524 353.766ZM142.796 344.959C142.648 344.96 142.502 344.915 142.381 344.829C142.259 344.743 142.168 344.621 142.119 344.481C142.071 344.34 142.068 344.188 142.111 344.046C142.153 343.903 142.24 343.778 142.358 343.687C144.216 342.235 146.042 340.675 147.763 339.081C147.831 339.016 147.912 338.965 148 338.931C148.088 338.898 148.182 338.882 148.277 338.884C148.371 338.887 148.464 338.909 148.55 338.948C148.636 338.987 148.714 339.043 148.778 339.112C148.842 339.181 148.892 339.262 148.925 339.351C148.958 339.439 148.972 339.533 148.968 339.628C148.964 339.722 148.941 339.815 148.901 339.9C148.861 339.986 148.804 340.062 148.734 340.126C146.973 341.756 145.124 343.332 143.235 344.812C143.11 344.911 142.955 344.964 142.796 344.963V344.959ZM37.798 344.507C37.6375 344.507 37.4816 344.453 37.3559 344.353C35.4771 342.86 33.6386 341.274 31.8937 339.63C31.8187 339.568 31.7572 339.491 31.7131 339.405C31.6689 339.318 31.643 339.223 31.6369 339.126C31.6308 339.029 31.6447 338.931 31.6777 338.84C31.7107 338.748 31.7621 338.664 31.8287 338.593C31.8954 338.522 31.9759 338.466 32.0652 338.427C32.1546 338.388 32.251 338.368 32.3484 338.368C32.4458 338.368 32.5421 338.388 32.6316 338.427C32.721 338.465 32.8015 338.522 32.8683 338.593C34.5863 340.209 36.3948 341.769 38.2267 343.235C38.343 343.327 38.4277 343.453 38.469 343.596C38.5103 343.738 38.5062 343.89 38.4572 344.03C38.4082 344.17 38.3168 344.291 38.1956 344.377C38.0745 344.462 37.9296 344.508 37.7813 344.507H37.798ZM155.178 333.08C155.008 333.078 154.845 333.018 154.715 332.909C154.572 332.786 154.483 332.612 154.468 332.423C154.452 332.235 154.513 332.049 154.635 331.905C156.166 330.11 157.649 328.223 159.006 326.308C159.116 326.154 159.283 326.05 159.469 326.019C159.656 325.988 159.848 326.032 160.002 326.142C160.156 326.252 160.26 326.419 160.291 326.606C160.322 326.793 160.278 326.984 160.168 327.138C158.771 329.086 157.277 331.001 155.72 332.829C155.654 332.908 155.571 332.973 155.478 333.017C155.384 333.061 155.281 333.083 155.178 333.083V333.08ZM25.5005 332.544C25.3959 332.544 25.2925 332.522 25.1977 332.478C25.1028 332.434 25.0187 332.369 24.9512 332.29C23.4107 330.449 21.9371 328.524 20.5506 326.566C20.4918 326.489 20.449 326.402 20.4248 326.309C20.4007 326.216 20.3957 326.119 20.4101 326.023C20.4245 325.928 20.458 325.837 20.5086 325.755C20.5593 325.673 20.626 325.603 20.7047 325.547C20.7835 325.492 20.8726 325.453 20.9668 325.433C21.061 325.413 21.1583 325.412 21.2528 325.43C21.3473 325.449 21.4371 325.487 21.5167 325.541C21.5963 325.595 21.6641 325.664 21.7161 325.746C23.0557 327.67 24.5292 329.565 26.043 331.372C26.1302 331.476 26.186 331.602 26.2039 331.737C26.2218 331.871 26.2011 332.008 26.1441 332.13C26.0872 332.253 25.9965 332.358 25.8825 332.431C25.7685 332.504 25.636 332.543 25.5005 332.544ZM164.927 318.96C164.803 318.96 164.681 318.927 164.574 318.866C164.466 318.804 164.377 318.716 164.314 318.609C164.251 318.502 164.216 318.381 164.214 318.258C164.212 318.134 164.241 318.012 164.3 317.903C165.439 315.837 166.504 313.699 167.462 311.543C167.543 311.377 167.685 311.249 167.859 311.185C168.033 311.122 168.224 311.129 168.393 311.204C168.562 311.279 168.695 311.417 168.764 311.588C168.834 311.759 168.834 311.951 168.765 312.122C167.79 314.311 166.708 316.473 165.55 318.586C165.489 318.698 165.399 318.793 165.29 318.859C165.18 318.925 165.055 318.96 164.927 318.96ZM15.8586 318.348C15.7297 318.348 15.6033 318.312 15.4925 318.247C15.3818 318.181 15.2908 318.086 15.229 317.973C14.0937 315.861 13.0321 313.675 12.0776 311.476C12.0389 311.39 12.0178 311.297 12.0154 311.202C12.013 311.108 12.0293 311.014 12.0635 310.926C12.0977 310.838 12.1491 310.757 12.2147 310.689C12.2803 310.621 12.3587 310.567 12.4454 310.53C12.5322 310.492 12.6255 310.472 12.72 310.471C12.8145 310.47 12.9083 310.488 12.9959 310.523C13.0835 310.558 13.1632 310.611 13.2303 310.677C13.2975 310.744 13.3508 310.823 13.3871 310.91C14.3248 313.073 15.3663 315.222 16.4849 317.297C16.5296 317.379 16.5575 317.469 16.5672 317.562C16.5769 317.655 16.5681 317.749 16.5414 317.839C16.5146 317.928 16.4704 318.012 16.4113 318.084C16.3522 318.157 16.2793 318.217 16.1969 318.261C16.0945 318.318 15.9792 318.348 15.862 318.348H15.8586ZM171.648 303.168C171.576 303.168 171.505 303.157 171.437 303.134C171.256 303.079 171.105 302.954 171.017 302.787C170.928 302.62 170.91 302.425 170.965 302.244C171.665 299.991 172.278 297.681 172.783 295.379C172.803 295.287 172.841 295.201 172.895 295.124C172.948 295.048 173.016 294.982 173.095 294.932C173.173 294.882 173.261 294.847 173.353 294.831C173.445 294.814 173.539 294.816 173.631 294.836C173.722 294.856 173.808 294.894 173.885 294.947C173.962 295.001 174.027 295.069 174.077 295.147C174.128 295.226 174.162 295.314 174.179 295.406C174.195 295.498 174.193 295.592 174.173 295.683C173.661 298.026 173.038 300.369 172.328 302.666C172.283 302.81 172.193 302.937 172.072 303.027C171.95 303.117 171.803 303.167 171.651 303.168H171.648ZM9.29793 302.498C9.14661 302.496 9 302.445 8.87951 302.354C8.75901 302.262 8.67094 302.135 8.62813 301.99C7.95832 299.7 7.34544 297.347 6.85313 294.994C6.8266 294.899 6.81972 294.801 6.83289 294.704C6.84607 294.607 6.87901 294.514 6.9297 294.431C6.9804 294.347 7.04775 294.275 7.12757 294.218C7.20739 294.162 7.29799 294.122 7.39371 294.102C7.48943 294.082 7.58824 294.082 7.68401 294.102C7.77978 294.122 7.87047 294.161 7.95043 294.217C8.03039 294.273 8.09793 294.346 8.14883 294.429C8.19973 294.513 8.23292 294.606 8.24633 294.702C8.73194 297.015 9.32136 299.328 9.99451 301.581C10.0218 301.671 10.031 301.765 10.0216 301.858C10.0123 301.951 9.98454 302.042 9.94001 302.124C9.89549 302.207 9.83506 302.28 9.76222 302.339C9.68938 302.398 9.60553 302.442 9.51558 302.468C9.44572 302.487 9.3735 302.495 9.30128 302.492L9.29793 302.498ZM175.047 286.344H174.974C174.785 286.326 174.612 286.234 174.491 286.089C174.371 285.943 174.313 285.756 174.331 285.567C174.562 283.224 174.689 280.838 174.719 278.478C174.712 278.38 174.726 278.282 174.759 278.19C174.791 278.098 174.843 278.014 174.909 277.942C174.976 277.871 175.057 277.814 175.147 277.775C175.236 277.736 175.333 277.716 175.431 277.716C175.529 277.716 175.625 277.736 175.715 277.775C175.805 277.814 175.885 277.871 175.952 277.942C176.019 278.014 176.07 278.098 176.103 278.19C176.136 278.282 176.149 278.38 176.143 278.478C176.116 280.878 175.982 283.301 175.751 285.688C175.737 285.866 175.657 286.032 175.527 286.153C175.397 286.275 175.226 286.343 175.047 286.344ZM6.05271 285.644C5.87515 285.644 5.70398 285.578 5.57268 285.459C5.44138 285.339 5.35939 285.175 5.34272 284.998C5.12504 282.605 5.00782 280.178 5.00782 277.785C5.00738 277.691 5.0254 277.599 5.06084 277.512C5.09629 277.425 5.14847 277.346 5.21439 277.28C5.28032 277.213 5.35871 277.16 5.44509 277.124C5.53147 277.088 5.62413 277.069 5.71781 277.069C5.90584 277.069 6.08629 277.143 6.21988 277.275C6.35346 277.407 6.42939 277.587 6.43115 277.775C6.43115 280.118 6.55841 282.518 6.76605 284.868C6.77479 284.961 6.76496 285.055 6.73715 285.145C6.70934 285.234 6.66409 285.317 6.604 285.389C6.54391 285.461 6.4702 285.52 6.38708 285.563C6.30396 285.607 6.21309 285.633 6.11972 285.641L6.05271 285.644ZM174.974 269.182C174.798 269.182 174.629 269.116 174.499 268.999C174.369 268.882 174.286 268.721 174.267 268.546C174.016 266.203 173.664 263.86 173.219 261.517L173.199 261.427C173.169 261.244 173.212 261.057 173.318 260.905C173.425 260.753 173.586 260.649 173.767 260.614C173.949 260.578 174.138 260.615 174.293 260.716C174.448 260.817 174.557 260.975 174.599 261.155L174.619 261.249C175.071 263.592 175.429 266.012 175.684 268.389C175.694 268.482 175.686 268.576 175.659 268.666C175.633 268.756 175.589 268.84 175.531 268.914C175.472 268.987 175.399 269.047 175.317 269.092C175.234 269.137 175.144 269.166 175.051 269.176L174.974 269.182ZM6.26705 268.476H6.18333C5.9955 268.454 5.82404 268.359 5.70661 268.211C5.58918 268.062 5.53538 267.874 5.55706 267.686C5.82833 265.306 6.20676 262.906 6.67898 260.553C6.72464 260.376 6.83631 260.224 6.99098 260.127C7.14566 260.03 7.33159 259.996 7.51051 260.032C7.68942 260.068 7.8477 260.172 7.9528 260.321C8.05791 260.47 8.10184 260.654 8.07553 260.834C7.61002 263.147 7.23826 265.52 6.97369 267.863C6.94844 268.036 6.86102 268.194 6.72783 268.306C6.59464 268.419 6.42482 268.479 6.25029 268.476H6.26705ZM171.427 252.298C171.277 252.296 171.132 252.246 171.012 252.157C170.892 252.067 170.803 251.942 170.757 251.8C170.044 249.55 169.223 247.307 168.323 245.132C168.279 245.044 168.255 244.949 168.25 244.851C168.246 244.754 168.261 244.656 168.296 244.565C168.33 244.474 168.383 244.391 168.451 244.321C168.519 244.251 168.601 244.195 168.691 244.158C168.781 244.121 168.878 244.103 168.976 244.104C169.073 244.106 169.17 244.128 169.258 244.168C169.347 244.209 169.427 244.267 169.492 244.339C169.558 244.412 169.608 244.497 169.639 244.589C170.556 246.802 171.39 249.082 172.117 251.368C172.151 251.474 172.16 251.587 172.142 251.697C172.125 251.807 172.082 251.911 172.017 252.002C171.952 252.092 171.866 252.166 171.767 252.218C171.668 252.269 171.559 252.297 171.447 252.298H171.427ZM9.93421 251.709C9.85924 251.71 9.7847 251.698 9.7132 251.676C9.62411 251.647 9.54161 251.6 9.47049 251.539C9.39937 251.478 9.34101 251.403 9.29871 251.32C9.2564 251.236 9.23101 251.145 9.22397 251.052C9.21694 250.958 9.22843 250.864 9.25774 250.775C10.0046 248.499 10.8619 246.226 11.7996 244.017C11.8738 243.843 12.0141 243.706 12.1896 243.635C12.3651 243.564 12.5616 243.566 12.7357 243.64C12.9097 243.715 13.0473 243.855 13.1179 244.03C13.1886 244.206 13.1866 244.402 13.1124 244.576C12.1881 246.745 11.3475 248.981 10.6107 251.22C10.5637 251.366 10.4706 251.492 10.3456 251.58C10.2206 251.668 10.0704 251.714 9.91749 251.709H9.93421ZM164.592 236.559C164.465 236.559 164.341 236.526 164.232 236.461C164.123 236.397 164.033 236.305 163.972 236.194C162.817 234.142 161.558 232.111 160.235 230.169C160.14 230.013 160.108 229.826 160.147 229.647C160.186 229.468 160.292 229.311 160.443 229.209C160.595 229.106 160.78 229.065 160.961 229.095C161.141 229.125 161.303 229.223 161.414 229.369C162.753 231.354 164.039 233.419 165.215 235.508C165.275 235.617 165.307 235.739 165.305 235.864C165.304 235.988 165.27 236.11 165.207 236.217C165.144 236.324 165.054 236.413 164.946 236.475C164.838 236.537 164.716 236.569 164.592 236.569V236.559ZM16.9002 236.03C16.7751 236.031 16.6521 235.999 16.5435 235.937C16.4349 235.875 16.3446 235.786 16.2818 235.677C16.2189 235.569 16.1857 235.447 16.1855 235.322C16.1853 235.197 16.2181 235.074 16.2806 234.966C17.4695 232.884 18.7656 230.829 20.1253 228.854C20.235 228.705 20.3984 228.604 20.581 228.573C20.7635 228.542 20.951 228.584 21.1036 228.688C21.2563 228.793 21.3621 228.953 21.3989 229.134C21.4357 229.316 21.4005 229.504 21.3008 229.66C19.9612 231.602 18.6885 233.627 17.5164 235.686C17.4529 235.792 17.3626 235.88 17.2545 235.94C17.1463 236.001 17.0241 236.032 16.9002 236.03ZM154.699 222.537C154.596 222.537 154.495 222.515 154.402 222.472C154.309 222.43 154.226 222.367 154.16 222.289C152.616 220.512 150.975 218.775 149.28 217.131C149.166 216.995 149.107 216.82 149.115 216.642C149.123 216.465 149.198 216.296 149.323 216.17C149.449 216.045 149.618 215.97 149.796 215.962C149.974 215.954 150.148 216.013 150.285 216.127C152.006 217.801 153.674 219.565 155.248 221.372C155.337 221.476 155.394 221.603 155.413 221.738C155.432 221.873 155.412 222.011 155.355 222.135C155.299 222.259 155.208 222.364 155.093 222.439C154.979 222.513 154.845 222.553 154.709 222.554L154.699 222.537ZM26.8769 222.069C26.7034 222.068 26.5358 222.005 26.4047 221.891C26.2641 221.766 26.1787 221.59 26.1668 221.402C26.1548 221.214 26.2174 221.029 26.341 220.887C27.9251 219.086 29.6063 217.332 31.3344 215.672C31.4703 215.539 31.6536 215.465 31.8439 215.467C32.0342 215.469 32.216 215.546 32.3492 215.682C32.4824 215.818 32.5562 216.001 32.5543 216.191C32.5524 216.381 32.475 216.563 32.3391 216.696C30.6378 218.33 28.9901 220.043 27.4295 221.828C27.3608 221.907 27.2754 221.971 27.1793 222.014C27.0832 222.056 26.9788 222.077 26.8736 222.075L26.8769 222.069ZM142.19 210.785C142.034 210.785 141.882 210.733 141.758 210.637C139.886 209.205 137.927 207.832 135.941 206.56C135.792 206.454 135.689 206.294 135.654 206.115C135.62 205.935 135.655 205.748 135.754 205.594C135.854 205.44 136.008 205.33 136.186 205.287C136.364 205.243 136.552 205.27 136.711 205.362C138.721 206.654 140.73 208.04 142.626 209.506C142.744 209.597 142.831 209.722 142.874 209.865C142.917 210.008 142.915 210.16 142.867 210.301C142.819 210.442 142.727 210.565 142.606 210.652C142.485 210.738 142.339 210.785 142.19 210.785ZM39.4491 210.393C39.2996 210.393 39.1541 210.346 39.0329 210.258C38.9117 210.171 38.821 210.048 38.7736 209.906C38.7263 209.764 38.7246 209.611 38.7689 209.469C38.8132 209.326 38.9012 209.201 39.0204 209.111C40.9327 207.665 42.9321 206.282 44.9616 205.004C45.1219 204.903 45.3157 204.87 45.5004 204.912C45.685 204.954 45.8454 205.068 45.9462 205.228C46.047 205.388 46.08 205.582 46.0379 205.767C45.9958 205.951 45.8821 206.111 45.7218 206.212C43.7124 207.467 41.7633 208.826 39.8811 210.246C39.7566 210.342 39.6033 210.394 39.4457 210.393H39.4491ZM127.578 201.774C127.471 201.773 127.364 201.749 127.267 201.703C125.147 200.672 122.953 199.722 120.753 198.875C120.665 198.841 120.585 198.791 120.516 198.726C120.448 198.661 120.393 198.584 120.355 198.498C120.316 198.412 120.295 198.319 120.293 198.225C120.29 198.131 120.306 198.037 120.34 197.949C120.373 197.861 120.424 197.781 120.489 197.713C120.553 197.644 120.631 197.589 120.717 197.551C120.803 197.513 120.896 197.491 120.99 197.489C121.084 197.486 121.178 197.502 121.265 197.536C123.503 198.399 125.733 199.367 127.89 200.415C128.027 200.489 128.136 200.607 128.2 200.749C128.264 200.891 128.28 201.051 128.244 201.203C128.209 201.355 128.125 201.491 128.004 201.59C127.884 201.69 127.734 201.747 127.578 201.754V201.774ZM54.1278 201.492C53.9721 201.485 53.823 201.428 53.7032 201.328C53.5835 201.228 53.4997 201.092 53.4647 200.94C53.4298 200.788 53.4456 200.629 53.5097 200.487C53.5738 200.345 53.6827 200.228 53.8197 200.154C55.9865 199.126 58.2237 198.179 60.4709 197.335C60.5588 197.302 60.6524 197.287 60.7462 197.291C60.84 197.294 60.9322 197.316 61.0176 197.355C61.1029 197.394 61.1798 197.449 61.2437 197.518C61.3077 197.587 61.3574 197.667 61.3902 197.755C61.4229 197.843 61.4381 197.937 61.4347 198.03C61.4313 198.124 61.4094 198.216 61.3704 198.302C61.3314 198.387 61.2759 198.464 61.2072 198.528C61.1385 198.592 61.0578 198.641 60.9699 198.674C58.7629 199.501 56.5625 200.431 54.4326 201.442C54.3348 201.481 54.2296 201.498 54.1245 201.492H54.1278ZM111.453 195.879C111.394 195.878 111.336 195.87 111.279 195.856C108.991 195.273 106.654 194.784 104.326 194.399C104.232 194.387 104.14 194.355 104.058 194.306C103.976 194.258 103.904 194.193 103.848 194.116C103.791 194.039 103.75 193.952 103.728 193.859C103.706 193.766 103.702 193.67 103.718 193.576C103.734 193.481 103.768 193.391 103.819 193.311C103.871 193.23 103.937 193.161 104.016 193.106C104.095 193.052 104.183 193.014 104.277 192.995C104.37 192.975 104.467 192.975 104.561 192.994C106.925 193.385 109.303 193.884 111.63 194.473C111.721 194.496 111.807 194.537 111.882 194.593C111.957 194.649 112.02 194.719 112.068 194.8C112.116 194.88 112.147 194.969 112.161 195.062C112.174 195.155 112.169 195.249 112.146 195.34C112.106 195.494 112.016 195.631 111.89 195.728C111.764 195.826 111.609 195.879 111.45 195.879H111.453ZM70.3002 195.745C70.1277 195.743 69.962 195.678 69.8337 195.563C69.7054 195.447 69.6232 195.289 69.6024 195.118C69.5816 194.947 69.6235 194.774 69.7203 194.632C69.8172 194.489 69.9626 194.386 70.1294 194.343C71.546 194.008 72.9962 193.673 74.4329 193.402C75.3539 193.225 76.2883 193.067 77.2126 192.917C77.3938 192.898 77.5752 192.95 77.7196 193.061C77.864 193.172 77.9605 193.334 77.9892 193.514C78.0179 193.693 77.9766 193.877 77.874 194.028C77.7713 194.178 77.6149 194.284 77.437 194.322C76.526 194.466 75.6084 194.627 74.7042 194.801C73.2875 195.072 71.8642 195.384 70.471 195.725C70.414 195.739 70.3555 195.745 70.2969 195.745H70.3002ZM94.4667 193.362H94.4332C93.1841 193.308 91.9181 193.278 90.6723 193.278C89.5638 193.278 88.4385 193.302 87.3233 193.345C87.141 193.342 86.9667 193.27 86.8362 193.142C86.7057 193.015 86.629 192.843 86.6217 192.661C86.6144 192.479 86.6772 192.301 86.7971 192.163C86.9169 192.026 87.0848 191.94 87.2663 191.922C88.395 191.876 89.537 191.855 90.6656 191.855C91.9349 191.855 93.2209 191.882 94.4902 191.939C94.6794 191.943 94.8592 192.022 94.9902 192.159C95.1211 192.295 95.1924 192.478 95.1884 192.667C95.1844 192.856 95.1055 193.036 94.9689 193.167C94.8323 193.298 94.6492 193.369 94.46 193.365L94.4667 193.362Z" fill="#DEDEDE"/>
<path d="M351.43 298.078L350.201 298.152C350.015 298.157 349.835 298.09 349.698 297.966C349.561 297.841 349.479 297.667 349.467 297.482C349.456 297.298 349.517 297.116 349.638 296.975C349.758 296.834 349.929 296.746 350.114 296.729C352.458 296.598 354.802 296.394 357.126 296.167C357.22 296.157 357.314 296.166 357.404 296.192C357.494 296.219 357.577 296.263 357.65 296.322C357.723 296.381 357.783 296.454 357.828 296.537C357.872 296.619 357.9 296.709 357.91 296.803C357.92 296.896 357.911 296.99 357.884 297.08C357.857 297.17 357.813 297.253 357.754 297.326C357.695 297.399 357.622 297.459 357.54 297.504C357.457 297.548 357.367 297.576 357.274 297.586C355.345 297.787 353.375 297.951 351.43 298.078ZM340.314 298.383H340.261C337.916 298.359 335.515 298.279 333.164 298.142C332.981 298.124 332.811 298.036 332.691 297.896C332.571 297.757 332.51 297.576 332.52 297.392C332.53 297.208 332.612 297.035 332.747 296.909C332.882 296.784 333.06 296.716 333.245 296.719C335.589 296.856 337.933 296.936 340.278 296.96C340.459 296.967 340.631 297.042 340.758 297.171C340.886 297.3 340.959 297.473 340.964 297.654C340.968 297.835 340.904 298.011 340.783 298.147C340.663 298.282 340.495 298.366 340.314 298.383ZM367.06 296.244C366.88 296.251 366.704 296.19 366.567 296.073C366.43 295.957 366.342 295.792 366.321 295.613C366.301 295.435 366.348 295.255 366.455 295.11C366.561 294.964 366.719 294.865 366.895 294.831C369.2 294.436 371.524 293.984 373.798 293.492C373.983 293.451 374.176 293.485 374.335 293.587C374.495 293.689 374.608 293.85 374.648 294.034C374.689 294.219 374.655 294.412 374.553 294.572C374.452 294.731 374.291 294.844 374.106 294.885C371.809 295.387 369.461 295.845 367.133 296.224C367.11 296.234 367.085 296.24 367.06 296.244ZM323.398 297.248C323.353 297.253 323.307 297.253 323.261 297.248C320.917 296.953 318.573 296.602 316.228 296.197C316.042 296.164 315.876 296.059 315.767 295.905C315.658 295.75 315.615 295.558 315.647 295.372C315.68 295.185 315.785 295.019 315.94 294.91C316.094 294.801 316.286 294.758 316.473 294.791C318.77 295.193 321.111 295.544 323.429 295.835C323.602 295.86 323.76 295.948 323.872 296.082C323.985 296.216 324.045 296.386 324.04 296.561C324.035 296.736 323.965 296.903 323.845 297.03C323.725 297.157 323.563 297.236 323.388 297.251L323.398 297.248ZM383.587 292.458C383.41 292.473 383.234 292.421 383.093 292.313C382.953 292.205 382.858 292.048 382.827 291.873C382.796 291.699 382.832 291.519 382.928 291.369C383.023 291.22 383.171 291.111 383.342 291.065C385.583 290.413 387.84 289.7 390.04 288.943C390.131 288.9 390.23 288.876 390.331 288.873C390.431 288.87 390.531 288.889 390.624 288.928C390.717 288.966 390.801 289.024 390.87 289.098C390.939 289.171 390.991 289.258 391.024 289.353C391.057 289.448 391.069 289.549 391.06 289.649C391.051 289.75 391.021 289.847 390.972 289.934C390.923 290.022 390.855 290.099 390.774 290.158C390.694 290.218 390.601 290.26 390.503 290.282C388.276 291.045 385.995 291.765 383.731 292.421C383.684 292.437 383.636 292.447 383.587 292.451V292.458ZM306.707 294.172C306.635 294.178 306.562 294.171 306.493 294.152C304.202 293.592 301.888 292.97 299.624 292.297C299.53 292.274 299.442 292.232 299.365 292.174C299.289 292.116 299.224 292.043 299.176 291.959C299.129 291.876 299.098 291.783 299.087 291.687C299.076 291.592 299.084 291.495 299.112 291.402C299.139 291.31 299.185 291.224 299.246 291.15C299.308 291.076 299.384 291.015 299.47 290.971C299.555 290.927 299.649 290.901 299.745 290.894C299.841 290.887 299.938 290.9 300.029 290.931C302.273 291.601 304.56 292.213 306.831 292.769C306.995 292.811 307.14 292.909 307.238 293.047C307.336 293.186 307.382 293.354 307.367 293.523C307.352 293.692 307.278 293.85 307.157 293.969C307.036 294.088 306.876 294.16 306.707 294.172ZM399.572 286.807C399.401 286.825 399.23 286.781 399.089 286.682C398.949 286.583 398.849 286.437 398.808 286.271C398.768 286.104 398.788 285.928 398.867 285.776C398.946 285.624 399.077 285.505 399.237 285.442C401.39 284.538 403.55 283.567 405.657 282.563C405.826 282.494 406.015 282.491 406.185 282.557C406.355 282.623 406.494 282.751 406.572 282.916C406.651 283.08 406.663 283.269 406.607 283.442C406.551 283.616 406.43 283.761 406.27 283.848C404.143 284.853 401.963 285.857 399.79 286.754C399.72 286.781 399.646 286.796 399.572 286.801V286.807ZM290.474 289.197C290.374 289.204 290.273 289.19 290.18 289.154C287.969 288.334 285.745 287.45 283.572 286.526C283.398 286.452 283.26 286.312 283.19 286.137C283.119 285.961 283.121 285.765 283.195 285.591C283.269 285.417 283.41 285.279 283.585 285.209C283.761 285.138 283.957 285.14 284.131 285.214C286.285 286.131 288.485 287.008 290.675 287.818C290.828 287.875 290.956 287.983 291.039 288.123C291.122 288.263 291.155 288.428 291.131 288.589C291.108 288.75 291.03 288.898 290.91 289.009C290.791 289.12 290.637 289.186 290.474 289.197ZM414.793 279.366C414.63 279.38 414.467 279.336 414.332 279.244C414.196 279.151 414.097 279.015 414.051 278.857C414.004 278.7 414.014 278.532 414.077 278.381C414.14 278.23 414.253 278.105 414.398 278.027C416.427 276.886 418.457 275.684 420.426 274.442C420.505 274.393 420.594 274.359 420.686 274.343C420.779 274.327 420.873 274.33 420.965 274.351C421.056 274.372 421.143 274.41 421.219 274.464C421.296 274.519 421.361 274.587 421.411 274.667C421.461 274.746 421.494 274.834 421.51 274.927C421.526 275.019 421.523 275.114 421.502 275.205C421.482 275.297 421.443 275.383 421.389 275.459C421.335 275.536 421.266 275.601 421.186 275.651C419.177 276.899 417.141 278.118 415.091 279.269C415 279.321 414.898 279.352 414.793 279.36V279.366ZM274.921 282.402C274.794 282.409 274.667 282.383 274.553 282.325C272.45 281.261 270.343 280.13 268.294 278.978C268.14 278.88 268.029 278.726 267.985 278.549C267.941 278.371 267.967 278.184 268.057 278.025C268.147 277.866 268.295 277.748 268.47 277.695C268.645 277.642 268.834 277.658 268.997 277.74C271.03 278.894 273.116 280.012 275.199 281.087C275.335 281.16 275.444 281.274 275.509 281.414C275.574 281.553 275.592 281.71 275.561 281.86C275.53 282.011 275.45 282.147 275.335 282.249C275.22 282.351 275.075 282.413 274.921 282.426V282.402ZM429.05 270.238C428.93 270.245 428.81 270.221 428.701 270.17C428.592 270.118 428.498 270.041 428.427 269.944C428.371 269.867 428.33 269.781 428.308 269.689C428.286 269.597 428.282 269.501 428.297 269.408C428.312 269.314 428.345 269.225 428.395 269.144C428.445 269.064 428.51 268.994 428.588 268.939C430.473 267.57 432.355 266.141 434.177 264.685C434.326 264.578 434.509 264.533 434.69 264.558C434.871 264.582 435.036 264.676 435.15 264.818C435.264 264.961 435.32 265.142 435.304 265.324C435.289 265.506 435.204 265.675 435.068 265.796C433.229 267.266 431.331 268.712 429.422 270.091C429.314 270.172 429.185 270.221 429.05 270.231V270.238ZM260.259 273.887C260.104 273.896 259.951 273.855 259.821 273.77C257.852 272.471 255.889 271.092 253.983 269.719C253.845 269.603 253.756 269.438 253.734 269.259C253.713 269.079 253.76 268.898 253.867 268.753C253.974 268.607 254.132 268.507 254.31 268.473C254.487 268.44 254.671 268.475 254.824 268.571C256.709 269.944 258.655 271.296 260.604 272.588C260.728 272.67 260.823 272.788 260.877 272.926C260.93 273.065 260.939 273.216 260.902 273.36C260.865 273.504 260.785 273.632 260.671 273.728C260.558 273.823 260.417 273.881 260.27 273.893L260.259 273.887ZM442.188 259.533C442.04 259.544 441.893 259.508 441.767 259.431C441.641 259.354 441.542 259.239 441.484 259.103C441.426 258.967 441.412 258.817 441.444 258.672C441.476 258.528 441.552 258.397 441.662 258.298C443.38 256.722 445.088 255.085 446.733 253.431C446.869 253.317 447.044 253.258 447.222 253.267C447.4 253.275 447.568 253.349 447.694 253.475C447.82 253.6 447.894 253.769 447.902 253.947C447.91 254.124 447.851 254.299 447.737 254.435C446.063 256.109 444.355 257.759 442.617 259.349C442.496 259.456 442.342 259.519 442.181 259.527L442.188 259.533ZM246.642 263.758C246.46 263.768 246.281 263.709 246.14 263.594C244.335 262.081 242.537 260.507 240.805 258.907C240.73 258.846 240.669 258.77 240.624 258.683C240.58 258.597 240.553 258.503 240.546 258.406C240.54 258.309 240.553 258.212 240.585 258.121C240.617 258.029 240.667 257.945 240.733 257.874C240.799 257.803 240.878 257.745 240.967 257.706C241.056 257.666 241.151 257.645 241.248 257.644C241.345 257.642 241.442 257.661 241.531 257.698C241.621 257.735 241.702 257.79 241.77 257.86C243.488 259.44 245.266 261 247.054 262.496C247.199 262.617 247.289 262.791 247.306 262.979C247.323 263.167 247.265 263.354 247.145 263.5C247.083 263.575 247.007 263.637 246.92 263.681C246.834 263.726 246.739 263.752 246.642 263.758ZM454.013 247.396C453.92 247.403 453.827 247.391 453.738 247.361C453.649 247.331 453.568 247.284 453.498 247.222C453.355 247.098 453.268 246.923 453.255 246.734C453.242 246.546 453.304 246.36 453.427 246.218C454.961 244.457 456.472 242.636 457.918 240.805C457.975 240.728 458.047 240.663 458.129 240.614C458.211 240.565 458.303 240.533 458.398 240.521C458.493 240.508 458.589 240.514 458.682 240.54C458.774 240.565 458.86 240.609 458.936 240.668C459.011 240.727 459.073 240.801 459.119 240.885C459.165 240.969 459.194 241.062 459.203 241.157C459.213 241.252 459.203 241.348 459.174 241.44C459.146 241.531 459.099 241.616 459.037 241.689C457.577 243.536 456.053 245.371 454.506 247.152C454.381 247.294 454.206 247.382 454.017 247.396H454.013ZM234.278 252.166C234.174 252.173 234.069 252.156 233.972 252.118C233.875 252.08 233.787 252.021 233.715 251.945C232.091 250.238 230.487 248.47 228.946 246.693C228.885 246.622 228.838 246.54 228.808 246.451C228.779 246.362 228.767 246.269 228.774 246.175C228.78 246.082 228.805 245.991 228.847 245.907C228.889 245.823 228.947 245.748 229.018 245.687C229.089 245.626 229.171 245.579 229.26 245.549C229.349 245.52 229.443 245.508 229.536 245.515C229.63 245.521 229.721 245.547 229.805 245.588C229.889 245.63 229.963 245.688 230.025 245.759C231.552 247.523 233.139 249.274 234.75 250.964C234.843 251.063 234.906 251.185 234.932 251.318C234.958 251.451 234.946 251.589 234.896 251.715C234.846 251.841 234.762 251.95 234.652 252.03C234.543 252.11 234.413 252.157 234.278 252.166ZM464.399 233.997C464.239 234.009 464.081 233.965 463.95 233.873C463.871 233.82 463.803 233.751 463.751 233.672C463.699 233.592 463.663 233.503 463.646 233.409C463.629 233.316 463.631 233.22 463.651 233.127C463.672 233.034 463.711 232.946 463.766 232.869C465.105 230.947 466.385 228.966 467.617 226.981C467.722 226.831 467.88 226.728 468.059 226.691C468.238 226.655 468.424 226.688 468.578 226.785C468.733 226.881 468.845 227.033 468.891 227.21C468.938 227.386 468.914 227.574 468.826 227.734C467.584 229.742 466.278 231.751 464.941 233.679C464.882 233.769 464.802 233.845 464.709 233.9C464.615 233.955 464.51 233.988 464.402 233.997H464.399ZM223.317 239.249C223.199 239.256 223.08 239.235 222.973 239.186C222.865 239.137 222.772 239.062 222.7 238.967C221.284 237.09 219.89 235.155 218.564 233.21C218.504 233.133 218.461 233.045 218.437 232.951C218.412 232.857 218.408 232.758 218.423 232.662C218.438 232.566 218.472 232.474 218.524 232.392C218.576 232.31 218.644 232.239 218.725 232.184C218.805 232.129 218.896 232.091 218.992 232.072C219.087 232.054 219.185 232.055 219.28 232.076C219.376 232.097 219.465 232.137 219.544 232.194C219.623 232.251 219.69 232.323 219.74 232.407C221.056 234.331 222.436 236.249 223.839 238.097C223.896 238.172 223.938 238.258 223.962 238.349C223.986 238.44 223.991 238.535 223.978 238.628C223.965 238.722 223.934 238.812 223.886 238.893C223.838 238.974 223.774 239.045 223.698 239.101C223.59 239.188 223.458 239.24 223.32 239.249H223.317ZM473.203 219.499C473.071 219.509 472.939 219.481 472.822 219.419C472.655 219.33 472.53 219.179 472.474 218.998C472.419 218.817 472.438 218.622 472.527 218.455C473.625 216.39 474.687 214.274 475.685 212.165C475.723 212.078 475.779 212 475.848 211.934C475.917 211.869 475.999 211.818 476.088 211.785C476.178 211.752 476.273 211.736 476.368 211.74C476.463 211.744 476.556 211.768 476.642 211.808C476.729 211.849 476.806 211.906 476.869 211.977C476.933 212.048 476.981 212.131 477.012 212.221C477.043 212.311 477.056 212.407 477.049 212.502C477.043 212.597 477.017 212.689 476.974 212.774C475.97 214.903 474.895 217.039 473.786 219.134C473.729 219.24 473.646 219.33 473.544 219.394C473.443 219.458 473.327 219.496 473.207 219.503L473.203 219.499ZM213.902 225.19C213.771 225.201 213.639 225.176 213.52 225.117C213.402 225.058 213.303 224.967 213.233 224.855C212.04 222.827 210.888 220.744 209.783 218.666C209.694 218.498 209.676 218.303 209.731 218.122C209.787 217.94 209.912 217.789 210.079 217.7C210.247 217.611 210.443 217.593 210.624 217.648C210.805 217.704 210.957 217.829 211.046 217.996C212.131 220.055 213.279 222.117 214.462 224.125C214.523 224.23 214.557 224.349 214.559 224.471C214.561 224.592 214.533 224.712 214.476 224.819C214.419 224.927 214.335 225.018 214.233 225.084C214.131 225.15 214.014 225.188 213.892 225.196L213.902 225.19ZM480.303 204.102C480.198 204.109 480.093 204.093 479.995 204.055C479.819 203.985 479.678 203.849 479.603 203.676C479.528 203.503 479.524 203.307 479.593 203.131C480.447 200.955 481.268 198.729 482.011 196.516C482.032 196.418 482.074 196.324 482.133 196.243C482.193 196.161 482.269 196.093 482.357 196.043C482.445 195.994 482.542 195.963 482.643 195.953C482.743 195.944 482.845 195.956 482.94 195.989C483.036 196.022 483.123 196.074 483.197 196.143C483.271 196.212 483.329 196.296 483.368 196.39C483.407 196.483 483.425 196.583 483.422 196.684C483.419 196.785 483.395 196.884 483.351 196.975C482.594 199.208 481.773 201.454 480.909 203.67C480.858 203.789 480.774 203.893 480.668 203.968C480.562 204.044 480.437 204.089 480.306 204.098L480.303 204.102ZM206.163 210.127C206.017 210.137 205.872 210.101 205.746 210.026C205.621 209.951 205.522 209.838 205.463 209.705C204.508 207.553 203.594 205.353 202.743 203.148C202.675 202.97 202.68 202.773 202.757 202.599C202.835 202.425 202.978 202.289 203.155 202.22C203.333 202.152 203.531 202.157 203.705 202.234C203.879 202.311 204.015 202.454 204.083 202.632C204.927 204.811 205.831 206.984 206.762 209.129C206.8 209.215 206.821 209.307 206.823 209.4C206.825 209.494 206.809 209.587 206.775 209.674C206.741 209.761 206.69 209.84 206.625 209.908C206.56 209.975 206.483 210.029 206.397 210.066C206.324 210.097 206.245 210.113 206.166 210.113L206.163 210.127ZM485.595 187.991C485.518 187.994 485.441 187.987 485.367 187.967C485.276 187.944 485.191 187.902 485.117 187.846C485.042 187.789 484.98 187.718 484.933 187.637C484.886 187.556 484.855 187.467 484.843 187.374C484.831 187.282 484.837 187.187 484.861 187.097C485.461 184.834 486.017 182.528 486.506 180.245C486.521 180.15 486.555 180.058 486.607 179.976C486.659 179.894 486.727 179.824 486.807 179.769C486.887 179.715 486.977 179.677 487.072 179.658C487.167 179.639 487.265 179.64 487.359 179.66C487.454 179.681 487.543 179.72 487.622 179.776C487.701 179.832 487.768 179.903 487.819 179.986C487.869 180.068 487.902 180.16 487.916 180.256C487.93 180.352 487.924 180.45 487.899 180.543C487.403 182.849 486.844 185.179 486.224 187.462C486.184 187.601 486.103 187.725 485.991 187.817C485.879 187.909 485.742 187.965 485.598 187.977L485.595 187.991ZM200.195 194.264C200.036 194.274 199.878 194.23 199.747 194.14C199.615 194.049 199.519 193.917 199.471 193.765C198.768 191.516 198.112 189.219 197.519 186.94C197.491 186.848 197.482 186.751 197.493 186.656C197.503 186.56 197.533 186.468 197.58 186.384C197.627 186.301 197.69 186.227 197.766 186.169C197.842 186.11 197.93 186.067 198.023 186.043C198.116 186.019 198.212 186.014 198.307 186.028C198.402 186.042 198.494 186.076 198.575 186.126C198.657 186.176 198.728 186.242 198.784 186.321C198.839 186.399 198.878 186.488 198.899 186.582C199.488 188.841 200.138 191.114 200.831 193.34C200.887 193.521 200.869 193.716 200.781 193.883C200.693 194.051 200.543 194.177 200.362 194.234C200.309 194.246 200.253 194.251 200.198 194.25L200.195 194.264ZM489.004 171.371C488.954 171.376 488.903 171.376 488.853 171.371C488.666 171.344 488.498 171.244 488.385 171.092C488.272 170.941 488.224 170.751 488.25 170.565C488.585 168.255 488.87 165.908 489.094 163.585C489.102 163.491 489.129 163.4 489.173 163.317C489.216 163.233 489.276 163.159 489.349 163.099C489.421 163.038 489.505 162.993 489.595 162.965C489.685 162.938 489.78 162.928 489.874 162.937C489.968 162.946 490.059 162.974 490.142 163.018C490.225 163.063 490.298 163.123 490.358 163.196C490.418 163.269 490.462 163.353 490.489 163.444C490.516 163.534 490.524 163.629 490.514 163.723C490.287 166.066 489.999 168.439 489.66 170.769C489.633 170.926 489.554 171.069 489.435 171.176C489.317 171.283 489.166 171.347 489.007 171.358L489.004 171.371ZM196.072 177.808C195.899 177.819 195.728 177.767 195.591 177.661C195.455 177.555 195.361 177.403 195.329 177.232C194.887 174.919 194.495 172.546 194.163 170.226C194.144 170.131 194.144 170.032 194.163 169.937C194.183 169.842 194.223 169.751 194.279 169.672C194.335 169.592 194.407 169.524 194.49 169.474C194.573 169.423 194.666 169.39 194.763 169.376C194.86 169.363 194.958 169.369 195.052 169.395C195.146 169.421 195.234 169.466 195.31 169.527C195.386 169.588 195.448 169.664 195.493 169.751C195.539 169.837 195.566 169.932 195.573 170.029C195.908 172.342 196.293 174.675 196.729 176.965C196.764 177.15 196.724 177.342 196.618 177.498C196.512 177.655 196.348 177.762 196.163 177.798L196.072 177.808ZM490.451 154.474H490.384C490.29 154.471 490.198 154.45 490.112 154.412C490.027 154.374 489.949 154.319 489.885 154.251C489.821 154.183 489.77 154.103 489.737 154.015C489.704 153.928 489.688 153.835 489.69 153.741C489.761 151.398 489.774 149.055 489.731 146.711C489.729 146.618 489.746 146.525 489.78 146.438C489.814 146.35 489.865 146.271 489.93 146.203C489.995 146.136 490.073 146.082 490.159 146.044C490.245 146.007 490.337 145.987 490.431 145.985C490.524 145.983 490.617 146 490.705 146.034C490.792 146.068 490.871 146.12 490.939 146.184C491.006 146.249 491.06 146.327 491.098 146.413C491.135 146.499 491.156 146.591 491.157 146.685C491.201 149.028 491.187 151.431 491.117 153.784C491.109 153.955 491.04 154.117 490.923 154.241C490.805 154.365 490.647 154.443 490.478 154.461L490.451 154.474ZM193.828 161.005C193.639 161.016 193.454 160.951 193.312 160.826C193.17 160.7 193.084 160.524 193.072 160.335C193.031 159.783 192.991 159.227 192.958 158.661C192.84 156.864 192.753 155.036 192.703 153.239C192.709 153.057 192.783 152.885 192.912 152.756C193.04 152.628 193.213 152.554 193.394 152.548C193.576 152.542 193.753 152.606 193.889 152.727C194.025 152.847 194.11 153.014 194.126 153.195C194.18 154.979 194.264 156.787 194.378 158.571C194.414 159.12 194.451 159.669 194.495 160.218C194.502 160.312 194.49 160.407 194.46 160.497C194.43 160.587 194.382 160.67 194.32 160.741C194.258 160.812 194.182 160.87 194.097 160.912C194.012 160.954 193.92 160.979 193.825 160.984L193.828 161.005ZM489.985 137.533C489.891 137.539 489.797 137.526 489.709 137.496C489.62 137.465 489.538 137.418 489.468 137.355C489.397 137.293 489.34 137.218 489.299 137.133C489.258 137.049 489.234 136.957 489.228 136.864C489.031 134.544 488.776 132.177 488.471 129.871L488.441 129.647C488.424 129.463 488.478 129.28 488.593 129.136C488.708 128.991 488.875 128.897 489.058 128.873C489.241 128.849 489.426 128.896 489.574 129.005C489.723 129.115 489.823 129.278 489.855 129.459L489.885 129.687C490.193 132.03 490.451 134.4 490.648 136.743C490.664 136.931 490.605 137.118 490.483 137.262C490.361 137.407 490.187 137.497 489.999 137.513L489.985 137.533ZM193.51 144.06H193.437C193.248 144.052 193.07 143.969 192.942 143.831C192.813 143.693 192.745 143.509 192.75 143.321C192.84 140.977 192.991 138.581 193.192 136.234C193.216 136.052 193.309 135.886 193.453 135.771C193.596 135.656 193.778 135.6 193.961 135.616C194.145 135.632 194.315 135.718 194.436 135.857C194.557 135.995 194.62 136.175 194.612 136.358C194.411 138.681 194.277 141.044 194.177 143.388C194.168 143.558 194.099 143.719 193.981 143.842C193.864 143.966 193.706 144.043 193.537 144.06H193.51ZM487.554 120.522C487.382 120.533 487.212 120.482 487.075 120.377C486.938 120.273 486.844 120.122 486.81 119.953C486.351 117.663 485.829 115.357 485.263 113.094C485.233 113.001 485.223 112.903 485.233 112.805C485.243 112.708 485.273 112.614 485.321 112.528C485.369 112.443 485.434 112.368 485.512 112.309C485.59 112.25 485.68 112.208 485.775 112.185C485.87 112.162 485.969 112.159 486.065 112.175C486.162 112.192 486.254 112.229 486.336 112.283C486.417 112.337 486.487 112.407 486.541 112.489C486.594 112.571 486.63 112.663 486.646 112.759C487.219 115.042 487.745 117.372 488.21 119.682C488.247 119.867 488.208 120.06 488.104 120.217C487.999 120.374 487.836 120.484 487.651 120.522C487.631 120.523 487.611 120.523 487.591 120.522H487.554ZM195.118 127.19C195.067 127.195 195.015 127.195 194.964 127.19C194.777 127.161 194.609 127.059 194.497 126.906C194.385 126.754 194.339 126.563 194.368 126.376C194.729 124.033 195.151 121.69 195.623 119.37C195.668 119.192 195.78 119.038 195.935 118.941C196.091 118.843 196.278 118.809 196.458 118.845C196.638 118.882 196.797 118.987 196.901 119.137C197.006 119.288 197.049 119.474 197.02 119.655C196.551 121.948 196.133 124.281 195.778 126.594C195.752 126.747 195.677 126.888 195.565 126.995C195.453 127.103 195.309 127.171 195.155 127.19H195.118ZM483.277 104.127C483.119 104.136 482.961 104.093 482.83 104.003C482.699 103.913 482.602 103.783 482.554 103.631C481.837 101.412 481.053 99.1793 480.233 96.9968C480.166 96.8193 480.173 96.6226 480.251 96.4499C480.33 96.2773 480.474 96.1429 480.651 96.0763C480.829 96.0098 481.026 96.0164 481.199 96.0949C481.371 96.1733 481.506 96.3172 481.572 96.4948C482.403 98.6973 483.193 100.953 483.917 103.189C483.974 103.369 483.958 103.564 483.872 103.732C483.786 103.9 483.637 104.027 483.458 104.087C483.411 104.103 483.363 104.116 483.314 104.127H483.277ZM198.674 110.587C198.594 110.591 198.514 110.582 198.437 110.56C198.346 110.536 198.262 110.494 198.188 110.437C198.114 110.379 198.052 110.308 198.006 110.227C197.96 110.146 197.931 110.056 197.92 109.963C197.908 109.871 197.916 109.776 197.941 109.687C198.567 107.41 199.257 105.121 199.991 102.875C200.009 102.774 200.048 102.678 200.106 102.594C200.164 102.51 200.24 102.439 200.328 102.387C200.416 102.335 200.514 102.302 200.616 102.291C200.718 102.28 200.821 102.291 200.918 102.323C201.015 102.355 201.104 102.408 201.179 102.478C201.254 102.548 201.313 102.633 201.352 102.727C201.391 102.822 201.41 102.924 201.406 103.026C201.402 103.128 201.376 103.229 201.33 103.32C200.603 105.543 199.92 107.812 199.301 110.065C199.265 110.2 199.189 110.322 199.085 110.415C198.98 110.507 198.85 110.567 198.711 110.587H198.674ZM477.148 88.3239C477.004 88.3321 476.861 88.2966 476.737 88.2219C476.613 88.1473 476.515 88.0369 476.455 87.9055C475.487 85.7833 474.446 83.6544 473.387 81.579C473.338 81.4955 473.307 81.4027 473.294 81.3065C473.282 81.2103 473.29 81.1126 473.317 81.0194C473.344 80.9262 473.389 80.8395 473.451 80.7646C473.513 80.6897 473.589 80.6281 473.675 80.5836C473.761 80.5391 473.856 80.5127 473.953 80.506C474.049 80.4992 474.146 80.5123 474.238 80.5444C474.33 80.5765 474.414 80.6269 474.485 80.6925C474.557 80.7582 474.614 80.8377 474.653 80.9263C475.732 83.0217 476.773 85.1707 477.751 87.3163C477.83 87.4882 477.837 87.6841 477.771 87.861C477.705 88.038 477.571 88.1816 477.4 88.2603C477.332 88.2921 477.259 88.3135 477.185 88.3239H477.148ZM204.143 94.5098C204.037 94.516 203.931 94.4989 203.832 94.4596C203.659 94.3882 203.521 94.2517 203.447 94.0795C203.374 93.9073 203.371 93.7132 203.44 93.539C204.324 91.3532 205.269 89.1574 206.257 87.0117C206.337 86.8421 206.481 86.711 206.658 86.6469C206.834 86.5827 207.029 86.5908 207.199 86.6692C207.37 86.7476 207.503 86.8901 207.569 87.0658C207.635 87.2415 207.629 87.4362 207.553 87.6076C206.575 89.7298 205.637 91.9056 204.763 94.0713C204.711 94.1953 204.626 94.3022 204.516 94.3797C204.407 94.4573 204.278 94.5024 204.143 94.5098ZM469.292 73.3379C469.16 73.3504 469.027 73.3257 468.909 73.2665C468.79 73.2073 468.691 73.1161 468.622 73.0032C467.42 70.9948 466.15 69.0165 464.854 67.0817C464.802 67.0039 464.766 66.9166 464.747 66.8248C464.729 66.733 464.729 66.6384 464.747 66.5466C464.765 66.4547 464.801 66.3674 464.853 66.2895C464.905 66.2116 464.972 66.1447 465.05 66.0926C465.128 66.0405 465.215 66.0042 465.307 65.9859C465.399 65.9675 465.494 65.9674 465.585 65.9856C465.677 66.0038 465.765 66.0399 465.843 66.0919C465.921 66.1438 465.988 66.2106 466.04 66.2884C467.349 68.2432 468.628 70.255 469.841 72.2701C469.905 72.3745 469.94 72.4937 469.944 72.6159C469.948 72.7382 469.921 72.8594 469.864 72.9679C469.808 73.0763 469.724 73.1683 469.621 73.2349C469.519 73.3015 469.4 73.3404 469.278 73.3479L469.292 73.3379ZM211.377 79.1656C211.243 79.1753 211.11 79.1463 210.992 79.0819C210.827 78.9907 210.704 78.8379 210.651 78.6568C210.597 78.4756 210.618 78.2807 210.707 78.1145C211.833 76.0459 213.022 73.9705 214.244 71.9554C214.289 71.8697 214.352 71.7941 214.428 71.7333C214.503 71.6726 214.591 71.6279 214.684 71.602C214.778 71.5761 214.876 71.5696 214.972 71.5828C215.068 71.5961 215.16 71.6288 215.243 71.6789C215.326 71.7291 215.398 71.7957 215.455 71.8747C215.511 71.9536 215.551 72.0433 215.572 72.1381C215.592 72.2329 215.593 72.3309 215.574 72.4262C215.556 72.5214 215.518 72.6118 215.463 72.6918C214.254 74.7002 213.072 76.7455 211.96 78.794C211.903 78.9007 211.819 78.9908 211.717 79.0559C211.615 79.1209 211.498 79.1587 211.377 79.1656ZM459.734 59.3628C459.617 59.3693 459.501 59.3474 459.394 59.299C459.288 59.2506 459.195 59.1771 459.124 59.0849C457.697 57.2372 456.21 55.4029 454.703 53.6254C454.581 53.4816 454.521 53.2952 454.537 53.1072C454.552 52.9192 454.641 52.745 454.785 52.6229C454.929 52.5008 455.116 52.4409 455.304 52.4563C455.492 52.4716 455.666 52.5611 455.788 52.7049C457.312 54.4957 458.803 56.3501 460.253 58.2146C460.31 58.289 460.353 58.374 460.378 58.4649C460.402 58.5557 460.409 58.6506 460.397 58.7439C460.384 58.8373 460.354 58.9273 460.307 59.0088C460.26 59.0903 460.197 59.1617 460.122 59.2188C460.01 59.3045 459.875 59.3547 459.734 59.3628ZM220.309 64.752C220.175 64.7615 220.041 64.7327 219.922 64.669C219.804 64.6053 219.706 64.5093 219.64 64.3922C219.574 64.275 219.543 64.1416 219.55 64.0074C219.557 63.8731 219.602 63.7436 219.679 63.6339C221.019 61.7025 222.449 59.7812 223.893 57.9167C223.95 57.8429 224.021 57.781 224.102 57.7346C224.183 57.6883 224.272 57.6583 224.365 57.6465C224.458 57.6347 224.552 57.6413 224.642 57.6658C224.732 57.6903 224.817 57.7324 224.891 57.7895C224.964 57.8467 225.026 57.9178 225.073 57.9988C225.119 58.0799 225.149 58.1693 225.161 58.2619C225.173 58.3546 225.166 58.4486 225.142 58.5387C225.117 58.6288 225.075 58.7132 225.018 58.787C223.591 60.6347 222.185 62.5394 220.845 64.4507C220.784 64.5382 220.704 64.6108 220.612 64.6629C220.519 64.7151 220.415 64.7456 220.309 64.752ZM448.642 46.5625C448.538 46.569 448.435 46.5533 448.339 46.5163C448.242 46.4794 448.155 46.4221 448.082 46.3483C446.458 44.6747 444.77 43.001 443.059 41.421C442.984 41.3589 442.922 41.2821 442.878 41.1954C442.834 41.1086 442.808 41.0137 442.802 40.9166C442.796 40.8194 442.81 40.722 442.843 40.6305C442.876 40.5389 442.927 40.455 442.994 40.384C443.06 40.313 443.141 40.2565 443.23 40.2178C443.32 40.1791 443.416 40.1591 443.513 40.159C443.611 40.159 443.707 40.1788 443.797 40.2174C443.886 40.256 443.967 40.3125 444.033 40.3834C445.755 41.9934 447.456 43.6637 449.097 45.3542C449.192 45.4516 449.257 45.5742 449.284 45.7074C449.312 45.8406 449.301 45.9788 449.252 46.1059C449.203 46.2329 449.119 46.3433 449.01 46.4243C448.901 46.5052 448.771 46.5532 448.635 46.5625H448.642ZM230.812 51.443C230.718 51.4504 230.623 51.4386 230.534 51.408C230.444 51.3775 230.362 51.329 230.292 51.2656C230.222 51.2037 230.165 51.1286 230.124 51.0446C230.083 50.9606 230.059 50.8693 230.054 50.776C230.048 50.6827 230.061 50.5892 230.091 50.5008C230.122 50.4125 230.17 50.3311 230.232 50.2614C231.793 48.4973 233.42 46.7466 235.061 45.0596C235.125 44.9835 235.204 44.9215 235.292 44.8775C235.381 44.8335 235.478 44.8084 235.577 44.804C235.676 44.7995 235.775 44.8157 235.867 44.8515C235.96 44.8874 236.044 44.942 236.114 45.0121C236.184 45.0821 236.238 45.166 236.274 45.2583C236.31 45.3507 236.326 45.4495 236.322 45.5484C236.317 45.6474 236.292 45.7443 236.248 45.833C236.204 45.9218 236.142 46.0003 236.066 46.0638C234.439 47.7375 232.831 49.468 231.28 51.2153C231.159 51.3483 230.991 51.4288 230.812 51.4396V51.443ZM436.156 35.0946C435.977 35.1064 435.799 35.0489 435.661 34.9339C433.856 33.4577 431.977 32.0016 430.115 30.6091C430.04 30.5533 429.976 30.4832 429.928 30.4029C429.88 30.3226 429.848 30.2335 429.834 30.1409C429.821 30.0483 429.825 29.9539 429.848 29.863C429.871 29.7722 429.912 29.6868 429.967 29.6116C430.023 29.5365 430.093 29.473 430.174 29.425C430.254 29.3769 430.343 29.3451 430.436 29.3314C430.529 29.3177 430.623 29.3224 430.714 29.3453C430.805 29.3681 430.89 29.4085 430.965 29.4644C432.858 30.8702 434.74 32.3397 436.565 33.8159C436.676 33.9068 436.756 34.0289 436.796 34.1662C436.836 34.3035 436.834 34.4497 436.79 34.5858C436.746 34.7219 436.662 34.8416 436.549 34.9293C436.436 35.0171 436.299 35.0688 436.156 35.0778V35.0946ZM242.751 39.416C242.643 39.4237 242.535 39.4066 242.436 39.3659C242.336 39.3253 242.246 39.2622 242.175 39.1817C242.049 39.0412 241.984 38.8567 241.994 38.6685C242.004 38.4803 242.089 38.3038 242.228 38.1775C243.98 36.6009 245.792 35.0511 247.617 33.5615C247.689 33.5024 247.773 33.4581 247.862 33.4311C247.952 33.4042 248.045 33.3951 248.138 33.4044C248.231 33.4138 248.322 33.4413 248.404 33.4855C248.486 33.5297 248.559 33.5896 248.618 33.6619C248.677 33.7342 248.722 33.8175 248.749 33.9069C248.776 33.9963 248.785 34.0902 248.775 34.1831C248.766 34.2761 248.739 34.3663 248.694 34.4486C248.65 34.5309 248.59 34.6036 248.518 34.6628C246.713 36.1389 244.918 37.6754 243.183 39.2352C243.063 39.3407 242.911 39.4031 242.751 39.4126V39.416ZM422.466 25.1095C422.313 25.12 422.161 25.08 422.034 24.9957C420.071 23.7304 418.048 22.4952 416.029 21.3136C415.873 21.2149 415.761 21.0597 415.717 20.8805C415.674 20.7014 415.701 20.5122 415.794 20.3527C415.887 20.1933 416.037 20.076 416.215 20.0254C416.392 19.9749 416.583 19.9951 416.746 20.0818C418.785 21.2634 420.825 22.5119 422.804 23.7906C422.929 23.8719 423.026 23.9903 423.08 24.1293C423.134 24.2682 423.143 24.4207 423.106 24.5651C423.069 24.7096 422.988 24.8389 422.874 24.9348C422.759 25.0306 422.618 25.0882 422.469 25.0994L422.466 25.1095ZM255.989 28.825C255.868 28.834 255.747 28.8113 255.637 28.759C255.527 28.7068 255.433 28.6269 255.363 28.5271C255.307 28.4505 255.267 28.3635 255.245 28.2713C255.224 28.179 255.22 28.0834 255.236 27.9899C255.252 27.8964 255.286 27.8069 255.336 27.7267C255.387 27.6465 255.453 27.5773 255.531 27.5229C257.45 26.1605 259.426 24.8249 261.405 23.5563C261.484 23.5003 261.573 23.4609 261.667 23.4404C261.761 23.4199 261.859 23.4188 261.954 23.437C262.048 23.4553 262.139 23.4926 262.218 23.5467C262.298 23.6008 262.367 23.6706 262.419 23.7517C262.471 23.8329 262.506 23.9238 262.522 24.019C262.538 24.1142 262.535 24.2116 262.512 24.3053C262.489 24.3991 262.447 24.4873 262.39 24.5645C262.332 24.6417 262.259 24.7064 262.175 24.7547C260.213 26.0133 258.257 27.3355 256.355 28.6844C256.246 28.7691 256.114 28.8182 255.976 28.825H255.989ZM407.7 16.7411C407.576 16.7503 407.452 16.7248 407.342 16.6675C405.245 15.6332 403.098 14.6357 400.955 13.7018C400.791 13.6202 400.665 13.479 400.603 13.3072C400.54 13.1355 400.546 12.9463 400.619 12.7787C400.692 12.6112 400.827 12.4781 400.995 12.4069C401.164 12.3357 401.353 12.3319 401.524 12.3963C403.688 13.3369 405.858 14.3478 407.971 15.3922C408.107 15.4644 408.215 15.5784 408.28 15.7172C408.346 15.856 408.365 16.0122 408.334 16.1626C408.304 16.3129 408.226 16.4495 408.111 16.5519C407.997 16.6543 407.853 16.7171 407.7 16.7311V16.7411ZM270.323 19.8207C270.16 19.8331 269.998 19.7891 269.863 19.6961C269.729 19.6031 269.63 19.4668 269.585 19.3099C269.539 19.153 269.548 18.9852 269.611 18.8344C269.674 18.6836 269.787 18.5591 269.931 18.4818C271.998 17.347 274.118 16.2424 276.234 15.2081C276.402 15.1374 276.591 15.1336 276.761 15.1975C276.932 15.2614 277.072 15.3881 277.152 15.5517C277.232 15.7152 277.246 15.9032 277.192 16.0771C277.138 16.251 277.019 16.3975 276.861 16.4867C274.764 17.511 272.664 18.6056 270.618 19.7303C270.526 19.7839 270.423 19.8149 270.317 19.8207H270.323ZM392.083 10.1134C391.986 10.1197 391.888 10.106 391.795 10.0733C389.595 9.28328 387.345 8.53682 385.097 7.85397C385.004 7.83045 384.916 7.78812 384.839 7.72957C384.762 7.67101 384.698 7.59746 384.65 7.51335C384.602 7.42924 384.573 7.33634 384.562 7.2403C384.551 7.14425 384.56 7.04704 384.589 6.95462C384.617 6.86219 384.663 6.77645 384.726 6.70261C384.788 6.62876 384.865 6.56835 384.951 6.52504C385.038 6.48174 385.132 6.45645 385.228 6.4507C385.325 6.44495 385.422 6.45887 385.513 6.4916C387.77 7.18115 390.041 7.9343 392.264 8.73432C392.42 8.78819 392.552 8.89436 392.638 9.03471C392.723 9.17505 392.758 9.34085 392.735 9.50373C392.712 9.66661 392.633 9.81648 392.512 9.92768C392.391 10.0389 392.234 10.1045 392.07 10.1134H392.083ZM285.618 12.5202C285.449 12.5314 285.281 12.482 285.145 12.3809C285.009 12.2797 284.913 12.1333 284.876 11.9681C284.838 11.8028 284.86 11.6295 284.938 11.4791C285.017 11.3288 285.146 11.2113 285.303 11.1477C287.484 10.2573 289.717 9.40377 291.938 8.61715C292.111 8.56953 292.296 8.58918 292.456 8.67217C292.616 8.75515 292.738 8.89534 292.798 9.06466C292.859 9.23397 292.853 9.4199 292.783 9.58521C292.712 9.75051 292.581 9.88299 292.417 9.95608C290.213 10.736 288.003 11.5795 285.843 12.4632C285.769 12.4908 285.691 12.5066 285.612 12.5101L285.618 12.5202ZM375.8 5.30663C375.732 5.3167 375.662 5.3167 375.593 5.30663C373.312 4.7744 370.991 4.30243 368.691 3.86728C368.509 3.8291 368.349 3.72155 368.245 3.56748C368.142 3.41341 368.102 3.22499 368.135 3.0423C368.169 2.8596 368.272 2.69704 368.423 2.58919C368.574 2.48133 368.761 2.43668 368.945 2.46475C371.269 2.8932 373.614 3.38192 375.914 3.9175C376.081 3.95618 376.228 4.0534 376.329 4.19143C376.43 4.32946 376.478 4.49912 376.464 4.6695C376.45 4.83988 376.376 4.99965 376.254 5.11967C376.132 5.23969 375.971 5.31198 375.8 5.32338V5.30663ZM301.653 7.01043C301.479 7.01914 301.307 6.96364 301.171 6.85447C301.035 6.74529 300.944 6.59 300.914 6.41801C300.885 6.24601 300.92 6.06926 301.012 5.9212C301.105 5.77314 301.248 5.66405 301.416 5.6146C303.683 4.97861 305.997 4.38613 308.298 3.85725C308.389 3.83527 308.484 3.83147 308.576 3.84607C308.669 3.86067 308.758 3.89339 308.838 3.94234C308.918 3.9913 308.988 4.05553 309.043 4.13138C309.098 4.20724 309.138 4.29324 309.16 4.38446C309.182 4.47567 309.186 4.57031 309.171 4.66299C309.157 4.75567 309.124 4.84456 309.075 4.9246C309.026 5.00464 308.962 5.07427 308.886 5.12948C308.81 5.18469 308.724 5.2244 308.633 5.24638C306.355 5.76856 304.065 6.35435 301.817 6.987C301.761 6.99797 301.704 7.00245 301.647 7.00038L301.653 7.01043ZM359.079 2.40114C359.035 2.40615 358.992 2.40615 358.948 2.40114C356.631 2.13336 354.26 1.92249 351.945 1.76516C351.851 1.76075 351.758 1.7375 351.672 1.69678C351.587 1.65606 351.51 1.59869 351.447 1.52801C351.384 1.45733 351.335 1.37476 351.304 1.28515C351.273 1.19553 351.261 1.10065 351.267 1.00607C351.273 0.91149 351.298 0.819113 351.341 0.734322C351.383 0.64953 351.442 0.574025 351.514 0.512242C351.586 0.450459 351.669 0.403639 351.759 0.374499C351.85 0.345359 351.945 0.334499 352.039 0.342546C354.384 0.499871 356.771 0.717442 359.112 0.985229C359.289 1.00606 359.451 1.09188 359.567 1.22594C359.684 1.36 359.746 1.53265 359.742 1.7101C359.738 1.88756 359.667 2.05706 359.545 2.18548C359.422 2.3139 359.256 2.392 359.079 2.4045V2.40114ZM318.221 3.36518C318.037 3.37757 317.856 3.31871 317.715 3.20084C317.574 3.08297 317.484 2.91521 317.464 2.73257C317.444 2.54993 317.495 2.36648 317.606 2.22054C317.718 2.0746 317.882 1.97742 318.063 1.94926C319.514 1.71495 320.991 1.50073 322.451 1.30658C323.332 1.19277 324.222 1.08231 325.1 0.971847C325.195 0.957565 325.291 0.962517 325.384 0.986434C325.477 1.01035 325.564 1.05273 325.64 1.11104C325.716 1.16935 325.78 1.24238 325.827 1.32578C325.874 1.40919 325.904 1.50125 325.915 1.59647C325.926 1.69168 325.917 1.78811 325.89 1.87996C325.863 1.97182 325.817 2.05723 325.756 2.13109C325.695 2.20496 325.619 2.26574 325.534 2.30984C325.449 2.35394 325.356 2.38045 325.261 2.38776C324.393 2.48484 323.509 2.5953 322.638 2.7225C321.191 2.91329 319.728 3.12752 318.284 3.36183L318.221 3.36518ZM342.16 1.43378H342.089C339.745 1.43378 337.401 1.49069 335.056 1.60115C334.872 1.60437 334.694 1.5361 334.558 1.41069C334.423 1.28528 334.342 1.11247 334.332 0.928473C334.321 0.744477 334.383 0.563594 334.503 0.423778C334.623 0.283962 334.792 0.196075 334.976 0.17853C337.32 0.0647205 339.722 0.0078125 342.076 0.0078125C342.258 0.0127507 342.431 0.0868192 342.559 0.214917C342.688 0.343014 342.764 0.515475 342.77 0.697056C342.775 0.878637 342.712 1.05565 342.592 1.19194C342.471 1.32824 342.304 1.41355 342.123 1.43043L342.16 1.43378Z" fill="#DEDEDE"/>
<path d="M365.555 88.5725V333.644H364.912L346.348 315.589L327.785 333.644H325.849L307.285 315.589L288.718 333.644H286.813L268.279 315.622L249.749 333.644H247.85L229.3 315.602L210.747 333.644H208.791L190.237 315.602L171.684 333.644H169.751L151.235 315.636L132.718 333.644H131.492V20.4609H297.409L365.555 88.5725Z" fill="#F2F2F2"/>
<path d="M365.556 88.5725H297.41V20.4609L365.556 88.5725Z" fill="#DEDEDE"/>
<path d="M246.702 405.585C245.935 406.351 245.025 406.959 244.024 407.374C243.022 407.789 241.948 408.003 240.864 408.003C239.78 408.003 238.706 407.789 237.705 407.374C236.703 406.959 235.793 406.351 235.027 405.585L184.902 355.485L178.539 349.125C183.179 346.062 187.15 342.092 190.214 337.453L246.708 393.923C248.254 395.47 249.122 397.568 249.121 399.755C249.12 401.942 248.249 404.039 246.702 405.585Z" fill="#9C9C9C"/>
<path d="M192.746 339.98L205.807 353.035C202.745 357.673 198.775 361.642 194.135 364.704L187.437 358.009L181.074 351.649C185.713 348.587 189.683 344.618 192.746 339.98Z" fill="#5E5E5E"/>
<path d="M205.76 312.79C205.67 310.702 205.446 308.621 205.09 306.561C202.99 294.267 196.349 283.208 186.481 275.575C176.612 267.941 164.236 264.289 151.802 265.342C139.368 266.394 127.783 272.074 119.339 281.257C110.895 290.44 106.209 302.457 106.207 314.929C106.207 316.809 106.312 318.688 106.522 320.556C107.158 326.222 108.77 331.735 111.288 336.851C114.822 344.032 120.031 350.258 126.475 355.007C127.518 355.777 128.591 356.505 129.694 357.193C138.038 362.377 147.73 364.98 157.55 364.674C167.37 364.367 176.881 361.166 184.886 355.472C189.396 352.256 193.341 348.314 196.56 343.807C202.58 335.384 205.808 325.287 205.79 314.936C205.801 314.222 205.791 313.507 205.76 312.79ZM156.014 355.851C145.157 355.851 134.745 351.54 127.068 343.867C119.391 336.194 115.079 325.787 115.079 314.936C115.079 304.085 119.391 293.678 127.068 286.005C134.745 278.332 145.157 274.022 156.014 274.022C157.805 274.017 159.595 274.129 161.372 274.356C171.219 275.652 180.259 280.482 186.807 287.946C193.356 295.41 196.966 304.999 196.965 314.926C196.965 315.549 196.952 316.168 196.925 316.784C196.601 324.144 194.286 331.28 190.227 337.43C186.408 343.229 181.176 347.961 175.023 351.181C172.405 352.555 169.644 353.638 166.791 354.411C163.279 355.369 159.654 355.856 156.014 355.857V355.851Z" fill="#B8B8B8"/>
<path d="M125.017 319.438C124.003 319.438 123.031 319.035 122.315 318.319C121.598 317.603 121.195 316.631 121.195 315.618C121.195 306.208 124.935 297.183 131.593 290.529C138.25 283.875 147.28 280.137 156.695 280.137C157.689 280.166 158.633 280.582 159.326 281.295C160.019 282.008 160.406 282.963 160.406 283.958C160.406 284.952 160.019 285.907 159.326 286.62C158.633 287.334 157.689 287.749 156.695 287.779C149.308 287.779 142.223 290.712 136.999 295.933C131.776 301.154 128.841 308.235 128.841 315.618C128.841 316.12 128.742 316.617 128.55 317.081C128.358 317.544 128.076 317.966 127.721 318.32C127.366 318.675 126.944 318.956 126.48 319.148C126.016 319.34 125.519 319.438 125.017 319.438Z" fill="white"/>
<path d="M192.8 179.3V148.4L176.6 179.3H192.8ZM202.7 202H194.9C193.5 202 192.8 201.3 192.8 199.9V190.3H168C166.867 190.3 165.967 189.967 165.3 189.3C164.633 188.633 164.3 187.733 164.3 186.6V182.7C164.3 180.7 164.633 179.067 165.3 177.8L185.2 140.8C185.867 139.6 186.467 138.8 187 138.4C187.6 137.933 188.467 137.7 189.6 137.7H200.9C202.033 137.7 202.933 138.033 203.6 138.7C204.333 139.367 204.7 140.267 204.7 141.4V179.3H211.9C213.233 179.3 213.9 179.967 213.9 181.3V188C213.9 189.533 213.233 190.3 211.9 190.3H204.7V199.9C204.7 200.7 204.533 201.267 204.2 201.6C203.933 201.867 203.433 202 202.7 202ZM246.002 191H251.902C254.035 191 255.535 190.567 256.402 189.7C257.268 188.767 257.702 187.233 257.702 185.1V154.6C257.702 152.467 257.268 150.967 256.402 150.1C255.535 149.167 254.035 148.7 251.902 148.7H246.002C243.868 148.7 242.368 149.167 241.502 150.1C240.635 150.967 240.202 152.467 240.202 154.6V185.1C240.202 187.233 240.635 188.767 241.502 189.7C242.368 190.567 243.868 191 246.002 191ZM253.902 202H243.902C238.635 202 234.568 200.6 231.702 197.8C228.835 195 227.402 190.967 227.402 185.7V154C227.402 148.733 228.835 144.7 231.702 141.9C234.568 139.1 238.635 137.7 243.902 137.7H253.902C259.102 137.7 263.135 139.133 266.002 142C268.868 144.8 270.302 148.8 270.302 154V185.7C270.302 190.9 268.868 194.933 266.002 197.8C263.135 200.6 259.102 202 253.902 202ZM314.515 179.3V148.4L298.315 179.3H314.515ZM324.415 202H316.615C315.215 202 314.515 201.3 314.515 199.9V190.3H289.715C288.582 190.3 287.682 189.967 287.015 189.3C286.348 188.633 286.015 187.733 286.015 186.6V182.7C286.015 180.7 286.348 179.067 287.015 177.8L306.915 140.8C307.582 139.6 308.182 138.8 308.715 138.4C309.315 137.933 310.182 137.7 311.315 137.7H322.615C323.748 137.7 324.648 138.033 325.315 138.7C326.048 139.367 326.415 140.267 326.415 141.4V179.3H333.615C334.948 179.3 335.615 179.967 335.615 181.3V188C335.615 189.533 334.948 190.3 333.615 190.3H326.415V199.9C326.415 200.7 326.248 201.267 325.915 201.6C325.648 201.867 325.148 202 324.415 202Z" fill="#232F6A"/>
</g>
<defs>
<clipPath id="clip0_4261_99959">
<rect width="504" height="408" fill="white"/>
</clipPath>
</defs>
</svg>
