<svg width="1453" height="133" viewBox="0 0 1453 133" fill="none" xmlns="http://www.w3.org/2000/svg">
<path d="M1302.09 94.5564H1267.91C1263.99 94.5564 1260.23 93.0009 1257.46 90.2323C1254.69 87.4636 1253.13 83.7085 1253.13 79.793V53.603C1253.13 51.4664 1253.59 49.3548 1254.49 47.415C1255.39 45.4751 1256.69 43.7535 1258.32 42.3698C1260.99 40.0885 1264.39 38.8377 1267.91 38.8438H1302.09L1302.09 94.5564Z" fill="#2B3872"/>
<path d="M1381.78 123.659H1313.48C1310.98 123.659 1308.49 123.166 1306.18 122.207C1303.86 121.248 1301.75 119.842 1299.98 118.07C1298.21 116.298 1296.8 114.195 1295.84 111.88C1294.88 109.565 1294.39 107.084 1294.39 104.579V28.8261C1294.39 23.7668 1296.4 18.9147 1299.98 15.3373C1303.56 11.7598 1308.42 9.75 1313.48 9.75H1381.77L1381.78 123.659Z" fill="#4656A1"/>
<path d="M1381.78 2.96712V130.441C1381.78 131.824 1382.9 132.945 1384.29 132.945H1394.31C1395.69 132.945 1396.81 131.824 1396.81 130.441V2.96712C1396.81 1.58392 1395.69 0.462692 1394.31 0.462692H1384.29C1382.9 0.462692 1381.78 1.58392 1381.78 2.96712Z" fill="#38488C"/>
<path d="M1396.81 49.6092V30.1953H1443.28C1444.56 30.1953 1445.82 30.4465 1447 30.9344C1448.18 31.4224 1449.25 32.1376 1450.15 33.0393C1451.06 33.9409 1451.77 35.0112 1452.26 36.1892C1452.75 37.3671 1453 38.6295 1453 39.9043C1453 42.4782 1451.97 44.9467 1450.15 46.7667C1448.33 48.5867 1445.86 49.6092 1443.28 49.6092H1396.81Z" fill="#232851"/>
<path d="M1453 93.502C1453 96.0759 1451.98 98.5444 1450.15 100.364C1448.33 102.184 1445.86 103.207 1443.29 103.207H1396.82V83.793H1443.29C1445.86 83.793 1448.33 84.8155 1450.15 86.6355C1451.98 88.4555 1453 90.924 1453 93.4979V93.502Z" fill="#232851"/>
<path d="M1381.78 123.659H1313.48C1310.98 123.659 1308.49 123.166 1306.18 122.207C1303.86 121.248 1301.75 119.842 1299.98 118.07C1298.21 116.298 1296.8 114.195 1295.84 111.88C1294.88 109.565 1294.39 107.084 1294.39 104.579V28.8261C1294.39 23.7668 1296.4 18.9147 1299.98 15.3373C1303.56 11.7598 1308.42 9.75 1313.48 9.75C1319.17 91.5455 1381.77 99.059 1381.77 99.059L1381.78 123.659Z" fill="#38488C"/>
<path d="M1352.92 123.658H1313.48C1310.98 123.658 1308.49 123.164 1306.18 122.205C1303.86 121.247 1301.75 119.841 1299.98 118.069C1298.21 116.297 1296.8 114.194 1295.84 111.879C1294.88 109.564 1294.39 107.083 1294.39 104.578V51.3984C1294.4 105.093 1352.92 123.658 1352.92 123.658Z" fill="#2B3872"/>
<path d="M1403.62 49.6092V30.1953H1396.81V49.6092H1403.62Z" fill="#15172D"/>
<path d="M1403.62 103.211V83.7969H1396.81V103.211H1403.62Z" fill="#15172D"/>
<path d="M1294.4 94.5576H1267.91C1263.99 94.5576 1260.23 93.0022 1257.46 90.2336C1254.69 87.4649 1253.13 83.7098 1253.13 79.7943V53.6042C1253.13 51.4677 1253.59 49.3561 1254.49 47.4162C1255.39 45.4764 1256.69 43.7548 1258.32 42.3711C1253.31 83.1803 1294.4 89.4127 1294.4 89.4127L1294.4 94.5576Z" fill="#232851"/>
<path d="M846.22 70.1671L836.217 66.5175L845.828 63.012L835.875 59.383L847.485 55.1484H819.754H-90V78.2614H819.754H847.485V78.2449L835.776 73.9733L846.22 70.1671Z" fill="#2C447D"/>
<path d="M1061.77 55.1484H1034.04V55.1649L1045.75 59.4366L1035.3 63.2427L1045.31 66.8924L1035.7 70.3978L1045.65 74.0268L1034.04 78.2614H1061.77H1253.13V55.1484H1061.77Z" fill="#2C447D"/>
<path d="M861.694 18.043H867.928C868.353 18.043 868.761 18.2118 869.062 18.5123C869.363 18.8128 869.532 19.2204 869.532 19.6454C869.53 20.07 869.361 20.4769 869.061 20.7772C868.76 21.0775 868.353 21.2466 867.928 21.2477H861.694C861.483 21.2477 861.275 21.2063 861.08 21.1258C860.885 21.0452 860.708 20.9272 860.56 20.7784C860.411 20.6296 860.293 20.4529 860.212 20.2585C860.131 20.0641 860.09 19.8558 860.09 19.6454C860.09 19.2204 860.259 18.8128 860.56 18.5123C860.86 18.2118 861.268 18.043 861.694 18.043Z" fill="#2B3872"/>
<path d="M884.973 19.6157C884.979 19.8299 884.942 20.0432 884.864 20.2428C884.786 20.4425 884.669 20.6245 884.52 20.7781C884.37 20.9318 884.191 21.0539 883.994 21.1372C883.796 21.2206 883.584 21.2635 883.369 21.2634H877.135C876.924 21.2634 876.716 21.2219 876.521 21.1414C876.327 21.0609 876.15 20.9428 876.001 20.794C875.852 20.6452 875.734 20.4686 875.653 20.2742C875.573 20.0798 875.531 19.8714 875.531 19.661C875.531 19.236 875.7 18.8285 876.001 18.528C876.302 18.2274 876.71 18.0586 877.135 18.0586H883.32C883.742 18.0569 884.15 18.2176 884.457 18.5073C884.765 18.7971 884.95 19.1939 884.973 19.6157Z" fill="#2B3872"/>
<path d="M874.133 8.81332V15.0416C874.133 15.4666 873.965 15.8741 873.664 16.1746C873.363 16.4751 872.955 16.644 872.53 16.644C872.104 16.644 871.696 16.4751 871.395 16.1746C871.095 15.8741 870.926 15.4666 870.926 15.0416V8.81332C870.926 8.38835 871.095 7.98079 871.395 7.68028C871.696 7.37978 872.104 7.21094 872.53 7.21094C872.955 7.21094 873.363 7.37978 873.664 7.68028C873.965 7.98079 874.133 8.38835 874.133 8.81332Z" fill="#2B3872"/>
<path d="M872.53 22.6406C872.955 22.6406 873.363 22.8095 873.664 23.11C873.965 23.4105 874.133 23.818 874.133 24.243V30.4713C874.133 30.8963 873.965 31.3039 873.664 31.6044C873.363 31.9049 872.955 32.0737 872.53 32.0737C872.104 32.0737 871.696 31.9049 871.395 31.6044C871.095 31.3039 870.926 30.8963 870.926 30.4713V24.243C870.926 24.0326 870.967 23.8242 871.048 23.6298C871.128 23.4354 871.247 23.2588 871.395 23.11C871.544 22.9612 871.721 22.8431 871.916 22.7626C872.11 22.6821 872.319 22.6406 872.53 22.6406Z" fill="#2B3872"/>
<path d="M1006.25 103.586H1012.58C1013.02 103.591 1013.43 103.767 1013.74 104.076C1014.04 104.384 1014.21 104.8 1014.21 105.234C1014.21 105.447 1014.17 105.659 1014.09 105.856C1014.01 106.053 1013.89 106.232 1013.73 106.383C1013.58 106.533 1013.4 106.653 1013.21 106.734C1013.01 106.816 1012.8 106.857 1012.58 106.857H1006.25C1006.04 106.857 1005.82 106.816 1005.63 106.734C1005.43 106.653 1005.25 106.533 1005.1 106.382C1004.95 106.232 1004.83 106.053 1004.75 105.855C1004.67 105.658 1004.62 105.447 1004.63 105.234C1004.62 105.018 1004.66 104.804 1004.74 104.604C1004.82 104.404 1004.94 104.222 1005.09 104.069C1005.24 103.915 1005.42 103.794 1005.62 103.711C1005.82 103.628 1006.03 103.585 1006.25 103.586Z" fill="#2B3872"/>
<path d="M1029.88 105.185C1029.89 105.404 1029.85 105.621 1029.77 105.824C1029.68 106.026 1029.56 106.21 1029.41 106.363C1029.25 106.514 1029.08 106.633 1028.88 106.715C1028.68 106.796 1028.47 106.838 1028.26 106.837H1021.93C1021.71 106.84 1021.5 106.801 1021.3 106.721C1021.1 106.641 1020.92 106.522 1020.76 106.371C1020.61 106.22 1020.49 106.04 1020.4 105.841C1020.32 105.642 1020.28 105.429 1020.28 105.214C1020.28 104.777 1020.45 104.358 1020.76 104.049C1021.07 103.74 1021.49 103.566 1021.93 103.566H1028.22C1028.65 103.562 1029.07 103.73 1029.38 104.033C1029.7 104.336 1029.88 104.75 1029.88 105.185Z" fill="#2B3872"/>
<path d="M1018.88 94.2199V100.564C1018.88 100.997 1018.71 101.413 1018.4 101.721C1018.1 102.03 1017.68 102.206 1017.25 102.211C1016.82 102.206 1016.4 102.03 1016.1 101.721C1015.79 101.413 1015.62 100.997 1015.62 100.564V94.2199C1015.58 93.9845 1015.6 93.7438 1015.66 93.5144C1015.73 93.2849 1015.84 93.0722 1016 92.8909C1016.15 92.7095 1016.34 92.5639 1016.56 92.4641C1016.78 92.3642 1017.01 92.3125 1017.25 92.3125C1017.49 92.3125 1017.73 92.3642 1017.94 92.4641C1018.16 92.5639 1018.35 92.7095 1018.51 92.8909C1018.66 93.0722 1018.77 93.2849 1018.84 93.5144C1018.9 93.7438 1018.92 93.9845 1018.88 94.2199Z" fill="#2B3872"/>
<path d="M1017.25 108.254C1017.68 108.259 1018.1 108.432 1018.4 108.736C1018.7 109.04 1018.88 109.451 1018.88 109.881V116.216C1018.82 116.603 1018.62 116.956 1018.32 117.21C1018.03 117.465 1017.65 117.604 1017.25 117.604C1016.86 117.604 1016.48 117.465 1016.18 117.21C1015.88 116.956 1015.69 116.603 1015.62 116.216V109.889C1015.63 109.458 1015.8 109.045 1016.11 108.739C1016.41 108.434 1016.82 108.259 1017.25 108.254Z" fill="#2B3872"/>
<path d="M896.438 52.4861L901.312 55.1472L896.438 57.8082L893.775 62.6771L891.112 57.8082L886.242 55.1472L891.112 52.4861L893.775 47.6172L896.438 52.4861Z" fill="#2B3872"/>
<path d="M1007.97 24.6929L1012.84 27.354L1007.97 30.015L1005.3 34.8839L1002.63 30.015L997.766 27.354L1002.63 24.6929L1005.3 19.8281L1007.97 24.6929Z" fill="#2B3872"/>
<path d="M962.612 62.6641C961.161 62.6641 959.742 63.0942 958.535 63.9C957.328 64.7059 956.387 65.8513 955.832 67.1913C955.276 68.5314 955.131 70.0058 955.415 71.4282C955.698 72.8507 956.398 74.1571 957.424 75.1824C958.451 76.2077 959.759 76.9057 961.183 77.1881C962.607 77.4706 964.083 77.3248 965.424 76.7692C966.765 76.2136 967.911 75.2732 968.717 74.0669C969.523 72.8605 969.952 71.4425 969.952 69.9922C969.952 69.0295 969.762 68.0762 969.393 67.1869C969.024 66.2975 968.483 65.4895 967.802 64.809C967.12 64.1284 966.311 63.5887 965.421 63.2207C964.53 62.8527 963.576 62.6635 962.612 62.6641ZM962.612 74.0661C961.806 74.0661 961.018 73.8271 960.347 73.3795C959.676 72.9318 959.154 72.2956 958.845 71.5512C958.537 70.8068 958.456 69.9877 958.613 69.1974C958.77 68.4071 959.159 67.6812 959.729 67.1115C960.299 66.5417 961.026 66.1537 961.817 65.9966C962.608 65.8394 963.428 65.92 964.173 66.2284C964.918 66.5367 965.555 67.0589 966.003 67.7288C966.451 68.3988 966.69 69.1864 966.69 69.9922C966.692 70.5282 966.587 71.0593 966.383 71.555C966.179 72.0507 965.879 72.5013 965.5 72.8809C965.121 73.2605 964.671 73.5617 964.176 73.7672C963.68 73.9727 963.149 74.0784 962.612 74.0784V74.0661Z" fill="#2B3872"/>
<path d="M874.132 103.586C872.68 103.586 871.261 104.016 870.055 104.822C868.848 105.627 867.907 106.772 867.352 108.112C866.796 109.452 866.651 110.926 866.934 112.349C867.217 113.771 867.916 115.077 868.942 116.103C869.969 117.128 871.277 117.827 872.7 118.11C874.124 118.392 875.599 118.247 876.94 117.692C878.281 117.137 879.428 116.198 880.234 114.992C881.041 113.786 881.471 112.368 881.471 110.918C881.471 108.974 880.698 107.109 879.321 105.733C877.945 104.358 876.078 103.586 874.132 103.586ZM874.132 114.988C873.325 114.988 872.537 114.749 871.866 114.301C871.195 113.853 870.673 113.217 870.364 112.472C870.056 111.727 869.975 110.908 870.133 110.118C870.291 109.327 870.679 108.601 871.25 108.032C871.821 107.462 872.548 107.075 873.339 106.918C874.13 106.761 874.95 106.842 875.695 107.151C876.44 107.46 877.077 107.983 877.524 108.654C877.972 109.324 878.21 110.112 878.21 110.918C878.207 111.997 877.777 113.031 877.012 113.792C876.248 114.554 875.212 114.981 874.132 114.98V114.988Z" fill="#2B3872"/>
</svg>
